<svg width="120" height="122" viewBox="0 0 120 122" fill="none" xmlns="http://www.w3.org/2000/svg">
<g filter="url(#filter0_d_343_425)">
<circle cx="60" cy="60" r="60" fill="white"/>
</g>
<g clip-path="url(#clip0_343_425)">
<path d="M45.4775 65.3743C44.2677 63.2431 43.1852 61.0535 42.6199 58.6543C40.2709 48.6757 42.8123 40.1529 50.3816 33.2216C53.9713 29.9355 58.2895 28.0724 63.0785 27.2887C63.6129 27.2011 64.1714 27.2458 64.6783 27C65.0219 27 65.3656 27 65.7093 27C65.9653 27.1392 66.242 27.0327 66.5066 27.067C66.7472 27.067 66.986 27.067 67.2266 27.067C67.4929 27.0327 67.7713 27.1409 68.0291 27C68.3298 27 68.6305 27 68.9312 27C69.5584 27.1341 70.2028 27.0825 70.8334 27.1805C75.4661 27.8903 79.554 29.798 83.1454 32.7936C83.7176 33.2697 84.3534 33.6907 84.7005 34.3885C84.697 34.6309 84.5149 34.7649 84.3671 34.9144C83.7502 35.5383 83.1299 36.1605 82.5061 36.7757C82.3394 36.939 82.1814 37.1229 81.9202 37.1384C81.8532 37.1349 81.7896 37.116 81.7294 37.0851C80.2723 35.8494 78.8168 34.6137 77.1225 33.7011C74.5038 32.29 71.7321 31.4204 68.7525 31.1471C65.003 30.8034 61.4478 31.4582 58.0386 32.9913C56.1089 33.8592 54.3905 35.0536 52.7959 36.4509C50.7957 38.2022 49.2303 40.2818 48.043 42.6364C46.8246 45.0528 46.1047 47.6171 45.8847 50.3325C45.4259 55.9955 47.0137 61.0123 50.5208 65.4464C50.9332 65.9672 51.3972 66.4467 51.801 66.9743C51.8336 67.031 51.8508 67.0929 51.8525 67.1599C51.7305 67.5879 51.4161 67.8801 51.1119 68.1688C50.4847 68.7652 49.9383 69.4475 49.2372 69.9682C49.1753 69.9837 49.1135 69.982 49.0533 69.9648C47.6185 68.6242 46.328 67.1703 45.4775 65.3743Z" fill="#596C76"/>
<path d="M49.1942 69.9614C49.6238 69.3478 50.2184 68.8906 50.7219 68.3493C51.0793 67.9643 51.4487 67.5879 51.8113 67.2064C52.3852 67.2992 52.7014 67.7769 53.0949 68.1138C56.4027 70.9496 60.2071 72.6579 64.5408 73.1031C71.5448 73.8232 77.504 71.5597 82.3257 66.4897C85.5545 63.0936 87.3965 58.9791 87.8485 54.2769C88.4602 47.8989 86.5013 42.3923 82.2484 37.6574C82.0937 37.4856 81.8875 37.3378 81.9253 37.061C82.714 36.4475 83.343 35.6689 84.0715 34.9935C84.2726 34.8079 84.4839 34.636 84.6919 34.4573C85.2297 34.5535 85.5012 35.0038 85.8157 35.3613C88.9723 38.9653 90.9793 43.1262 91.811 47.8491C91.933 48.5417 91.8643 49.2515 92.0017 49.9441C92.0017 50.2019 92.0017 50.4597 92.0017 50.7175C91.8935 51.0613 91.8935 51.405 92.0017 51.7487C92.0017 52.0065 92.0017 52.2643 92.0017 52.5221C91.8935 52.8658 91.8935 53.2096 92.0017 53.5533C92.0017 53.897 92.0017 54.2408 92.0017 54.5845C91.6684 55.4404 91.6701 56.3616 91.4948 57.2484C89.596 66.8523 81.6229 74.8561 72.038 76.7501C65.6852 78.0047 59.7002 77.0268 54.0881 73.7905C53.9403 73.7046 53.7891 73.6255 53.6379 73.5448C53.2427 73.5379 52.9798 73.2612 52.6825 73.0635C51.581 72.3297 50.5346 71.5236 49.5946 70.5852C49.4194 70.4099 49.1874 70.2587 49.1942 69.9614Z" fill="#465A61"/>
<path d="M66.4791 27.1237C66.2214 27.0859 65.9344 27.2423 65.7093 27C65.967 27 66.2248 27 66.4825 27C66.5255 27.0292 66.5393 27.0567 66.5238 27.0825C66.5083 27.11 66.4946 27.1237 66.4791 27.1237Z" fill="#808E96"/>
<path d="M66.4791 27.1237C66.4808 27.0825 66.4825 27.0412 66.4825 27C66.7403 27 66.998 27 67.2558 27C67.297 27.0258 67.3125 27.0533 67.2988 27.0808C67.2867 27.1083 67.273 27.1237 67.2592 27.1237C66.9998 27.122 66.7386 27.122 66.4791 27.1237Z" fill="#708089"/>
<path d="M67.2592 27.122C67.2575 27.0808 67.2558 27.0412 67.2558 27C67.5136 27 67.7713 27 68.0291 27C67.804 27.2406 67.517 27.0859 67.2592 27.122Z" fill="#7F8E96"/>
<path d="M49.1943 69.9614C50.4968 71.3775 52.0587 72.4706 53.6362 73.543C53.5228 73.6702 53.4179 73.806 53.2977 73.9263C47.6031 79.6219 41.9016 85.3107 36.219 91.0184C34.9268 92.316 33.4387 93.0722 31.5795 92.9931C30.1069 92.9295 28.8284 92.4105 27.7888 91.3466C27.6548 90.9754 27.9435 90.7932 28.1462 90.5887C29.203 89.5197 30.2684 88.461 31.3303 87.3972C36.0661 82.6605 40.8018 77.9239 45.5376 73.1873C46.5532 72.1698 47.6735 71.2624 48.653 70.2054C48.7681 70.0799 48.8918 69.9545 49.0757 69.9304C49.1169 69.9407 49.1564 69.951 49.1943 69.9614Z" fill="#C68400"/>
<path d="M49.0774 69.9322C48.2045 70.9049 47.2182 71.7625 46.2937 72.6837C40.2743 78.6715 34.279 84.6834 28.2768 90.6901C28.0826 90.8843 27.8352 91.0425 27.7905 91.3484C25.4879 89.0437 25.3745 85.4774 27.6307 83.2019C33.5075 77.2777 39.4237 71.3913 45.3245 65.4911C45.3692 65.4465 45.4259 65.4121 45.4757 65.3743C46.548 66.995 47.7697 68.4988 49.0774 69.9322Z" fill="#FEB200"/>
<path d="M81.9253 37.061C84.3362 39.572 86.1387 42.4508 87.1886 45.7815C90.9192 57.6111 83.6506 70.2484 71.507 72.8796C64.1576 74.4711 57.6932 72.5686 52.1515 67.4985C52.0416 67.3988 51.9264 67.3043 51.813 67.2063C51.8044 67.1668 51.801 67.1273 51.7993 67.086C51.825 66.8781 51.978 66.7526 52.112 66.6186C53.6465 65.0804 55.1827 63.5422 56.7223 62.0074C56.8581 61.8716 56.9973 61.7376 57.188 61.6757C57.2928 61.6396 57.4028 61.6293 57.5128 61.6241C59.348 61.576 61.1832 61.5949 63.0184 61.6104C65.5701 61.5846 68.1219 61.5794 70.6736 61.6121C72.4761 61.5949 74.2787 61.6121 76.0812 61.6035C77.6157 61.5949 78.267 60.9435 78.2704 59.4002C78.2756 57.1247 78.2773 54.8492 78.2704 52.5737C78.2653 51.0716 77.6088 50.4099 76.1156 50.4013C74.6344 50.3927 73.1532 50.403 71.672 50.3978C71.3541 50.3961 71.0241 50.4391 70.732 50.2535C70.4004 49.7121 70.586 49.1209 70.5619 48.5486C70.5636 48.442 70.5791 48.3389 70.6117 48.2392C70.7131 47.9677 70.9348 47.7923 71.1307 47.5964C74.4746 44.2485 77.8202 40.9022 81.1675 37.5594C81.36 37.367 81.5198 37.1195 81.8188 37.0628C81.8549 37.061 81.8892 37.061 81.9253 37.061Z" fill="#D9ECFE"/>
<path d="M81.8188 37.061C81.8085 37.0799 81.8033 37.104 81.7896 37.1178C78.1123 40.794 74.4351 44.4685 70.7578 48.143C70.476 47.892 70.5447 47.55 70.543 47.2372C70.5344 45.1748 70.543 43.1124 70.5378 41.0501C70.5344 39.4328 69.8918 38.8003 68.2645 38.7969C67.2335 38.7952 66.2025 38.7831 65.1714 38.8003C63.9274 38.8227 63.2211 39.5256 63.2039 40.7768C63.1833 42.3236 63.2022 43.8704 63.1953 45.4172C63.1936 45.7351 63.2366 46.0668 63.0407 46.3538C62.7606 46.5687 62.429 46.524 62.1111 46.5257C60.6075 46.5326 59.104 46.5205 57.6021 46.5309C56.1536 46.5395 55.4714 47.2218 55.4679 48.6706C55.4611 52.1938 55.4868 55.7154 55.4542 59.2386C55.4439 60.3162 55.7394 61.1343 56.7859 61.5674C56.9045 61.6173 57.0076 61.698 57.0712 61.8166C55.3545 63.6143 53.6053 65.3777 51.7975 67.0843C48.897 64.2142 47.0274 60.7648 46.1339 56.7999C43.5168 45.1937 50.8679 33.7097 62.5991 31.331C69.8677 29.8564 76.272 31.8363 81.702 36.9081C81.7483 36.9528 81.781 37.0112 81.8188 37.061Z" fill="#F1F1F1"/>
<path d="M62.9823 46.335C62.9891 44.4926 62.996 42.6485 63.0029 40.806C63.008 39.3589 63.7693 38.6044 65.2333 38.601C66.3691 38.5993 67.505 38.5941 68.6408 38.6027C69.9278 38.6113 70.7269 39.4036 70.7337 40.6857C70.7475 43.1709 70.7509 45.6578 70.7578 48.143C70.7423 48.2221 70.7269 48.2994 70.7131 48.3785C70.6358 48.6053 70.4983 48.7909 70.3282 48.9611C68.1029 51.1833 65.8811 53.409 63.6559 55.6312C63.5493 55.7378 63.4428 55.8426 63.3173 55.9251C63.063 56.0918 62.9238 55.9887 62.85 55.7257C62.7383 54.5931 62.8104 53.4605 62.8001 52.3279C62.7864 50.6385 62.7933 48.9491 62.7984 47.2613C62.8001 46.9417 62.7623 46.6117 62.9823 46.335Z" fill="#8FCC92"/>
<path d="M62.9823 46.335C62.9891 49.2515 62.996 52.1698 63.0046 55.0864C63.0063 55.3854 63.0184 55.6862 63.0252 55.9852C63.0235 56.0162 63.0235 56.0454 63.0218 56.0763C62.9496 56.3634 62.7331 56.5473 62.5372 56.7432C61.0079 58.2762 59.4751 59.8058 57.9458 61.3389C57.7619 61.5228 57.5729 61.6929 57.322 61.7789C57.2396 61.7926 57.1554 61.8046 57.0729 61.8184C55.7738 61.5056 55.272 60.8766 55.2703 59.5515C55.2686 55.901 55.2686 52.2523 55.2703 48.6019C55.2703 47.0706 56.0178 46.335 57.5712 46.3333C59.3755 46.3333 61.178 46.335 62.9823 46.335Z" fill="#629CF9"/>
<path d="M70.7544 50.2002C72.5792 50.2002 74.4041 50.2002 76.229 50.2019C77.6982 50.2036 78.4663 50.9564 78.468 52.4035C78.4715 54.8079 78.4715 57.214 78.468 59.6185C78.4663 61.0295 77.6913 61.8012 76.2737 61.8012C74.4282 61.7994 72.5827 61.7891 70.7372 61.7805C70.5 61.5382 70.531 61.2271 70.531 60.9315C70.5258 57.6334 70.5241 54.3353 70.5327 51.0372C70.531 50.745 70.4949 50.4305 70.7544 50.2002Z" fill="#EF5541"/>
<path d="M70.7544 50.2002C70.7475 54.0603 70.7423 57.9204 70.7355 61.7805C68.1579 61.7805 65.5804 61.7805 63.0029 61.7823C62.7829 61.5606 62.8001 61.2718 62.7984 60.9968C62.7898 59.646 62.7967 58.2968 62.7932 56.946C62.7915 56.616 62.8946 56.3152 62.9823 56.0058L63.0235 55.9852C65.1852 53.8369 67.3452 51.6868 69.5086 49.5402C69.9038 49.1484 70.3093 48.7651 70.7097 48.3767C70.7269 48.9851 70.7406 49.5935 70.7544 50.2002Z" fill="#649368"/>
<path d="M62.984 56.0059C62.9909 57.9308 62.9977 59.8574 63.0029 61.7823C61.1093 61.7806 59.2157 61.7806 57.322 61.7788C59.0095 60.0774 60.6986 58.3759 62.3843 56.671C62.5939 56.4596 62.7847 56.2293 62.984 56.0059Z" fill="#3777D3"/>
</g>
<defs>
<filter id="filter0_d_343_425" x="0" y="0" width="120" height="122" filterUnits="userSpaceOnUse" color-interpolation-filters="sRGB">
<feFlood flood-opacity="0" result="BackgroundImageFix"/>
<feColorMatrix in="SourceAlpha" type="matrix" values="0 0 0 0 0 0 0 0 0 0 0 0 0 0 0 0 0 0 127 0" result="hardAlpha"/>
<feOffset dy="2"/>
<feComposite in2="hardAlpha" operator="out"/>
<feColorMatrix type="matrix" values="0 0 0 0 0 0 0 0 0 0 0 0 0 0 0 0 0 0 0.15 0"/>
<feBlend mode="normal" in2="BackgroundImageFix" result="effect1_dropShadow_343_425"/>
<feBlend mode="normal" in="SourceGraphic" in2="effect1_dropShadow_343_425" result="shape"/>
</filter>
<clipPath id="clip0_343_425">
<rect width="66" height="66" fill="white" transform="translate(26 27)"/>
</clipPath>
</defs>
</svg>
