<svg width="86" height="86" viewBox="0 0 86 86" fill="none" xmlns="http://www.w3.org/2000/svg">
<rect width="86" height="86" rx="43" fill="white"/>
<path d="M59.1394 20.5438C59.1486 21.4534 59.1579 22.363 59.1671 23.2726C59.4074 23.5597 59.412 23.9088 59.412 24.2511C59.4097 25.7694 59.4421 27.2876 59.3958 28.8059C59.4536 30.3242 59.419 31.8448 59.419 33.3631C59.4236 41.4184 59.4236 49.4761 59.4166 57.5315C59.4166 58.069 59.5137 58.6272 59.1972 59.1256C58.8575 59.4035 58.444 59.3806 58.0443 59.3806C55.0824 59.3898 52.1228 59.3875 49.1608 59.3829C48.7889 59.3829 48.41 59.3966 48.0727 59.1922C47.7076 58.8178 47.7839 58.34 47.7815 57.8898C47.77 55.3356 47.7839 52.7837 47.7746 50.2295C47.7677 48.6745 47.4488 48.3598 45.8986 48.3529C43.6182 48.346 41.3379 48.3437 39.0598 48.3529C37.572 48.3598 37.2416 48.6906 37.2369 50.1951C37.2254 52.7493 37.2393 55.3012 37.23 57.8554C37.2277 58.3079 37.3016 58.7834 36.9689 59.1738C36.7194 59.3461 36.4306 59.3737 36.1441 59.376C33.0113 59.3921 29.8761 59.3898 26.7432 59.376C26.4267 59.3737 26.1078 59.353 25.8398 59.1509C25.5857 58.8339 25.5972 58.4526 25.5949 58.0828C25.5903 48.4149 25.5811 38.7448 25.5972 29.077C25.5972 28.992 25.6088 28.9047 25.6157 28.8197C25.5718 27.2922 25.6018 25.7648 25.5995 24.2373C25.5995 23.8973 25.6065 23.5551 25.8444 23.2703C25.8537 22.3607 25.8629 21.4511 25.8722 20.5415C26.1794 20.1901 26.6046 20.236 26.9996 20.236C37.3363 20.2268 47.6753 20.2268 58.0119 20.236C58.4093 20.2383 58.8321 20.1924 59.1394 20.5438Z" fill="#FEB200"/>
<path d="M70.25 64.606C71.5208 64.6106 72.7892 64.6083 74.0599 64.6175C75.2913 64.6267 75.7672 65.1067 75.7742 66.3517C75.7811 67.3853 75.7372 68.4189 75.7903 69.4502C75.8204 70.0452 75.6009 70.2128 75.0626 70.1301C74.9771 70.1164 74.8893 70.1278 74.8038 70.1278C53.271 70.1278 31.7405 70.1233 10.2078 70.1439C9.45226 70.1439 9.14729 70.0061 9.2166 69.1884C9.29746 68.2191 9.22815 67.2383 9.23739 66.2621C9.24894 65.1297 9.74337 64.629 10.8639 64.6175C12.1623 64.6037 13.4608 64.6083 14.7592 64.6037C15.2398 64.2362 15.8081 64.3349 16.3464 64.3349C25.2969 64.3304 34.245 64.3304 43.1954 64.3304C51.6838 64.3304 60.1721 64.3281 68.6582 64.3349C69.2011 64.3372 69.7695 64.2385 70.25 64.606Z" fill="#415B6B"/>
<path d="M70.25 64.606C51.7531 64.606 33.2562 64.606 14.7615 64.606C14.7685 63.4024 14.7754 62.1988 14.78 60.9952C14.7846 59.5298 15.2097 59.1094 16.6815 59.1026C16.9703 59.1003 17.2568 59.0888 17.5455 59.0819C17.8089 58.866 18.1255 58.8361 18.4443 58.8338C20.4358 58.8338 22.4297 58.7971 24.4213 58.8499C24.9203 58.8545 25.4378 58.7488 25.8814 59.0888C29.5734 59.0842 33.2677 59.0796 36.9597 59.0727C37.3017 58.7971 37.7129 58.8246 38.1126 58.8246C41.0399 58.8177 43.9694 58.8177 46.8967 58.8246C47.2964 58.8246 47.7076 58.7948 48.0496 59.0727C51.7416 59.0773 55.4359 59.0819 59.1279 59.0888C59.5715 58.7511 60.0867 58.8568 60.5834 58.8499C62.5518 58.7971 64.5203 58.8338 66.4911 58.8315C66.8353 58.8315 67.1795 58.8453 67.4637 59.0819C67.5492 59.0888 67.6347 59.1003 67.7225 59.1026C70.0606 59.137 70.2269 59.307 70.2293 61.5993C70.2316 62.6008 70.2431 63.6023 70.25 64.606Z" fill="#698492"/>
<path d="M59.1394 20.5437C57.7855 20.5345 56.4316 20.5161 55.0801 20.5161C45.6883 20.5139 36.2966 20.5139 26.9049 20.5161C26.5607 20.5161 26.2141 20.5345 25.8699 20.5437C25.7543 20.5345 25.6411 20.5184 25.5256 20.5161C23.2845 20.484 23.0974 20.291 23.0974 18.0286C23.0974 17.5117 23.0835 16.9949 23.102 16.4804C23.1344 15.5616 23.6403 15.0563 24.5506 15.0058C24.7516 14.9943 24.9549 15.0035 25.156 15.0035C36.7495 15.0035 48.343 15.0035 59.9365 15.0035C61.5145 15.0035 61.9096 15.4031 61.9119 16.9949C61.9119 17.6266 61.9188 18.256 61.9096 18.8876C61.8934 20.0039 61.392 20.4932 60.2622 20.5161C59.888 20.523 59.5137 20.5345 59.1394 20.5437Z" fill="#698492"/>
<path d="M24.4744 59.0864C22.164 59.0841 19.8559 59.0841 17.5455 59.0818C17.5455 48.989 17.5455 38.8986 17.5455 28.8058C17.7257 28.5784 17.9868 28.5347 18.2456 28.5324C20.1794 28.5095 22.1132 28.4727 24.047 28.5531C24.1625 28.5577 24.2711 28.6013 24.3797 28.6473C24.4859 28.7024 24.5645 28.7828 24.6222 28.8862C24.8001 29.295 24.7655 29.7314 24.7655 30.1587C24.7678 39.3373 24.7701 48.5182 24.7632 57.6968C24.7632 58.1722 24.8487 58.6798 24.4744 59.0864Z" fill="#629CF9"/>
<path d="M67.466 59.0818C65.1556 59.0841 62.8475 59.0841 60.5372 59.0864C60.2229 58.7625 60.2507 58.3491 60.2484 57.9494C60.2414 48.5916 60.2414 39.2339 60.2484 29.8761C60.2484 29.5614 60.2461 29.2445 60.3639 28.9413C60.4124 28.8333 60.4863 28.746 60.5811 28.6794C60.9553 28.4842 61.362 28.5117 61.764 28.5117C63.2888 28.5072 64.8137 28.5026 66.3385 28.514C66.7336 28.5163 67.1564 28.4635 67.4683 28.8058C67.466 38.8985 67.466 48.989 67.466 59.0818Z" fill="#629CF9"/>
<path d="M24.4929 28.7713C22.1778 28.7828 19.8605 28.7943 17.5455 28.8058C14.5952 28.8793 14.7592 28.1902 14.7754 25.9599C14.7962 23.3965 14.9094 23.2679 17.5062 23.2724C19.8328 23.277 22.1594 23.2908 24.4859 23.3C24.5691 23.3804 24.6569 23.4723 24.6661 23.5825C24.8186 25.218 24.814 26.8534 24.6684 28.4888C24.6615 28.5991 24.576 28.6909 24.4929 28.7713Z" fill="#698492"/>
<path d="M67.466 28.8059C65.151 28.7944 62.8337 28.7829 60.5187 28.7714C60.4355 28.691 60.35 28.5991 60.3408 28.4889C60.1952 26.8535 60.1906 25.218 60.3431 23.5826C60.3523 23.4723 60.4401 23.3805 60.5233 23.3001C63.2657 23.2909 66.0081 23.2702 68.7506 23.2794C69.6701 23.284 70.1923 23.8192 70.2223 24.7288C70.2477 25.5028 70.2338 26.2792 70.2269 27.0533C70.2177 28.289 69.7348 28.7691 68.5011 28.7829C68.1591 28.7875 67.8126 28.799 67.466 28.8059Z" fill="#698492"/>
<path d="M24.4929 28.7713C24.4905 26.9476 24.4905 25.1238 24.4882 23.3C24.9388 23.2908 25.3916 23.2816 25.8421 23.2725C25.8421 25.11 25.8421 26.9476 25.8421 28.7851C25.3893 29.1274 24.9341 29.0929 24.4767 28.7989L24.4929 28.7713Z" fill="#00325A"/>
<path d="M60.5233 23.3C60.521 25.1238 60.521 26.9476 60.5187 28.7713L60.5349 28.7989C60.0774 29.0952 59.6223 29.1274 59.1694 28.7851C59.1694 26.9476 59.1694 25.11 59.1694 23.2725C59.62 23.2816 60.0728 23.2908 60.5233 23.3Z" fill="#00325A"/>
<path d="M48.0496 59.075C44.353 59.075 40.6564 59.075 36.9597 59.075C36.9597 56.0086 36.9574 52.9399 36.9621 49.8735C36.9644 48.5298 37.4218 48.0819 38.785 48.0796C41.294 48.0773 43.8008 48.075 46.3099 48.0796C47.5575 48.0819 48.045 48.5573 48.0473 49.7862C48.0542 52.8825 48.0496 55.9788 48.0496 59.075Z" fill="#EFEFEF"/>
<path d="M24.4767 28.7966C24.9319 28.792 25.387 28.7874 25.8422 28.7828C25.8514 31.1349 25.8676 33.4893 25.8699 35.8414C25.8768 43.5912 25.8791 51.3388 25.8814 59.0887C25.4124 59.0887 24.9434 59.0864 24.4744 59.0864C24.4744 48.9891 24.4767 38.894 24.4767 28.7966Z" fill="#3777D3"/>
<path d="M59.1695 28.7852C59.6246 28.7898 60.0798 28.7943 60.5349 28.7989C60.5349 38.8963 60.5349 48.9914 60.5372 59.0888C60.0682 59.0888 59.5992 59.0911 59.1302 59.0911C59.1348 49.3336 59.1371 39.5739 59.1417 29.8165C59.1417 29.4719 59.1602 29.1274 59.1695 28.7852Z" fill="#3777D3"/>
<path d="M34.185 28.7828C31.5257 28.7828 31.4171 28.6749 31.4171 26.0449C31.4171 23.3574 31.5072 23.2701 34.2358 23.2701C36.8396 23.2701 36.962 23.3919 36.962 25.9645C36.962 25.992 36.962 26.0219 36.962 26.0494C36.9597 28.6749 36.8511 28.7828 34.185 28.7828Z" fill="#EFEFEF"/>
<path d="M42.4931 23.2701C45.187 23.2701 45.2771 23.362 45.2771 26.0793C45.2771 28.6634 45.1547 28.7828 42.5578 28.7828C39.8246 28.7828 39.7322 28.6909 39.7322 26.015C39.7322 23.3804 39.8431 23.2701 42.4931 23.2701Z" fill="#EFEFEF"/>
<path d="M34.1942 37.052C31.5257 37.052 31.4148 36.9463 31.4148 34.3232C31.4148 31.6243 31.5003 31.5393 34.2242 31.5393C36.835 31.5393 36.9597 31.661 36.9597 34.2244C36.9597 34.252 36.9597 34.2819 36.9597 34.3094C36.9597 36.9417 36.8488 37.052 34.1942 37.052Z" fill="#EFEFEF"/>
<path d="M45.2771 34.2956C45.2771 36.9417 45.1662 37.052 42.5254 37.052C39.8223 37.052 39.7322 36.9624 39.7322 34.252C39.7322 31.661 39.8523 31.5393 42.4399 31.5393C42.4677 31.5393 42.4977 31.5393 42.5254 31.5393C45.1685 31.5393 45.2771 31.6496 45.2771 34.2956Z" fill="#EFEFEF"/>
<path d="M50.8058 37.052C48.1581 37.052 48.0495 36.944 48.0495 34.3002C48.0495 31.645 48.1558 31.5393 50.7942 31.5393C53.5089 31.5393 53.5944 31.6243 53.5944 34.3324C53.5944 36.9486 53.4881 37.052 50.8058 37.052Z" fill="#EFEFEF"/>
<path d="M31.4148 42.5002C31.4148 39.93 31.5372 39.8082 34.1434 39.8082C36.8696 39.8082 36.9597 39.8955 36.9597 42.5852C36.9597 45.2106 36.8488 45.3209 34.1873 45.3209C31.5095 45.3209 31.4148 45.2267 31.4148 42.5002Z" fill="#EFEFEF"/>
<path d="M45.2771 42.5599C45.2771 45.2129 45.1685 45.3231 42.5324 45.3231C39.82 45.3231 39.7322 45.2358 39.7322 42.53C39.7322 39.9345 39.8546 39.8105 42.433 39.8105C42.4607 39.8105 42.4908 39.8105 42.5185 39.8105C45.1685 39.8082 45.2771 39.9184 45.2771 42.5599Z" fill="#EFEFEF"/>
<path d="M50.8243 39.8082C53.4858 39.8082 53.5944 39.9162 53.5944 42.5439C53.5944 45.2313 53.5043 45.3209 50.7758 45.3209C48.1696 45.3209 48.0495 45.2015 48.0495 42.6266C48.0495 42.599 48.0495 42.5692 48.0495 42.5416C48.0495 39.9139 48.1581 39.8082 50.8243 39.8082Z" fill="#EFEFEF"/>
<path d="M48.0495 26.0081C48.0495 23.3781 48.1581 23.2725 50.8197 23.2725C53.4858 23.2725 53.5944 23.3781 53.5944 26.0058C53.5944 28.6978 53.5043 28.7851 50.7804 28.7851C48.1512 28.7828 48.0495 28.6818 48.0495 26.0081Z" fill="#EFEFEF"/>
</svg>
