<svg width="100" height="102" viewBox="0 0 100 102" fill="none" xmlns="http://www.w3.org/2000/svg">
<g filter="url(#filter0_d_340_2)">
<circle cx="50" cy="50" r="50" fill="white"/>
<circle cx="50" cy="50" r="49" stroke="#2DA0E3" stroke-opacity="0.6" stroke-width="2"/>
</g>
<path d="M19 75.5018C19 63.8675 19 52.2316 19 40.5973C19.2168 39.5911 19.8597 38.995 20.8255 38.7108C21.3992 38.7968 21.8206 39.1717 22.2543 39.502C24.8688 41.4899 27.5463 43.3934 30.1147 45.4413C30.1793 45.4919 30.2562 45.5211 30.3361 45.5457C34.6423 48.7489 38.9516 51.9474 43.2456 55.1675C45.2218 56.65 47.2303 58.0864 49.1866 59.5935C49.5619 59.8839 50.014 60.0344 50.4139 60.2818C50.5384 60.3632 50.643 60.4615 50.703 60.5998C50.7922 60.8994 50.7784 61.2097 50.7784 61.5154C50.783 67.2903 50.783 73.0652 50.7768 78.8401C50.7768 79.1996 50.8491 79.5852 50.58 79.9001C50.3785 80.0538 50.1447 79.9846 49.9263 79.9846C41.4446 79.9877 32.9629 79.9723 24.4812 79.9985C22.488 80.0046 20.9086 79.3317 19.7413 77.6848C19.2661 77.015 19.2168 76.2392 19 75.5018Z" fill="#8FCC92"/>
<path d="M50.4997 60.5045C50.4105 60.4677 50.3213 60.4323 50.2321 60.3955C50.1952 56.0385 50.2152 51.6816 50.2229 47.3232C50.2229 47.1404 50.2229 46.9545 50.3029 46.7824C50.4075 46.4368 50.735 46.3661 51.0073 46.2493C51.6563 45.9713 52.0392 45.495 52.0469 44.7945C52.0561 44.0647 51.667 43.5747 50.9903 43.2904C50.735 43.1829 50.4336 43.1122 50.3152 42.8034C50.1922 41.6051 50.0614 40.4084 50.3967 39.2208C50.7104 38.9059 51.1165 38.9673 51.4979 38.9658C54.6106 38.9566 57.725 38.9627 60.8377 38.9597C61.1453 38.9597 61.4529 38.975 61.7574 38.9243C62.5433 38.7937 63.1016 38.1608 63.1047 37.4049C63.1077 36.6491 62.5541 36.01 61.7697 35.8748C61.4652 35.8226 61.1576 35.8364 60.85 35.8364C57.7373 35.8333 54.6229 35.8395 51.5102 35.8302C51.1288 35.8287 50.7227 35.8917 50.4029 35.5829C50.2798 35.4108 50.2337 35.2142 50.2275 35.0068C50.2014 34.1526 50.2045 33.2969 50.226 32.4427C50.2306 32.2369 50.2691 32.0387 50.3844 31.862C50.6874 31.5317 51.0949 31.5916 51.4763 31.5901C54.566 31.5809 57.6558 31.587 60.7455 31.584C61.0531 31.584 61.3606 31.5962 61.6652 31.5594C62.5156 31.4564 63.117 30.8004 63.1047 30C63.0924 29.2196 62.5079 28.5928 61.6836 28.4853C61.3791 28.4453 61.07 28.4591 60.7639 28.4591C57.6742 28.4576 54.5845 28.4638 51.4948 28.453C51.1134 28.4515 50.7074 28.5145 50.3952 28.1949C50.2352 27.9629 50.2214 27.6971 50.2198 27.4314C50.206 24.2298 50.2075 21.0297 50.2198 17.828C50.2214 17.5223 50.2137 17.2074 50.4967 16.9923C56.813 16.9923 63.1277 16.9923 69.444 16.9923C70.7544 17.3042 71.0681 17.6867 71.0742 19.0801C71.0912 22.738 71.0789 26.3959 71.0804 30.0523C71.0804 30.6653 71.0804 31.2782 71.0958 31.8912C70.9512 32.2953 71.0881 32.7039 71.0865 33.1095C71.0789 36.898 71.0819 40.6849 71.0819 44.4734C71.0819 44.8237 71.0496 45.1678 70.9866 45.5088C71.0004 45.9083 70.7421 46.1403 70.456 46.3507C64.8087 50.5141 59.2152 54.7511 53.5664 58.9129C52.9727 59.3492 52.3991 59.8117 51.7931 60.2295C51.4117 60.4984 51.0103 60.8056 50.4997 60.5045Z" fill="#EEE1DC"/>
<path d="M50.4949 46.6226C50.4949 50.9673 50.498 55.3134 50.4933 59.658C50.4933 59.9253 50.601 60.251 50.2319 60.397C49.829 60.42 49.5321 60.1773 49.2415 59.9607C42.9298 55.2643 36.6227 50.5617 30.3141 45.8591C30.2649 45.8222 30.2264 45.7746 30.1818 45.7316C29.9727 45.4105 29.9127 45.0556 29.9127 44.6777C29.9112 40.7679 29.9127 36.858 29.9112 32.9482C29.9112 32.604 30.0403 32.2568 29.9004 31.9142C29.9327 27.9921 29.9035 24.0669 29.9127 20.1432C29.9142 19.7761 29.9096 19.4073 29.9173 19.0402C29.9435 17.7435 30.2849 17.3165 31.5491 17C37.8654 17 44.1801 17 50.4964 17C50.4949 20.727 50.4949 24.454 50.4933 28.1811C50.4734 28.2133 50.4534 28.2456 50.4349 28.2779C50.1365 28.5313 49.7721 28.4591 49.4322 28.4607C46.3378 28.4699 43.2435 28.4637 40.1477 28.4668C39.8201 28.4668 39.4894 28.4484 39.1665 28.5144C38.4144 28.6665 37.8838 29.2964 37.8838 30.0292C37.8838 30.762 38.4129 31.3919 39.1665 31.544C39.4894 31.6101 39.8201 31.5901 40.1477 31.5916C43.242 31.5947 46.3363 31.5886 49.4322 31.5978C49.7721 31.5993 50.1365 31.5271 50.4349 31.7806C50.4549 31.8129 50.4734 31.8451 50.4933 31.8774C50.4933 33.1033 50.4933 34.3308 50.4933 35.5568C50.4734 35.589 50.4534 35.6213 50.4349 35.6536C50.1365 35.9071 49.7721 35.8348 49.4322 35.8364C46.3378 35.8456 43.2435 35.8395 40.1477 35.8425C39.8201 35.8425 39.4894 35.8241 39.1665 35.8902C38.4144 36.0422 37.8838 36.6721 37.8838 37.4049C37.8838 38.1377 38.4129 38.7676 39.1665 38.9197C39.4894 38.9858 39.8201 38.9658 40.1477 38.9673C43.242 38.9704 46.3363 38.9643 49.4322 38.9735C49.7721 38.975 50.1365 38.9028 50.4349 39.1563C50.4549 39.1886 50.4734 39.2208 50.4933 39.2531C50.4933 40.4806 50.4933 41.7065 50.4933 42.934C50.4734 42.9663 50.4534 42.9985 50.4349 43.0308C50.1166 43.2935 49.7321 43.2121 49.3722 43.2136C46.3009 43.2228 43.2297 43.2182 40.16 43.2198C39.8524 43.2198 39.5448 43.2029 39.2403 43.2582C38.4636 43.3995 37.8884 44.0524 37.8884 44.7822C37.8884 45.5119 38.4652 46.1648 39.2403 46.3062C39.5432 46.3615 39.8524 46.3446 40.16 46.3446C43.2512 46.3477 46.3425 46.3415 49.4337 46.3507C49.7736 46.3523 50.1365 46.2801 50.4349 46.532C50.4549 46.5581 50.4749 46.5904 50.4949 46.6226Z" fill="#F6EFEA"/>
<path d="M80.0833 38.7845C80.577 39.0411 81.003 39.396 81.4167 39.7555C81.8781 40.1564 81.9996 40.6972 81.9996 41.304C81.9904 50.0455 81.9934 58.787 81.9934 67.5284C81.9934 69.7806 81.998 72.0328 81.9919 74.2835C81.9842 77.5051 79.5881 79.9201 76.38 79.9232C67.8952 79.9293 59.4104 79.9263 50.9271 79.9247C50.7841 79.9247 50.6411 79.9124 50.498 79.9047C50.498 73.4385 50.4996 66.9708 50.4996 60.5045C51.2347 60.3786 51.7853 59.9177 52.359 59.4906C58.3846 54.9985 64.4133 50.5079 70.4405 46.0158C70.5712 45.9175 70.6927 45.8069 70.8188 45.7024C70.9526 45.3168 71.2494 45.0679 71.5616 44.8375C74.13 42.931 76.6829 41.0045 79.2559 39.1041C79.4989 38.9259 79.7419 38.7231 80.0833 38.7845Z" fill="#649368"/>
<path d="M20.8672 38.8306C23.1787 37.1008 25.4887 35.3678 27.8033 33.6426C28.5907 33.0557 29.3904 32.4858 30.184 31.9081C30.184 36.5154 30.184 41.1228 30.1825 45.7301C27.2266 43.5378 24.2706 41.3455 21.3147 39.1532C21.1655 39.0442 21.0164 38.9382 20.8672 38.8306Z" fill="#68544F"/>
<path d="M80.0843 38.7845C77.6544 40.6096 75.2244 42.4378 72.7929 44.2598C72.1409 44.7484 71.4765 45.2231 70.8182 45.704C70.8152 41.1059 70.8136 36.5062 70.8105 31.9081C73.9018 34.2002 76.993 36.4924 80.0843 38.7845Z" fill="#53433F"/>
<path d="M50.4931 28.1811C54.1596 28.1826 57.826 28.1841 61.494 28.1841C62.2845 28.1841 62.8873 28.516 63.2303 29.2288C63.5625 29.9171 63.4733 30.59 63.0027 31.1907C62.5921 31.713 62.023 31.8774 61.3709 31.8758C57.7445 31.8682 54.1196 31.8743 50.4931 31.8743L50.4993 31.8651C50.3055 31.7176 50.2363 31.5133 50.2286 31.2782C50.2024 30.444 50.2024 29.6098 50.2286 28.7772C50.2363 28.5421 50.3055 28.3378 50.4993 28.1903L50.4931 28.1811Z" fill="#CCBEB9"/>
<path d="M50.4931 35.5553C54.1596 35.5568 57.826 35.5583 61.494 35.5583C62.2845 35.5583 62.8873 35.8902 63.2303 36.603C63.5625 37.2913 63.4733 37.9641 63.0027 38.5648C62.5921 39.0872 62.023 39.2516 61.3709 39.25C57.7445 39.2423 54.1196 39.2485 50.4931 39.2485L50.4993 39.2393C50.3055 39.0918 50.2363 38.8875 50.2286 38.6524C50.2024 37.8182 50.2024 36.984 50.2286 36.1513C50.2363 35.9163 50.3055 35.712 50.4993 35.5645L50.4931 35.5553Z" fill="#CCBEB9"/>
<path d="M50.4955 42.9294C51.6582 43.0416 52.3548 43.7513 52.341 44.8068C52.3272 45.8315 51.6351 46.512 50.4955 46.6226L50.5032 46.6134C50.3094 46.4659 50.2402 46.2616 50.2325 46.0266C50.2064 45.1924 50.2064 44.3597 50.2325 43.5255C50.2402 43.2904 50.3094 43.0861 50.5032 42.9386L50.4955 42.9294Z" fill="#CCBEB9"/>
<path d="M50.502 28.1903C50.502 29.4163 50.502 30.6407 50.502 31.8666C46.8556 31.8682 43.2091 31.8743 39.5627 31.8697C38.3693 31.8682 37.5649 31.0954 37.5803 29.9985C37.5957 28.9293 38.3923 28.1888 39.5627 28.1872C43.2091 28.1826 46.8556 28.1888 50.502 28.1903Z" fill="#E0D2CD"/>
<path d="M50.502 35.5645C50.502 36.7904 50.502 38.0148 50.502 39.2408C46.8556 39.2423 43.2091 39.2485 39.5627 39.2439C38.3693 39.2423 37.5649 38.4696 37.5803 37.3727C37.5957 36.3034 38.3923 35.5629 39.5627 35.5614C43.2091 35.5568 46.8556 35.5629 50.502 35.5645Z" fill="#E0D2CD"/>
<path d="M50.5021 42.9386C50.5021 44.1631 50.5021 45.389 50.5021 46.6134C46.8372 46.615 43.1738 46.6227 39.5089 46.6165C38.3878 46.615 37.5634 45.7961 37.5803 44.7453C37.5957 43.7222 38.4139 42.9371 39.5089 42.9356C43.1738 42.9294 46.8387 42.9371 50.5021 42.9386Z" fill="#E0D2CD"/>
<defs>
<filter id="filter0_d_340_2" x="0" y="0" width="100" height="102" filterUnits="userSpaceOnUse" color-interpolation-filters="sRGB">
<feFlood flood-opacity="0" result="BackgroundImageFix"/>
<feColorMatrix in="SourceAlpha" type="matrix" values="0 0 0 0 0 0 0 0 0 0 0 0 0 0 0 0 0 0 127 0" result="hardAlpha"/>
<feOffset dy="2"/>
<feComposite in2="hardAlpha" operator="out"/>
<feColorMatrix type="matrix" values="0 0 0 0 0.176471 0 0 0 0 0.627451 0 0 0 0 0.890196 0 0 0 0.15 0"/>
<feBlend mode="normal" in2="BackgroundImageFix" result="effect1_dropShadow_340_2"/>
<feBlend mode="normal" in="SourceGraphic" in2="effect1_dropShadow_340_2" result="shape"/>
</filter>
</defs>
</svg>
