<svg width="120" height="122" viewBox="0 0 120 122" fill="none" xmlns="http://www.w3.org/2000/svg">
<g filter="url(#filter0_d_343_442)">
<circle cx="60" cy="60" r="60" fill="white"/>
</g>
<path d="M69.9816 60.8395C70.1897 61.0252 70.4091 61.1995 70.6059 61.3964C77.9086 68.6963 85.1986 76.0087 92.5195 83.2889C94.0214 84.7823 95.4994 86.2519 95.9986 88.4077C95.9986 89.1572 95.9986 89.9081 95.9986 90.6577C95.7792 91.2708 95.9339 92.0231 95.3123 92.4858C93.1847 93.4673 91.1175 93.3014 89.1094 92.1455C88.8717 92.0091 88.6186 91.8698 88.5131 91.5844C88.6875 91.237 88.9856 91.3847 89.2444 91.4142C90.1162 91.5141 90.7392 91.1189 91.1723 90.4116C91.5956 89.7197 91.4972 89.0152 91.0528 88.3711C90.5789 87.6834 89.8856 87.4711 89.0855 87.6047C88.1095 87.7678 87.4317 88.7142 87.5625 89.7014C87.5963 89.9531 87.7031 90.1992 87.6244 90.4594C87.4725 90.6548 87.3122 90.5311 87.2081 90.4298C85.9284 89.1797 84.6066 87.9703 83.4366 86.6105C83.9569 85.5375 84.6952 84.6544 85.6838 83.9752C86.3152 83.5406 86.3081 83.5223 85.747 82.9613C79.672 76.8848 73.5956 70.8098 67.522 64.732C67.2759 64.4859 66.9834 64.275 66.84 63.9389C66.8231 63.7603 66.9159 63.6239 67.0298 63.5058C67.8553 62.6536 68.6934 61.8141 69.547 60.99C69.6638 60.8803 69.7945 60.7678 69.9816 60.8395Z" fill="#B8D7DC"/>
<path d="M74.7446 34.5497C77.8833 31.4025 81.0206 28.2539 84.1608 25.1081C84.7528 24.5147 85.5403 24.2841 86.2969 24C86.813 24 87.3277 24 87.8438 24C89.0349 24.0689 89.9152 24.7214 90.6858 25.5511C91.3144 26.2275 92.0878 26.7703 92.5646 27.5873C92.7994 28.3425 93.1158 29.0653 93.0905 29.895C93.0525 31.1283 92.6363 32.1745 91.77 33.0422C89.1432 35.6733 86.5135 38.3016 83.8838 40.9298C83.438 41.3756 82.9908 41.8214 82.5633 42.2869C82.5042 42.3234 82.4381 42.3403 82.3678 42.3361C82.1344 42.2616 81.9867 42.0745 81.8236 41.9114C79.5975 39.6881 77.3714 37.4648 75.1524 35.2359C74.9653 35.0461 74.6967 34.8872 74.7446 34.5497Z" fill="#637176"/>
<path d="M83.4801 86.5838C84.6305 87.7102 85.7808 88.8366 86.9325 89.9602C87.1322 90.1542 87.3473 90.3342 87.5555 90.5198C87.99 90.7378 88.364 91.0177 88.5609 91.4831C90.427 93.03 92.5181 93.2536 94.7681 92.5322C94.9439 92.4759 95.1169 92.407 95.2898 92.3438C95.4192 92.7417 95.1576 93.0216 94.9594 93.2902C93.8498 94.7963 92.4365 95.8186 90.5142 96C89.7647 96 89.0137 96 88.2642 96C87.3501 95.5542 86.3165 95.3545 85.5319 94.6472C85.2717 94.4123 84.9905 94.2014 84.743 93.9539C76.8919 86.1084 69.0436 78.2587 61.1967 70.4091C61.0659 70.2783 60.952 70.1292 60.8297 69.9886C60.7551 69.7692 60.9014 69.6314 61.028 69.502C61.8253 68.6822 62.6339 67.875 63.4523 67.0763C63.5845 66.9469 63.728 66.8175 63.9403 66.8541C70.2262 73.1723 76.5431 79.4611 82.8375 85.7709C83.0808 86.0156 83.3972 86.2097 83.4801 86.5838Z" fill="#9BB4BA"/>
<path d="M24 39.4688C24.225 38.5266 24.4317 37.5788 24.6792 36.6422C25.0069 35.4005 25.8633 35.1699 26.7717 36.0755C30.068 39.3633 33.3572 42.6581 36.6492 45.9502C36.8461 46.2216 36.6281 46.3946 36.4762 46.5478C34.1405 48.8991 31.8061 51.2517 29.4436 53.5763C29.3761 53.6424 29.2903 53.6817 29.1961 53.6986C26.8322 51.5288 25.4119 48.8105 24.5527 45.7575C24.3375 44.9799 24.3305 44.1558 24 43.4063C24 43.0308 24 42.6567 24 42.2813C24.1167 41.6724 24.1167 41.0621 24 40.4531C24 40.1255 24 39.7964 24 39.4688Z" fill="#809298"/>
<path d="M82.4916 42.2967C82.5099 41.948 82.7967 41.7834 83.0049 41.5739C85.8131 38.7586 88.6144 35.9362 91.4424 33.1406C92.9386 31.6598 93.3042 29.9765 92.5294 28.0303C92.483 27.9136 92.3438 27.7983 92.4858 27.6548C92.6377 27.5859 92.767 27.659 92.8641 27.7533C93.6628 28.5267 94.4869 29.2734 95.1928 30.1383C95.6752 30.7303 95.9156 31.4095 96 32.1548C96 32.7173 96 33.2798 96 33.8423C95.5416 35.3344 94.4306 36.337 93.3703 37.3847C90.7238 40.0017 88.0899 42.6314 85.4503 45.2554C84.2353 44.4989 83.2467 43.5131 82.4916 42.2967Z" fill="#464E54"/>
<path d="M39.4645 24.1266C39.4645 24.0844 39.466 24.0422 39.4688 24C39.7036 24 39.937 24 40.1719 24C40.4995 24.1153 40.8286 24.1153 41.1563 24C41.2505 24 41.3433 24 41.4375 24C41.813 24.1181 42.187 24.1181 42.5625 24C42.7974 24 43.0308 24 43.2656 24C44.2528 24.2348 45.2527 24.4219 46.223 24.7116C49.0917 25.568 51.6469 26.9686 53.6972 29.1975C53.6452 29.445 53.4483 29.587 53.2852 29.7502C52.0969 30.9427 50.9072 32.1337 49.7147 33.3206C49.5178 33.5161 49.342 33.7481 49.0341 33.7847C48.6994 33.7495 48.5152 33.4894 48.3042 33.2784C45.496 30.4758 42.6891 27.6703 39.8878 24.8578C39.6895 24.6609 39.3774 24.502 39.4645 24.1266Z" fill="#809298"/>
<path d="M24 40.4531C24.2292 41.062 24.2292 41.6723 24 42.2812C24 41.6723 24 41.062 24 40.4531Z" fill="#889A9F"/>
<path d="M42.5625 24C42.187 24.2222 41.813 24.2138 41.4375 24C41.813 24 42.187 24 42.5625 24Z" fill="#90A0A6"/>
<path d="M41.1562 24C40.8286 24.218 40.4995 24.2264 40.1719 24C40.4995 24 40.8286 24 41.1562 24Z" fill="#90A1A6"/>
<path d="M59.3011 49.9087C62.5973 46.6266 65.8908 43.3402 69.1955 40.0636C69.6736 39.5897 70.0856 39.0412 70.672 38.6827C70.9153 38.6602 71.0545 38.8331 71.1994 38.978C73.5112 41.2842 75.8231 43.5891 78.1252 45.9052C78.2081 45.9881 78.2798 46.0795 78.3291 46.1878C78.3459 46.2539 78.3459 46.32 78.3305 46.3875C78.1912 46.6673 77.9466 46.8572 77.7328 47.0709C64.9387 59.8678 52.1433 72.6633 39.345 85.4587C39.1312 85.6725 38.9386 85.9144 38.663 86.0606C38.5969 86.0803 38.5308 86.0817 38.4633 86.0676C38.2636 85.9833 38.1244 85.8201 37.9767 85.6725C35.7745 83.4731 33.5723 81.2723 31.3744 79.0687C31.1789 78.8733 30.9398 78.6989 30.9286 78.3811C31.1156 78.173 31.2956 77.9564 31.4925 77.7595C37.455 71.7942 43.4189 65.8303 49.3828 59.865C49.5642 59.6836 49.733 59.4895 49.9073 59.3011C49.9537 58.9973 50.1858 58.8216 50.3827 58.6261C53.1291 55.8769 55.8755 53.1291 58.6247 50.3841C58.823 50.1886 58.9973 49.9552 59.3011 49.9087Z" fill="#FEB200"/>
<path d="M59.3011 49.9088C56.1694 53.0391 53.0391 56.1708 49.9074 59.3011C48.7416 59.041 47.5491 59.1267 46.3706 59.0297C43.4231 58.7864 40.4363 58.9903 37.5295 58.3013C34.3317 57.5433 31.4841 56.1202 29.1975 53.6972C29.3634 53.3484 29.6799 53.1305 29.9414 52.8689C32.0184 50.782 34.1053 48.7022 36.1838 46.6167C36.375 46.4241 36.6464 46.2778 36.6506 45.9502C36.8644 45.9642 36.9895 45.8208 37.1217 45.6886C40.0102 42.7988 42.9 39.9103 45.787 37.0191C45.8517 36.9544 45.8911 36.8672 45.9431 36.7913C46.5338 35.8505 47.4422 35.2064 48.1791 34.4006C48.428 34.1292 48.6642 33.8269 49.0383 33.7031C50.3813 32.3813 51.7228 31.058 53.0686 29.7389C53.2655 29.5463 53.4244 29.3044 53.6972 29.1961C56.0231 31.3828 57.3703 34.1222 58.1606 37.1639C58.5431 38.6377 58.6908 40.1466 58.7513 41.671C58.8567 44.3105 59.0311 46.9472 59.183 49.5853C59.19 49.6964 59.2603 49.8019 59.3011 49.9088Z" fill="#9BB4BA"/>
<path d="M38.632 85.9931C38.7881 85.8201 38.9358 85.6387 39.1003 85.4742C51.9815 72.5901 64.8642 59.7075 77.7483 46.8262C77.9128 46.6617 78.0956 46.5154 78.27 46.3608C78.457 46.2539 78.5864 46.3847 78.6975 46.4915C79.5511 47.3156 80.3962 48.1495 81.2119 49.0115C81.292 49.0973 81.3441 49.2014 81.337 49.3265C81.157 49.5375 80.9883 49.7597 80.7928 49.9551C77.3587 53.3948 73.9219 56.8289 70.4864 60.2672C70.3064 60.4472 70.1489 60.6468 69.9801 60.8381C68.8861 61.807 67.875 62.8589 66.8737 63.922C66.5475 64.649 65.8823 65.0793 65.3494 65.6179C64.9008 66.0722 64.545 66.6543 63.8967 66.885C62.8547 67.8989 61.7901 68.8917 60.8297 69.9886C60.6215 70.1728 60.4036 70.3472 60.2067 70.544C54.2161 76.5304 48.2283 82.5211 42.239 88.5075C42.0422 88.7043 41.8242 88.8815 41.6161 89.0672C41.3883 89.0629 41.2322 88.9265 41.0831 88.7775C40.3448 88.0448 39.6051 87.3136 38.8809 86.5668C38.7361 86.4178 38.49 86.2814 38.632 85.9931Z" fill="#C68400"/>
<path d="M30.93 78.3811C33.457 80.9152 35.9827 83.4506 38.5097 85.9847C38.5856 86.2505 38.3859 86.37 38.2186 86.4839C36.0741 87.9324 33.9633 89.4314 31.8033 90.8574C31.6669 90.9474 31.5178 91.0163 31.3505 91.0289C31.1761 91.0289 31.0355 90.9459 30.9188 90.8306C29.7403 89.6494 28.5098 88.5202 27.4073 87.2658C28.5225 84.4308 29.6377 81.5958 30.7556 78.7622C30.8048 78.63 30.8709 78.5077 30.93 78.3811Z" fill="#FEC194"/>
<path d="M31.3027 90.9473C33.6666 89.3512 36.0305 87.7551 38.3916 86.1562C38.445 86.1197 38.4703 86.0437 38.5083 85.9861C38.5491 85.9917 38.5899 85.9945 38.6307 85.9945C39.6263 87.0197 40.6219 88.0448 41.6161 89.07C38.6616 90.24 35.7071 91.4086 32.7539 92.5786C32.1802 92.1834 31.7175 91.6744 31.2816 91.1372C31.2591 91.0697 31.2675 91.0064 31.3027 90.9473Z" fill="#FE976D"/>
<path d="M31.3026 90.9474C31.3097 90.9882 31.3167 91.0303 31.3237 91.0711C31.2295 91.2708 31.0523 91.3917 30.8808 91.5057C29.2129 92.6152 27.5901 93.7894 25.9125 94.8821C25.7943 94.9594 25.665 95.01 25.5286 95.0466C24.8311 94.6627 24.6848 94.2774 24.9815 93.5039C25.7831 91.4213 26.5959 89.3442 27.4059 87.2644C27.8053 87.353 27.9909 87.7102 28.2525 87.9619C29.2776 88.9491 30.2873 89.9503 31.3026 90.9474Z" fill="#464E54"/>
<path d="M25.5286 95.0466C26.4229 94.1831 27.5437 93.6375 28.5323 92.9063C29.4267 92.2453 30.39 91.6786 31.3237 91.0711C31.83 91.545 32.3883 91.9711 32.7539 92.5786C30.7415 93.3661 28.7306 94.1578 26.714 94.9383C26.3372 95.0845 25.9518 95.3222 25.5286 95.0466Z" fill="#292C32"/>
<path d="M81.337 49.3266C80.3147 48.338 79.2923 47.3494 78.27 46.3608C78.2644 46.32 78.2587 46.2806 78.2531 46.2399C78.3023 45.9938 78.4922 45.8447 78.6553 45.6816C79.6594 44.6733 80.6634 43.6636 81.6773 42.6652C81.8658 42.4795 82.0176 42.1969 82.365 42.277C82.4072 42.2841 82.4494 42.2911 82.4916 42.2967C83.4773 43.2839 84.4645 44.2697 85.4503 45.2569C84.113 46.6491 82.7897 48.0525 81.337 49.3266Z" fill="#ACF4FE"/>
<path d="M82.365 42.277C81.2203 43.3992 80.0771 44.5228 78.9296 45.6422C78.7144 45.8517 78.4796 46.0416 78.2546 46.2398C75.7275 43.7212 73.2005 41.2027 70.6735 38.6827C71.5031 37.6055 72.555 36.742 73.4874 35.7633C73.8896 35.3414 74.3255 34.9533 74.746 34.5497C77.1183 36.9347 79.4907 39.3183 81.8602 41.7047C82.0374 41.8861 82.1963 42.0858 82.365 42.277Z" fill="#D5F9FE"/>
<path d="M49.0383 33.7046C48.061 34.7874 47.0386 35.8252 45.9431 36.7913C42.7074 33.5513 39.4716 30.3099 36.2344 27.0699C36.1022 26.9377 35.9658 26.8097 35.8392 26.6719C35.1572 25.9266 35.3583 25.0519 36.316 24.7608C37.3425 24.45 38.386 24.1899 39.4646 24.1266C39.615 24.3024 39.7556 24.4894 39.9202 24.6539C42.7819 27.5199 45.6464 30.3844 48.5124 33.2461C48.6769 33.4106 48.8625 33.5527 49.0383 33.7046Z" fill="#637176"/>
<path d="M63.8981 66.8864C64.8909 65.8992 65.8824 64.9106 66.8752 63.9235C67.0678 64.0922 67.2717 64.2497 67.4517 64.4297C73.6547 70.6299 79.852 76.8371 86.0691 83.0232C86.5233 83.4746 86.5514 83.6869 85.9763 84.0033C85.1227 84.473 84.4856 85.1803 83.9625 86.0016C83.8303 86.2097 83.7516 86.4825 83.4816 86.5838C83.2608 86.3757 83.033 86.1746 82.8192 85.9594C76.6964 79.8394 70.575 73.7166 64.455 67.5938C64.2427 67.38 63.9769 67.2042 63.8981 66.8864Z" fill="#D5F9FE"/>
<path d="M42.983 45.9361C43.935 44.9194 44.9067 43.9238 45.9403 42.99C46.1259 42.9084 46.2567 43.0209 46.3706 43.1306C47.2327 43.9702 48.0933 44.8111 48.9188 45.6872C48.9834 45.7561 49.0186 45.8419 49.0299 45.9361C48.0694 47.0414 47.0133 48.0497 45.9445 49.0481C45.6661 49.1142 45.517 48.9117 45.3567 48.7542C44.6452 48.0567 43.9364 47.355 43.2445 46.6378C43.0674 46.4536 42.7805 46.2778 42.983 45.9361Z" fill="#D5F9FE"/>
<path d="M49.0312 45.9375C48.1931 45.1233 47.3578 44.3076 46.5169 43.4962C46.3327 43.319 46.133 43.1587 45.9403 42.99C46.6687 42.239 47.3733 41.46 48.1355 40.7442C48.7317 40.1831 49.3223 40.2028 49.9383 40.7484C50.408 41.1647 50.858 41.6119 51.2728 42.0844C51.8311 42.7214 51.7973 43.2445 51.187 43.8506C50.4783 44.5551 49.7498 45.2428 49.0312 45.9375Z" fill="#B8D7DC"/>
<path d="M42.983 45.9361C42.9985 46.2863 43.291 46.4452 43.4991 46.6519C44.3077 47.4577 45.1289 48.2508 45.946 49.0481C45.1964 49.8131 44.4624 50.595 43.6917 51.3389C43.0885 51.9211 42.3839 51.8367 41.7666 51.09C41.4094 50.6583 41.0325 50.2491 40.6374 49.8567C40.1803 49.4025 40.1663 48.9089 40.5445 48.4223C41.2603 47.4998 42.121 46.7166 42.983 45.9361Z" fill="#B8D7DC"/>
<defs>
<filter id="filter0_d_343_442" x="0" y="0" width="120" height="122" filterUnits="userSpaceOnUse" color-interpolation-filters="sRGB">
<feFlood flood-opacity="0" result="BackgroundImageFix"/>
<feColorMatrix in="SourceAlpha" type="matrix" values="0 0 0 0 0 0 0 0 0 0 0 0 0 0 0 0 0 0 127 0" result="hardAlpha"/>
<feOffset dy="2"/>
<feComposite in2="hardAlpha" operator="out"/>
<feColorMatrix type="matrix" values="0 0 0 0 0 0 0 0 0 0 0 0 0 0 0 0 0 0 0.15 0"/>
<feBlend mode="normal" in2="BackgroundImageFix" result="effect1_dropShadow_343_442"/>
<feBlend mode="normal" in="SourceGraphic" in2="effect1_dropShadow_343_442" result="shape"/>
</filter>
</defs>
</svg>
