<svg width="100" height="100" viewBox="0 0 100 100" fill="none" xmlns="http://www.w3.org/2000/svg">
<rect width="100" height="100" fill="white"/>
<g clip-path="url(#clip0_343_380)">
<path d="M40.565 47.1986C37.9994 49.7367 34.8608 51.1468 31.3378 51.7945C30.0317 51.3561 28.7166 50.9507 27.486 50.3118C22.4326 47.6833 19.2206 43.5964 18.1388 38.0664C16.9904 32.1904 18.6742 27.0393 22.8347 22.688C24.2652 21.192 25.9245 20.0243 27.7948 19.1408C28.0636 19.0131 28.3235 18.8214 28.6545 18.9315C28.6611 23.9108 28.6855 28.89 28.6567 33.8693C28.6522 34.625 28.8521 34.821 29.6118 34.8166C34.7719 34.7814 39.932 34.8188 45.0898 34.777C45.9117 34.7704 46.0472 35.048 45.9939 35.7574C45.7273 39.2495 44.5367 42.3912 42.4531 45.2091C42.0578 45.2422 41.8712 44.9315 41.6424 44.7068C40.4984 43.5876 39.35 42.4728 38.2371 41.3227C37.7618 40.8314 37.3775 40.7983 36.9443 41.3271C36.8399 41.4549 36.72 41.5739 36.5911 41.6774C36.0647 42.1026 36.0736 42.4816 36.5778 42.9597C37.7573 44.0811 38.9013 45.24 40.0497 46.3945C40.2785 46.6214 40.5873 46.8109 40.565 47.1986Z" fill="#629CF9"/>
<path d="M88.5984 78.3739C88.6161 80.7931 88.6517 83.2144 88.6383 85.6335C88.6339 86.1953 88.7561 86.4663 89.3581 86.3583C89.8845 86.2614 89.9956 86.4993 89.9978 86.9951C90.0089 89.0022 90.0267 89.0022 87.9919 89.0022C76.8655 89.0022 65.739 89.0022 54.6103 89.0022C53.031 89.0022 52.6667 88.6365 52.6667 87.0501C52.6667 76.5365 52.6756 66.0228 52.6489 55.5113C52.6467 54.7886 52.8133 54.5882 53.5507 54.6124C55.33 54.6697 55.3322 54.63 55.3322 56.4366C55.3322 66.069 55.3456 75.7015 55.3078 85.3339C55.3034 86.2262 55.5699 86.4377 56.4029 86.3738C57.3692 86.3011 58.3443 86.3517 59.315 86.3495C59.6682 86.0631 60.0925 86.1028 60.5056 86.1006C61.9428 86.094 63.38 86.0807 64.8172 86.105C65.4947 86.116 65.7457 85.8538 65.739 85.184C65.7168 83.0734 65.7279 80.9605 65.7323 78.8498C65.7323 78.44 65.7101 78.0258 65.7834 77.6204C65.9056 77.1159 66.1877 77.1732 66.4987 77.4398C66.9829 77.854 67.4116 78.3211 67.8648 78.7661C68.8488 79.7355 69.8329 80.7027 70.8036 81.6853C71.1745 82.0599 71.4722 82.0731 71.8476 81.6876C72.7339 80.7798 73.6402 79.8897 74.5509 79.0018C75.2462 78.3233 75.4039 78.3255 76.1147 79.0151C76.9454 79.8236 77.7607 80.6476 78.587 81.4628C79.3244 82.1899 79.3267 82.1899 80.0886 81.4364C81.7768 79.7664 83.4583 78.0897 85.1487 76.4219C85.9217 75.6596 86.0705 75.6464 86.8258 76.4263C87.4322 77.0586 88.1808 77.5698 88.5984 78.3739Z" fill="#FEB200"/>
<path d="M28.6544 18.9337C26.3732 19.9913 24.3074 21.3418 22.6081 23.2124C20.1291 25.9421 18.6209 29.0949 18.1588 32.761C17.6102 37.1124 18.6742 41.0495 21.1709 44.6033C23.6565 48.1416 27.0485 50.4439 31.2822 51.4772C31.7487 51.5918 31.3889 51.6799 31.3356 51.7945C23.1101 53.0239 16.404 48.4787 13.363 42.8451C7.90976 32.7434 13.9872 20.097 25.3492 17.9335C26.1666 17.777 26.9863 17.6779 27.817 17.6074C28.4923 17.5501 28.8122 17.7264 28.6789 18.4402C28.65 18.601 28.6611 18.7685 28.6544 18.9337Z" fill="#3777D3"/>
<path d="M88.5984 78.3739C87.8898 77.6777 87.159 77.0035 86.4815 76.2787C86.115 75.8865 85.8928 75.8711 85.5019 76.2699C83.6826 78.1184 81.8101 79.914 79.9997 81.7691C79.5022 82.278 79.2112 82.3948 78.6736 81.7999C77.7518 80.7776 76.7167 79.8567 75.7593 78.8652C75.4327 78.5282 75.235 78.5171 74.9018 78.8586C73.8845 79.9096 72.8116 80.9054 71.8054 81.9652C71.4166 82.375 71.2078 82.3177 70.8413 81.9475C69.2464 80.3458 67.6204 78.7749 66.0056 77.193C65.859 77.1732 65.7834 77.0829 65.7545 76.9463C65.7434 76.7524 65.8079 76.5563 65.7745 76.3712C65.4969 74.7783 66.221 73.6591 67.3983 72.6654C68.4934 71.7423 69.4086 70.6187 70.4948 69.6735C71.5099 70.6759 72.5428 71.663 73.5335 72.6897C73.8867 73.0554 74.0955 73.0642 74.4531 72.6941C75.4438 71.6674 76.4767 70.6803 77.4919 69.6757C78.376 70.4666 79.2023 71.3127 80.0197 72.1675C80.5017 72.672 80.8283 72.6346 81.3014 72.1565C83.4161 70.0216 85.5552 67.9131 87.6987 65.8047C87.9586 65.5491 88.1563 65.1569 88.6272 65.2076C88.6517 69.5986 88.7028 73.9851 88.5984 78.3739Z" fill="#8FCC92"/>
<path d="M30.4182 89C24.2274 89 18.0367 89 11.8459 89C10.4309 89 10.0178 88.5902 10.0178 87.1801C10.0178 76.607 10.0244 66.0316 10 55.4584C9.99778 54.7578 10.1866 54.5948 10.8685 54.6124C12.6811 54.6587 12.6811 54.6256 12.6811 56.4036C12.6811 66.0955 12.69 75.7896 12.6611 85.4815C12.6589 86.2173 12.8477 86.3738 13.5696 86.3716C25.3958 86.3473 37.222 86.3605 49.0504 86.3407C49.7634 86.3385 50.0522 86.4531 50.0211 87.255C49.9522 88.9978 50.0011 89 48.2396 89C42.2999 89 36.3601 89 30.4182 89Z" fill="#FEB200"/>
<path d="M42.0022 28.1652C39.952 28.174 37.9017 28.174 35.8514 28.2004C35.4561 28.2048 35.3317 28.0903 35.3317 27.6915C35.3428 22.3046 35.3428 16.9156 35.3339 11.5288C35.3339 11.1564 35.4072 10.989 35.8315 11C37.9795 11.0661 40.0475 11.4561 42 12.3726C42.2821 12.7229 42.2732 13.1393 42.2732 13.5513C42.2754 18.0304 42.2777 22.5117 42.271 26.9909C42.2688 27.3984 42.3265 27.8281 42.0022 28.1652Z" fill="#649368"/>
<path d="M42.0022 28.1652C42.0022 22.9017 42.0022 17.6383 42 12.3748C44.9121 13.5205 47.2134 15.4527 49.1703 17.8343C49.1992 18.2265 48.8838 18.4116 48.6594 18.6385C47.7643 19.5418 46.8713 20.4473 45.9495 21.322C45.5208 21.7274 45.4563 22.0336 45.9161 22.4743C47.2023 23.7081 46.9224 23.5957 48.0664 22.4853C48.6817 21.8882 49.2792 21.2735 49.8945 20.6787C50.1055 20.476 50.2854 20.1962 50.6475 20.238C51.907 22.5161 52.5178 24.9661 52.6556 27.5483C52.6756 27.9382 52.6889 28.2114 52.1291 28.2048C48.7527 28.1718 45.3764 28.174 42.0022 28.1652Z" fill="#8FCC92"/>
<path d="M40.565 47.1986C39.1234 45.7511 37.6974 44.2882 36.2313 42.8649C35.8226 42.4683 35.7981 42.2458 36.2202 41.8338C37.6174 40.4722 37.5952 40.459 38.959 41.8008C40.1186 42.9442 41.2892 44.0745 42.4554 45.2113C42.7775 45.5506 43.1218 45.8723 43.4172 46.2314C43.7282 46.6082 44.0947 46.7095 44.5767 46.7073C50.5431 46.6919 56.5117 46.7095 62.4781 46.6809C63.1601 46.6787 63.3667 46.8263 63.3467 47.5269C63.2956 49.3401 63.3333 49.3401 61.4719 49.3401C55.6987 49.3401 49.9256 49.3225 44.1547 49.3578C43.1906 49.3644 42.4376 49.144 41.8156 48.3972C41.4469 47.9609 40.9849 47.5974 40.565 47.1986Z" fill="#FEB200"/>
<path d="M40.6694 82.364C39.8142 82.3574 38.7258 82.6614 38.1727 82.2516C37.6463 81.8616 38.015 80.7116 38.0128 79.8986C37.9994 72.1962 38.015 64.4938 37.9883 56.7936C37.9861 56.1172 38.1327 55.8594 38.8413 55.9409C39.4433 56.0092 40.0586 55.9718 40.6694 55.9806C40.976 56.2913 40.9382 56.69 40.9404 57.0712C40.9471 65.1393 40.9471 73.2052 40.9404 81.2734C40.9382 81.6523 40.976 82.0533 40.6694 82.364Z" fill="#649368"/>
<path d="M40.6694 82.364C40.6694 73.5688 40.6694 64.7758 40.6694 55.9806C41.5246 55.9872 42.6131 55.6832 43.1662 56.093C43.6971 56.4851 43.3283 57.6308 43.3283 58.4438C43.3417 66.1462 43.3261 73.8486 43.3528 81.551C43.355 82.2318 43.1995 82.4829 42.4954 82.4036C41.8934 82.3353 41.2781 82.3728 40.6694 82.364Z" fill="#8FCC92"/>
<path d="M70.4926 69.6713C70.4904 70.0194 70.2127 70.189 70.0061 70.3961C68.9199 71.4801 67.8537 72.5883 66.7275 73.6282C66.1766 74.1372 65.9256 74.6638 65.9767 75.415C66.01 75.913 66.1411 76.4483 65.8567 76.9331C65.5546 77.0939 65.3769 76.8537 65.237 76.6863C64.7816 76.1399 64.4373 76.3404 64.0264 76.7568C62.778 78.028 61.5074 79.2773 60.2324 80.5221C59.9947 80.7534 59.8104 81.1213 59.3683 81.0222C59.3572 78.96 59.3528 76.8956 59.3261 74.8334C59.3217 74.4941 59.4616 74.276 59.6882 74.0513C62.1072 71.663 64.5217 69.2725 66.9252 66.8688C67.2095 66.5846 67.3872 66.4921 67.7115 66.8358C68.6156 67.803 69.5619 68.7305 70.4926 69.6713Z" fill="#649368"/>
<path d="M88.625 65.2098C86.1883 67.6091 83.7315 69.9885 81.3281 72.4187C80.775 72.9783 80.4618 72.9541 79.9686 72.3967C79.3289 71.6762 78.607 71.0285 77.925 70.3455C77.734 70.1538 77.4897 69.9908 77.4919 69.6735C81.2081 66.0536 84.9221 62.4338 88.6272 58.8249C88.625 60.8915 88.625 63.0507 88.625 65.2098Z" fill="#649368"/>
<path d="M30.0072 82.3639C29.152 82.3573 28.0636 82.6614 27.5105 82.2538C26.984 81.8638 27.3528 80.716 27.3505 79.903C27.3372 73.9345 27.3528 67.966 27.3283 61.9975C27.3261 61.3895 27.4572 61.1625 28.0969 61.2286C28.7278 61.2925 29.3697 61.2595 30.0072 61.2683C30.3138 61.5789 30.276 61.9777 30.276 62.3589C30.2827 68.6644 30.2827 74.9678 30.276 81.2734C30.276 81.6523 30.3138 82.0533 30.0072 82.3639Z" fill="#C68400"/>
<path d="M30.0072 82.3639C30.0072 75.3313 30.0072 68.3009 30.0072 61.2683C30.8624 61.2749 31.9509 60.9708 32.504 61.3784C33.0348 61.7684 32.6639 62.9163 32.6661 63.7292C32.6794 69.6691 32.6617 75.6111 32.6905 81.551C32.695 82.2339 32.5351 82.4807 31.8331 82.4014C31.2312 82.3353 30.6159 82.3728 30.0072 82.3639Z" fill="#FEB200"/>
<path d="M59.3661 81.0244C60.8899 79.5262 62.4404 78.0523 63.9264 76.5166C64.4729 75.9526 64.866 75.7631 65.3703 76.4968C65.4902 76.6709 65.6924 76.7876 65.8545 76.9331C65.9034 77.019 65.9522 77.1049 66.0011 77.1908C65.9989 79.9889 65.9767 82.7848 66.0056 85.5828C66.0122 86.2041 65.8167 86.3804 65.2014 86.3694C63.2378 86.3319 61.2742 86.3517 59.3128 86.3473C59.3328 84.5738 59.3483 82.8002 59.3661 81.0244Z" fill="#C68400"/>
<path d="M50.6475 20.2358C49.5635 21.289 48.464 22.3245 47.4066 23.404C47.049 23.7698 46.8558 23.7588 46.4937 23.404C45.0454 21.9808 45.0365 21.9984 46.447 20.5905C47.36 19.6784 48.2618 18.7531 49.1681 17.8343C49.9411 17.0875 50.7253 16.3516 51.4827 15.5871C51.8959 15.1685 52.3512 14.9614 52.9532 14.9658C56.1963 14.9812 59.4394 14.9834 62.6847 14.9636C63.1823 14.9614 63.34 15.0715 63.3422 15.5959C63.3533 17.6184 63.3755 17.6184 61.3542 17.6184C58.8596 17.6184 56.3629 17.6272 53.8684 17.6096C53.4219 17.6074 53.0865 17.7132 52.7777 18.048C52.0891 18.7949 51.3605 19.5088 50.6475 20.2358Z" fill="#FEB200"/>
<path d="M19.3361 82.3661C18.4831 82.386 17.3991 82.7209 16.846 82.256C16.3174 81.8131 16.6928 80.7093 16.6883 79.8964C16.6683 76.5497 16.6905 73.2008 16.6683 69.8542C16.6639 69.3342 16.7794 69.1139 17.3458 69.1601C18.0056 69.2152 18.6719 69.1866 19.3361 69.1954C19.6426 69.5016 19.6115 69.8982 19.6138 70.2772C19.6204 73.9455 19.6204 77.6138 19.6138 81.2822C19.6115 81.6633 19.6426 82.0599 19.3361 82.3661Z" fill="#3777D3"/>
<path d="M19.3361 82.3662C19.3361 77.9774 19.3361 73.5864 19.3361 69.1976C20.1891 69.18 21.2664 68.8451 21.8306 69.3078C22.3771 69.755 21.9972 70.8544 22.0017 71.6652C22.0239 74.9854 21.995 78.3079 22.0261 81.6281C22.0328 82.2428 21.8706 82.4609 21.242 82.4036C20.6111 82.3441 19.9714 82.375 19.3361 82.3662Z" fill="#629CF9"/>
<path d="M71.2834 17.6162C69.7284 17.6162 68.1735 17.592 66.6208 17.6294C66.0877 17.6427 65.9856 17.4664 65.9811 16.9751C65.9678 14.9724 65.9522 14.9724 67.9936 14.9724C70.6303 14.9724 73.267 14.9856 75.9036 14.9614C76.439 14.957 76.6767 15.0297 76.6722 15.6554C76.6544 17.6162 76.6833 17.6162 74.6975 17.6162C73.5602 17.6162 72.4207 17.6162 71.2834 17.6162Z" fill="#8FCC92"/>
<path d="M71.3567 22.9039C69.7751 22.9039 68.1913 22.8907 66.6097 22.9127C66.1677 22.9193 65.99 22.8312 65.9789 22.3355C65.9322 20.2601 65.9145 20.2601 68.0025 20.2601C70.6681 20.2601 73.3314 20.2711 75.9969 20.2513C76.4745 20.2468 76.6656 20.3262 76.67 20.8704C76.6856 22.9061 76.71 22.9039 74.6842 22.9039C73.578 22.9039 72.4673 22.9039 71.3567 22.9039Z" fill="#8FCC92"/>
<path d="M84.7 20.2601C86.226 20.2601 87.7543 20.2777 89.2803 20.2512C89.7823 20.2424 90.0022 20.324 90 20.9078C89.9978 22.9061 90.0244 22.9061 87.9764 22.9061C85.3397 22.9061 82.703 22.8907 80.0664 22.9171C79.5222 22.9215 79.2978 22.8356 79.3045 22.2187C79.3222 20.2623 79.2934 20.2623 81.2859 20.2623C82.4254 20.2601 83.5627 20.2601 84.7 20.2601Z" fill="#8FCC92"/>
<path d="M71.3544 28.1916C69.7729 28.1916 68.1891 28.1784 66.6075 28.2004C66.161 28.207 65.9922 28.1101 65.9811 27.621C65.9367 25.5478 65.9189 25.5478 68.0092 25.5478C70.6747 25.5478 73.3381 25.5588 76.0036 25.5389C76.4856 25.5345 76.67 25.6227 76.6744 26.1602C76.69 28.1916 76.7122 28.1916 74.6864 28.1916C73.5735 28.1916 72.4629 28.1916 71.3544 28.1916Z" fill="#8FCC92"/>
<path d="M84.6045 28.1916C83.0496 28.1916 81.4946 28.1784 79.942 28.2004C79.5044 28.207 79.32 28.1277 79.3089 27.6276C79.2622 25.5478 79.2423 25.5478 81.3303 25.5478C83.9669 25.5478 86.6036 25.5632 89.2403 25.5367C89.7868 25.5323 90.0067 25.6227 90.0022 26.2374C89.9844 28.1916 90.0133 28.1916 88.0208 28.1916C86.8813 28.1916 85.7418 28.1916 84.6045 28.1916Z" fill="#8FCC92"/>
<path d="M71.4078 36.1231C72.9338 36.1231 74.462 36.1385 75.9881 36.1143C76.4679 36.1077 76.6611 36.209 76.67 36.7422C76.7033 38.767 76.7255 38.767 74.6553 38.767C72.0453 38.767 69.4375 38.7493 66.8274 38.7802C66.2099 38.7868 65.9589 38.6744 65.9745 37.9826C66.0144 36.1253 65.9767 36.1253 67.827 36.1253C69.0221 36.1231 70.2149 36.1231 71.4078 36.1231Z" fill="#629CF9"/>
<path d="M84.6445 38.767C83.1184 38.767 81.5902 38.7427 80.0641 38.7802C79.4999 38.7934 79.3022 38.6568 79.3045 38.0575C79.3133 36.1231 79.2889 36.1231 81.2437 36.1231C83.9092 36.1231 86.5725 36.1386 89.2381 36.1121C89.8023 36.1055 90 36.2355 89.9978 36.8348C89.9889 38.7692 90.0133 38.7692 88.0586 38.7692C86.9213 38.767 85.784 38.767 84.6445 38.767Z" fill="#629CF9"/>
<path d="M84.6622 44.0547C83.1073 44.0547 81.5524 44.0414 79.9997 44.0635C79.5333 44.0701 79.3178 43.9952 79.3067 43.4466C79.2689 41.413 79.2467 41.413 81.3125 41.413C83.9492 41.413 86.5859 41.435 89.2226 41.3976C89.8645 41.3888 90.0067 41.5871 89.9978 42.1885C89.9756 44.0569 90 44.0569 88.1586 44.0569C86.9946 44.0546 85.8284 44.0547 84.6622 44.0547Z" fill="#629CF9"/>
<path d="M71.2656 49.3423C69.7107 49.3423 68.1558 49.3269 66.6031 49.3512C66.1366 49.3578 65.9967 49.2168 65.9833 48.7453C65.9256 46.6963 65.91 46.6963 67.9714 46.6963C70.637 46.6963 73.3003 46.7095 75.9659 46.6853C76.5056 46.6809 76.6678 46.8307 76.67 47.3749C76.6789 49.3401 76.7011 49.3401 74.7641 49.3401C73.598 49.3423 72.4318 49.3423 71.2656 49.3423Z" fill="#629CF9"/>
<path d="M84.5934 49.3423C83.0385 49.3423 81.4835 49.3269 79.9309 49.3511C79.4622 49.3578 79.3244 49.2145 79.3111 48.7453C79.2534 46.6963 79.2378 46.6985 81.2992 46.6985C83.9647 46.6985 86.6281 46.7117 89.2936 46.6875C89.8334 46.6831 89.9956 46.8329 90 47.3771C90.0089 49.3423 90.0311 49.3423 88.0941 49.3423C86.9257 49.3423 85.7595 49.3423 84.5934 49.3423Z" fill="#629CF9"/>
<path d="M71.2834 44.0547C69.7284 44.0547 68.1735 44.0414 66.6208 44.0635C66.1744 44.0701 65.9967 43.9687 65.9833 43.4774C65.9189 41.413 65.9012 41.413 67.9559 41.413C70.6214 41.413 73.2847 41.424 75.9503 41.4042C76.4656 41.3998 76.67 41.5056 76.6744 42.0762C76.6855 44.0591 76.71 44.0591 74.6997 44.0591C73.558 44.0547 72.4207 44.0547 71.2834 44.0547Z" fill="#629CF9"/>
</g>
<defs>
<clipPath id="clip0_343_380">
<rect width="80" height="78" fill="white" transform="translate(10 11)"/>
</clipPath>
</defs>
</svg>
