<svg width="100" height="100" viewBox="0 0 100 100" fill="none" xmlns="http://www.w3.org/2000/svg">
<rect width="100" height="100" fill="white"/>
<g clip-path="url(#clip0_266_24)">
<path d="M87.0146 80.9717C86.5993 80.9812 86.1865 80.9976 85.7712 80.9976C66.2875 81 46.8038 81 27.3177 80.9976C24.558 80.9976 23.3526 80.1734 22.3631 77.6019C18.1987 66.7882 14.0366 55.9745 9.86512 45.1607C9.43325 44.0422 9.31461 42.9848 10.2851 42.0688C10.8095 41.5742 11.4526 41.4259 12.1644 41.4282C15.5149 41.4306 18.8655 41.4141 22.216 41.4047C22.5149 41.1762 22.8661 41.1551 23.2221 41.1551C24.7763 41.1598 26.3329 41.1221 27.8871 41.1715C28.8505 41.1456 29.8139 41.1433 30.7797 41.1715C32.1939 41.1433 33.6105 41.1386 35.0248 41.1715C35.9834 41.1456 36.9421 41.1433 37.9007 41.1715C39.3149 41.1433 40.7292 41.1386 42.1434 41.1715C43.1021 41.1456 44.0607 41.1433 45.0193 41.1715C46.4336 41.1433 47.8478 41.1386 49.2621 41.1715C50.2207 41.1456 51.1793 41.1433 52.138 41.1715C53.5522 41.1433 54.9665 41.1386 56.3807 41.1715C57.3393 41.1456 58.2956 41.1433 59.2543 41.1715C60.659 41.1433 62.0661 41.1386 63.4709 41.1715C64.3892 41.1551 65.3099 41.148 66.2282 41.1762C67.1583 41.2163 68.098 41.0938 69.0092 41.4212C69.657 41.6543 70.2194 41.9981 70.7034 42.4738C72.0109 43.7219 72.2482 45.481 72.9078 47.04C73.1831 47.6875 73.3349 48.3846 73.6434 49.0228C75.0221 53.0285 76.517 56.9941 77.9312 60.988C78.7641 63.3853 79.6777 65.7567 80.4916 68.1611C81.22 70.045 81.837 71.9689 82.5726 73.8482C82.9617 75.1716 83.5194 76.4362 83.9417 77.7479C84.3783 79.0996 85.1638 80.1452 86.6017 80.5808C86.7916 80.6468 87.0217 80.6939 87.0146 80.9717Z" fill="#FCCC32"/>
<path d="M87.0146 80.9717C85.1305 80.5008 84.0959 79.2503 83.5881 77.437C83.2559 76.2525 82.7932 75.1057 82.3874 73.9424C82.6888 73.6292 83.0898 73.6645 83.4695 73.6527C84.0318 73.6339 84.5966 73.6362 85.159 73.6433C85.7664 73.6504 86.0203 73.3607 86.0061 72.7814C86.0013 72.5459 86.0132 72.3104 86.0132 72.0749C86.0132 58.7109 86.0132 45.3491 86.0132 31.9851C86.0132 31.7496 86.0013 31.5141 86.0085 31.2786C86.0227 30.6875 85.7379 30.4191 85.1471 30.4261C84.7912 30.4308 84.4352 30.4191 84.0793 30.4191C65.9291 30.4191 47.7766 30.4214 29.6264 30.412C29.0522 30.412 28.4281 30.5745 27.9322 30.1035C27.9322 28.3091 27.9251 26.5146 27.9346 24.7178C27.9441 22.7939 29.0949 21.6565 31.0478 21.6565C41.543 21.6518 52.0407 21.6494 62.5359 21.6682C63.1718 21.6682 63.6464 21.5105 64.1139 21.0748C65.521 19.7702 66.9827 18.5197 68.4064 17.2316C69.3271 16.398 70.3878 15.9953 71.6359 15.9976C77.3878 16.0071 83.1396 15.9976 88.8915 16.0047C90.8302 16.0071 91.9976 17.1563 91.9976 19.0755C92.0023 38.3198 92.0024 57.564 91.9952 76.8059C91.9952 79.5612 90.1088 81.1177 87.0146 80.9717Z" fill="#F2B214"/>
<path d="M27.9322 30.1059C28.2882 30.1153 28.6417 30.1341 28.9976 30.1341C47.7648 30.1365 66.5319 30.1388 85.299 30.1176C86.0773 30.1176 86.3264 30.2684 86.3241 31.102C86.2956 45.0477 86.2956 58.9958 86.3193 72.9415C86.3217 73.7257 86.1556 74.0201 85.318 73.9518C84.3451 73.8741 83.3627 73.9377 82.3851 73.9424C81.6993 72.0561 81.0136 70.1698 80.3278 68.2812C80.4417 67.6972 80.3112 67.1132 80.3112 66.5291C80.3231 57.0601 80.3183 47.591 80.3183 38.122C80.3183 37.8582 80.3207 37.5921 80.3183 37.3283C80.3065 36.1744 79.5495 35.6988 78.4532 36.1368C78.1851 36.2427 78.1115 36.4382 78.0783 36.6784C78.0285 37.0293 78.0451 37.3825 78.0451 37.7357C78.0451 44.9983 78.0475 52.2631 78.038 59.5257C78.038 60.0414 78.1614 60.5948 77.7532 61.0422C76.4505 57.4792 75.1454 53.9186 73.8475 50.3533C73.698 49.9436 73.5888 49.5197 73.4631 49.1029C73.2637 48.3305 73.1973 47.5486 73.1997 46.7527C73.2092 43.6442 73.2068 40.5357 73.202 37.4249C73.1997 36.1391 72.7156 35.7906 71.4414 36.0873C70.9122 36.2098 70.9336 36.5983 70.9288 36.9704C70.9075 38.4658 70.9288 39.9611 70.9146 41.4565C70.9099 41.8592 70.9668 42.2878 70.6465 42.6222C69.4244 41.5083 67.9248 41.3599 66.3681 41.4C66.0502 41.0632 66.1048 40.6393 66.0976 40.2343C66.0834 39.1204 66.0739 38.0089 66.0976 36.895C66.1143 35.9861 65.5068 36.0543 64.8993 36.0449C64.2895 36.0355 63.7746 36.0685 63.7912 36.895C63.8126 38.0066 63.8054 39.1204 63.7912 40.2343C63.7865 40.6393 63.841 41.0632 63.5207 41.4C62.097 41.4 60.6732 41.4 59.2495 41.4C58.9315 41.0632 58.9861 40.6393 58.979 40.2343C58.9648 39.1204 58.9553 38.0089 58.979 36.895C58.9956 35.9861 58.3881 36.0543 57.7807 36.0449C57.1709 36.0355 56.6559 36.0685 56.6726 36.895C56.6939 38.0066 56.6868 39.1204 56.6726 40.2343C56.6678 40.6393 56.7224 41.0632 56.4021 41.4C54.9783 41.4 53.5546 41.4 52.1309 41.4C51.8129 41.0632 51.8675 40.6393 51.8604 40.2343C51.8461 39.1204 51.8366 38.0089 51.8604 36.895C51.877 35.9861 51.2695 36.0543 50.662 36.0449C50.0522 36.0355 49.5373 36.0685 49.5539 36.895C49.5753 38.0066 49.5681 39.1204 49.5539 40.2343C49.5492 40.6393 49.6037 41.0632 49.2834 41.4C47.8597 41.4 46.4359 41.4 45.0122 41.4C44.6943 41.0632 44.7488 40.6393 44.7417 40.2343C44.7275 39.1204 44.718 38.0089 44.7417 36.895C44.7583 35.9861 44.1509 36.0543 43.5434 36.0449C42.9336 36.0355 42.4187 36.0685 42.4353 36.895C42.4566 38.0066 42.4495 39.1204 42.4353 40.2343C42.4305 40.6393 42.4851 41.0632 42.1648 41.4C40.741 41.4 39.3173 41.4 37.8936 41.4C37.5756 41.0632 37.6302 40.6393 37.6231 40.2343C37.6088 39.1204 37.5993 38.0089 37.6231 36.895C37.6397 35.9861 37.0322 36.0543 36.4248 36.0449C35.8149 36.0355 35.3 36.0685 35.3166 36.895C35.338 38.0066 35.3309 39.1204 35.3166 40.2343C35.3119 40.6393 35.3665 41.0632 35.0461 41.4C33.6224 41.4 32.1987 41.4 30.7749 41.4C30.457 41.0632 30.5115 40.6393 30.5044 40.2343C30.4902 39.1204 30.4807 38.0089 30.5044 36.895C30.521 35.9861 29.9136 36.0543 29.3061 36.0449C28.6963 36.0355 28.1814 36.0685 28.198 36.895C28.2193 38.0066 28.2122 39.1204 28.198 40.2343C28.1932 40.6393 28.2478 41.0632 27.9275 41.4C26.022 41.4 24.119 41.4 22.2136 41.4C22.2112 37.9665 22.242 34.5331 22.1875 31.102C22.1732 30.2589 22.4485 30.0847 23.2292 30.1082C24.7976 30.1647 26.3661 30.1153 27.9322 30.1059Z" fill="#629CF9"/>
<path d="M7.99998 33.5393C8.1471 30.8194 9.18642 27.8193 11.4051 25.2265C13.9322 22.2711 17.183 20.764 20.9796 20.26C22.159 20.1046 22.2349 20.1847 22.2373 21.3645C22.2396 22.9281 22.2444 22.9729 20.6095 23.206C17.4512 23.6558 14.9478 25.1841 13.0637 27.6921C11.4929 29.7809 10.7335 32.1641 10.864 34.778C10.9044 35.5975 10.6434 35.9225 9.82947 35.7859C9.77252 35.7765 9.71083 35.7835 9.65151 35.7835C7.99524 35.7859 7.99524 35.7859 7.99998 33.5393Z" fill="#FFE18D"/>
<path d="M77.758 61.0446C77.7604 53.012 77.7604 44.9794 77.7627 36.9469C77.7627 35.7883 77.7627 35.7883 78.8994 35.7859C80.6102 35.7835 80.6102 35.7835 80.6102 37.5238C80.6102 47.4403 80.6126 57.3568 80.5983 67.2709C80.5983 67.61 80.8332 68.0575 80.3302 68.2812C79.4427 65.8815 78.5197 63.4913 77.758 61.0446Z" fill="#3777D3"/>
<path d="M19.741 52.3479C20.2892 52.2584 20.3153 52.6352 20.4102 52.8778C21.6868 56.0663 22.9468 59.2595 24.2163 62.4504C24.8475 64.0329 25.4786 65.6131 26.1407 67.1814C26.3186 67.603 26.2641 67.7725 25.8156 67.9633C23.7749 68.8322 23.7583 68.8605 22.9349 66.8376C21.179 62.514 19.4563 58.1763 17.7003 53.8503C17.52 53.4076 17.4773 53.1886 18.0302 53.0332C18.6566 52.8566 19.2403 52.5551 19.741 52.3479Z" fill="#FFE18D"/>
<path d="M70.6488 42.6292C70.6464 40.6017 70.6607 38.5741 70.6322 36.5489C70.6251 35.9908 70.7793 35.7835 71.3773 35.7718C73.4891 35.7364 73.4915 35.7152 73.4891 37.8252C73.4844 41.586 73.4749 45.3468 73.4678 49.1052C72.9624 47.7676 72.4356 46.4371 71.961 45.0901C71.6478 44.2 71.2729 43.3522 70.6488 42.6292Z" fill="#3777D3"/>
<path d="M27.9322 41.407C27.9322 39.7939 27.9583 38.1785 27.9203 36.5654C27.9061 35.939 28.1268 35.7718 28.7366 35.7694C30.782 35.7623 30.782 35.7388 30.782 37.797C30.782 39.0003 30.782 40.2037 30.782 41.4047C29.8281 41.407 28.8813 41.407 27.9322 41.407Z" fill="#3777D3"/>
<path d="M35.0508 41.407C35.0508 39.7939 35.0769 38.1785 35.039 36.5654C35.0247 35.939 35.2454 35.7718 35.8552 35.7694C37.9007 35.7623 37.9007 35.7388 37.9007 37.797C37.9007 39.0003 37.9007 40.2037 37.9007 41.4047C36.9468 41.407 36 41.407 35.0508 41.407Z" fill="#3777D3"/>
<path d="M42.1695 41.407C42.1695 39.7939 42.1956 38.1785 42.1576 36.5654C42.1434 35.939 42.3641 35.7718 42.9739 35.7694C45.0193 35.7623 45.0193 35.7388 45.0193 37.797C45.0193 39.0003 45.0193 40.2037 45.0193 41.4047C44.0654 41.407 43.1186 41.407 42.1695 41.407Z" fill="#3777D3"/>
<path d="M49.2881 41.407C49.2881 39.7939 49.3142 38.1785 49.2763 36.5654C49.262 35.939 49.4827 35.7718 50.0925 35.7694C52.138 35.7623 52.138 35.7388 52.138 37.797C52.138 39.0003 52.138 40.2037 52.138 41.4047C51.1841 41.407 50.2373 41.407 49.2881 41.407Z" fill="#3777D3"/>
<path d="M56.4068 41.407C56.4068 39.7939 56.4329 38.1785 56.3949 36.5654C56.3807 35.939 56.6014 35.7718 57.2112 35.7694C59.2566 35.7623 59.2566 35.7388 59.2566 37.797C59.2566 39.0003 59.2566 40.2037 59.2566 41.4047C58.3027 41.407 57.3559 41.407 56.4068 41.407Z" fill="#3777D3"/>
<path d="M63.5254 41.407C63.5254 39.7939 63.5515 38.1785 63.5136 36.5654C63.4993 35.939 63.72 35.7718 64.3299 35.7694C66.3753 35.7623 66.3753 35.7388 66.3753 37.797C66.3753 39.0003 66.3753 40.2037 66.3753 41.4047C65.4214 41.407 64.4746 41.407 63.5254 41.407Z" fill="#3777D3"/>
<path d="M17.6031 46.6443C17.838 46.5666 17.9234 46.6938 17.9827 46.8892C18.0254 47.0282 18.1037 47.1577 18.1536 47.2943C19.0719 49.7504 19.397 49.1617 16.8414 50.2238C16.4332 50.3933 16.2434 50.3015 16.1058 49.9223C15.9563 49.5079 15.8092 49.0934 15.6288 48.6931C15.1115 47.5392 15.0285 47.6828 16.362 47.1153C16.7678 46.9434 17.1878 46.8021 17.6031 46.6443Z" fill="#FFE18D"/>
<path d="M73.4535 24.4824C71.8305 24.4588 72.0749 24.6943 72.0702 22.881C72.0654 21.4257 71.8851 21.6682 73.7454 21.6612C75.143 21.6565 74.8963 21.5152 74.9081 23.3025C74.92 24.6872 75.0173 24.4612 73.4535 24.4824Z" fill="#E6870C"/>
<path d="M80.6078 23.0529C80.5841 24.7155 80.8238 24.4706 79.0441 24.4753C77.5255 24.48 77.7699 24.6543 77.7651 22.8622C77.7604 21.421 77.5848 21.6706 79.457 21.6565C80.7953 21.6518 80.5912 21.5576 80.6078 23.0529Z" fill="#E6870C"/>
<path d="M86.3027 23.0718C86.2766 24.7178 86.521 24.4706 84.72 24.4753C83.218 24.48 83.4648 24.6519 83.46 22.8433C83.4553 21.4186 83.2892 21.6706 85.1709 21.6565C86.5021 21.6494 86.2838 21.5764 86.3027 23.0718Z" fill="#E6870C"/>
</g>
<defs>
<clipPath id="clip0_266_24">
<rect width="84" height="65" fill="white" transform="translate(8 16)"/>
</clipPath>
</defs>
</svg>
