<svg width="100" height="100" viewBox="0 0 100 100" fill="none" xmlns="http://www.w3.org/2000/svg">
<rect width="100" height="100" fill="white"/>
<g clip-path="url(#clip0_343_365)">
<path d="M63.86 92C46.3787 92 28.8952 92 11.4138 92C11.1188 91.8441 10.9775 91.6061 11.002 91.2656C11.0164 91.0748 11.0041 90.884 11.0041 90.6912C11.0041 66.69 11.0041 42.6889 11.0041 18.6856C11.0041 17.1758 11.1762 16.9974 12.6963 16.9974C21.1594 16.9933 29.6225 16.9933 38.0856 16.9974C38.5179 16.9974 38.9645 16.944 39.3558 17.2045C39.6569 17.5451 39.4111 17.8302 39.2247 18.0743C38.1798 19.4447 37.2088 20.8642 36.3688 22.372C35.9918 23.0469 35.3629 23.2356 34.6315 23.2356C32.3104 23.2356 29.9892 23.2336 27.666 23.2356C24.8798 23.2377 22.0936 23.2336 19.3074 23.2377C19.0349 23.2377 18.7604 23.2274 18.49 23.2725C18.1273 23.332 17.8897 23.5413 17.8221 23.9003C17.7483 24.288 17.8897 24.6039 18.2359 24.8029C18.6559 25.0408 19.121 25.047 19.5901 25.047C24.1238 25.047 28.6576 25.0429 33.1913 25.047C34.8876 25.049 35.0187 25.2357 34.5065 26.8522C33.8837 28.8154 33.8837 28.8154 31.8453 28.8154C27.7213 28.8154 23.5973 28.8133 19.4733 28.8174C18.2544 28.8174 17.8323 29.0431 17.818 29.6872C17.8037 30.3293 18.3261 30.6206 19.5286 30.6226C23.5154 30.6267 27.5042 30.6247 31.4909 30.6247C31.792 30.6247 32.0932 30.6144 32.3923 30.6391C33.2589 30.7108 33.517 30.996 33.4289 31.8453C33.3839 32.2822 33.39 32.7192 33.3654 33.154C33.3122 34.0977 33.0663 34.3377 32.1055 34.3869C31.8064 34.4033 31.5052 34.3951 31.2041 34.3951C27.3259 34.3972 23.4478 34.3951 19.5696 34.3951C19.1292 34.3951 18.6948 34.4033 18.2912 34.6105C17.9389 34.7931 17.7668 35.0864 17.8139 35.4824C17.859 35.8557 18.113 36.0527 18.4551 36.1429C18.7768 36.2291 19.1066 36.2024 19.4344 36.2024C23.3945 36.2045 27.3546 36.2045 31.3147 36.2045C31.6159 36.2045 31.917 36.1942 32.2161 36.2188C33.0335 36.2845 33.2671 36.5019 33.3695 37.3142C33.6625 39.6815 34.1275 42.0058 34.9962 44.2377C35.4223 45.3352 35.9181 46.3978 36.4385 47.4522C36.6146 47.8091 36.8912 48.162 36.6208 48.5948C36.2971 48.8553 35.9078 48.8369 35.5268 48.841C34.9265 48.8492 34.3263 48.8328 33.726 48.8553C33.1052 48.8799 32.7734 49.2 32.7385 49.8236C32.7221 50.1231 32.7242 50.4246 32.7242 50.7262C32.7242 61.8262 32.7242 72.9242 32.7242 84.0242C32.7242 85.7597 32.7262 85.7515 34.4492 85.7638C35.4592 85.772 36.4692 85.7064 37.4771 85.813C38.565 85.7064 39.6569 85.7741 40.7448 85.7617C42.1973 85.7474 42.2198 85.7392 42.2198 84.3073C42.2219 76.2823 42.2116 68.2593 42.228 60.2343C42.2301 58.7656 42.101 57.2906 42.3223 55.8259C42.6562 55.2044 43.0659 55.5531 43.3958 55.791C44.4283 56.5378 45.4424 57.305 46.5712 57.9101C47.0732 58.1789 47.5566 58.4784 48.077 58.7102C48.4581 58.8804 48.794 59.104 48.8576 59.5717C48.9887 60.0005 48.9456 60.4415 48.9456 60.8764C48.9477 68.5322 48.9477 76.1879 48.9477 83.8437C48.9477 84.1719 48.9518 84.5001 48.9559 84.8284C48.96 85.4787 49.2837 85.7515 49.927 85.7597C51.1828 85.7761 52.4386 85.6941 53.6924 85.811C54.8377 85.7043 55.9849 85.7761 57.1322 85.7597C58.3429 85.7412 58.4433 85.6571 58.4454 84.4489C58.4515 77.3388 58.4454 70.2266 58.4515 63.1165C58.4515 62.6304 58.3737 62.1257 58.6564 61.6765C59.1276 61.1944 59.7483 61.4344 60.2933 61.379C61.4016 61.2641 62.5243 61.3031 63.6306 61.1287C63.9317 61.0816 64.2329 61.0898 64.4665 61.34C64.7041 61.6765 64.6857 62.0642 64.6857 62.4457C64.6877 71.7364 64.6918 81.0272 64.6816 90.3199C64.6795 91.001 64.7164 91.7251 63.86 92Z" fill="#F6EBD4"/>
<path d="M95 68.5322C94.1396 70.1384 93.2033 70.6779 91.8573 70.36C91.4169 70.2554 91.0358 70.0502 90.7244 69.7384C86.078 65.0797 81.4378 60.4169 76.7954 55.7562C76.6561 55.2864 77.0167 55.0587 77.2892 54.8331C78.1005 54.1582 78.8544 53.434 79.5284 52.6196C79.7394 52.3632 79.9709 52.037 80.397 52.2914C82.9271 54.8064 85.4593 57.3214 87.9853 59.8405C89.8763 61.7257 91.7529 63.6253 93.652 65.5044C94.2133 66.0582 94.7255 66.6326 95 67.3855C95 67.765 95 68.1486 95 68.5322Z" fill="#475770"/>
<path d="M80.399 52.2893C79.7619 52.3817 79.596 52.9868 79.2538 53.3827C78.504 54.2505 77.4612 54.8043 76.7954 55.7541C76.314 55.9059 75.9698 56.2711 75.5806 56.5583C72.2146 59.0384 68.4511 60.5749 64.3579 61.338C62.5141 61.619 60.66 61.7483 58.7937 61.7072C58.515 61.9042 58.1995 61.9657 57.8697 61.9431C56.4705 61.8488 55.0753 61.7175 53.7252 61.3011C52.2789 61.0385 50.9165 60.4928 49.5398 60.0046C49.1751 59.8754 48.8535 59.6805 48.6486 59.3358C46.4913 58.2978 44.5 56.9932 42.5968 55.551C41.597 55.1244 40.8964 54.3284 40.1752 53.5653C39.1468 52.476 38.2331 51.2924 37.346 50.0862C37.092 49.5856 36.5962 49.1918 36.6618 48.5476C35.2113 45.9321 34.0743 43.1956 33.5088 40.2457C33.3183 39.2549 33.1401 38.2558 33.0745 37.2507C33.0356 36.6537 32.8266 36.5409 32.2899 36.5429C27.9487 36.5614 23.6076 36.5532 19.2664 36.5532C17.9737 36.5532 17.4042 36.188 17.3919 35.3613C17.3796 34.51 18.0044 34.0936 19.3074 34.0915C23.5666 34.0895 27.8258 34.069 32.085 34.11C32.8615 34.1182 33.0868 33.8638 33.0458 33.1438C33.0192 32.6843 33.0479 32.2063 33.1503 31.7591C33.2978 31.1191 33.1483 30.918 32.4558 30.9221C28.0614 30.9529 23.6649 30.9386 19.2685 30.9345C18.9427 30.9345 18.6067 30.9365 18.2953 30.8565C17.691 30.7006 17.3775 30.2575 17.4083 29.6441C17.4369 29.0328 17.7914 28.6266 18.406 28.5118C18.6702 28.4625 18.9489 28.4769 19.2213 28.4769C23.8083 28.4748 28.3953 28.4666 32.9823 28.4872C33.5396 28.4892 33.8182 28.3723 33.9145 27.7712C34.0087 27.1845 34.2156 26.606 34.4553 26.0583C34.7401 25.406 34.5291 25.2993 33.896 25.3014C29.0366 25.3219 24.1771 25.3157 19.3176 25.3096C18.9653 25.3096 18.6026 25.2911 18.2646 25.2049C17.65 25.047 17.3632 24.5793 17.4103 23.9762C17.4574 23.3731 17.8016 22.9607 18.4408 22.8869C18.7379 22.852 19.039 22.8541 19.3402 22.8541C24.5274 22.852 29.7147 22.8397 34.9019 22.8684C35.537 22.8725 35.8792 22.6838 36.1701 22.1176C37.0572 20.3883 38.2147 18.8313 39.4213 17.3133C41.5643 14.9521 43.9571 12.9008 46.7679 11.3663C51.9593 8.53131 57.4825 7.45844 63.3561 8.24411C69.1723 9.02364 74.1977 11.4586 78.4077 15.5306C82.7919 19.7688 85.449 24.928 86.3177 30.9796C87.258 37.5379 85.9305 43.6305 82.4354 49.2471C81.9028 50.1026 81.2738 50.8985 80.6879 51.7211C80.5568 51.8996 80.356 52.0329 80.399 52.2893Z" fill="#475770"/>
<path d="M36.6597 48.5538C36.9404 49.0092 37.2211 49.4646 37.5017 49.92C37.7394 50.4821 37.8152 51.0667 37.8131 51.678C37.8049 62.657 37.809 73.634 37.8049 84.613C37.8049 85.1217 37.9053 85.6653 37.4772 86.0818C36.0861 86.09 34.695 86.0879 33.304 86.1084C32.7119 86.1166 32.462 85.811 32.4251 85.2653C32.4108 85.0479 32.419 84.8284 32.419 84.6089C32.419 73.1068 32.419 61.6026 32.419 50.1005C32.419 48.7015 32.5685 48.5517 33.9596 48.5497C34.8589 48.5497 35.7583 48.5517 36.6597 48.5538Z" fill="#C68400"/>
<path d="M37.4751 86.0818C37.4751 74.3273 37.473 62.575 37.4751 50.8205C37.4751 50.521 37.4915 50.2195 37.4997 49.92C39.0075 51.9714 40.7018 53.8525 42.5927 55.5551C42.5845 60.4415 42.5743 65.3259 42.5722 70.2123C42.5681 75.1253 42.5722 80.0384 42.5702 84.9514C42.5702 86.0305 42.48 86.1207 41.3963 86.1166C40.0913 86.1146 38.7822 86.0941 37.4751 86.0818Z" fill="#FEB200"/>
<path d="M21.731 58.7266C23.0934 58.7163 24.4558 58.7081 25.8181 58.6917C26.4409 58.6835 26.7093 59.0056 26.7175 59.5984C26.7195 59.7892 26.7216 59.98 26.7216 60.1728C26.7216 68.3373 26.7216 76.5018 26.7216 84.6663C26.7216 86.092 26.6827 86.1372 25.2568 86.131C24.0317 86.1248 22.8045 86.1002 21.5794 86.0838C21.266 85.7946 21.2455 85.413 21.2455 85.0253C21.2414 76.6372 21.2393 68.2491 21.2475 59.8589C21.2475 59.4179 21.2455 58.9645 21.731 58.7266Z" fill="#629CF9"/>
<path d="M21.731 58.7266C21.5241 59.0487 21.5773 59.4118 21.5773 59.7646C21.5753 68.5363 21.5773 77.3101 21.5773 86.0818C20.1883 86.09 18.7973 86.0941 17.4083 86.1125C16.8633 86.1208 16.6031 85.852 16.5704 85.331C16.556 85.0869 16.556 84.8407 16.556 84.5945C16.556 76.4587 16.556 68.323 16.556 60.1892C16.556 58.8148 16.6564 58.7143 18.0516 58.7163C19.2787 58.7163 20.5038 58.7225 21.731 58.7266Z" fill="#3777D3"/>
<path d="M48.6466 59.3399C50.2957 60.0025 51.9552 60.6261 53.6925 61.0262C53.9731 61.3585 54.0346 61.7524 54.0346 62.1749C54.0346 69.7917 54.0366 77.4065 54.0305 85.0232C54.0305 85.411 54.01 85.7925 53.7027 86.0838C52.3096 86.09 50.9165 86.0879 49.5234 86.1084C48.9334 86.1166 48.6793 85.8192 48.6384 85.2715C48.6322 85.1894 48.6343 85.1073 48.6343 85.0253C48.6384 76.4628 48.6425 67.9024 48.6466 59.3399Z" fill="#649368"/>
<path d="M53.7006 86.0838C53.6965 77.7326 53.6945 69.3794 53.6904 61.0282C55.3683 61.4221 57.0748 61.6149 58.7916 61.7113C58.7875 69.3917 58.7855 77.0741 58.7814 84.7545C58.7814 86.0838 58.7465 86.1228 57.3821 86.1187C56.157 86.1125 54.9298 86.0941 53.7006 86.0838Z" fill="#8FCC92"/>
<path d="M23.3781 39.7677C24.8511 39.7677 26.3262 39.7575 27.7992 39.7718C28.7272 39.78 29.2558 40.219 29.2763 40.9452C29.2968 41.6714 28.7723 42.2089 27.875 42.215C24.847 42.2417 21.817 42.2417 18.7891 42.2171C17.904 42.2089 17.3632 41.657 17.3898 40.939C17.4165 40.2067 17.9389 39.78 18.8772 39.7718C20.3768 39.7595 21.8785 39.7677 23.3781 39.7677Z" fill="#475770"/>
<path d="M57.0052 56.4147C52.7849 55.9593 49.0706 54.2915 45.8399 51.5796C41.425 47.8686 38.8026 43.1094 38.186 37.3778C37.428 30.3272 39.5811 24.2121 44.6475 19.2211C48.2327 15.6886 52.5841 13.7131 57.5911 13.1982C60.1437 13.1818 62.4649 14.0475 64.6918 15.1716C68.7318 17.2128 71.8192 20.2693 74.0256 24.2162C75.4167 26.7045 76.2402 29.3836 76.5783 32.2104C77.3281 38.4938 75.6338 44.0982 71.6635 48.9599C68.5454 52.7776 64.5095 55.2556 59.6828 56.3613C58.808 56.5603 57.9004 56.5029 57.0052 56.4147Z" fill="#B4FBFE"/>
<path d="M57.0052 56.4147C61.1886 56.2034 64.8414 54.5787 68.0865 52.0411C72.2576 48.7794 74.925 44.5166 76.0149 39.3123C76.9716 34.7418 76.4492 30.319 74.6095 26.0296C73.5729 23.611 72.104 21.4796 70.2868 19.6211C67.0089 16.2671 63.0263 14.1808 58.388 13.389C58.1197 13.3438 57.8595 13.2638 57.5952 13.1982C59.4165 12.9397 61.2378 12.9992 63.0447 13.2905C68.3918 14.148 72.8558 16.6158 76.3837 20.7411C79.1699 23.9967 80.8457 27.7712 81.3763 32.0155C82.1343 38.0712 80.6572 43.5689 76.8794 48.3609C73.3557 52.8309 68.74 55.5244 63.0939 56.3941C61.0657 56.7039 59.0375 56.8475 57.0052 56.4147Z" fill="#71F5FB"/>
</g>
<defs>
<clipPath id="clip0_343_365">
<rect width="84" height="84" fill="white" transform="translate(11 8)"/>
</clipPath>
</defs>
</svg>
