<svg width="120" height="122" viewBox="0 0 120 122" fill="none" xmlns="http://www.w3.org/2000/svg">
<g filter="url(#filter0_d_343_412)">
<circle cx="60" cy="60" r="60" fill="white"/>
</g>
<g clip-path="url(#clip0_343_412)">
<path d="M45.5628 55.5258C47.4525 54.6255 49.2978 53.6414 51.102 52.5803C51.629 52.4836 52.1609 52.5 52.6929 52.5C58.4947 52.4983 64.2949 52.5033 70.0968 52.4983C70.3201 52.4983 70.5499 52.4672 70.7601 52.5771C70.9653 52.7804 71.2263 52.6951 71.4627 52.6968C74.6805 52.7033 77.8999 52.6951 81.1177 52.7033C83.9037 52.7099 86.2563 54.5451 86.849 57.2528C87.2134 58.9191 86.9245 60.5164 85.8705 61.8957C85.534 62.3369 85.488 62.573 85.8508 63.065C87.683 65.5497 87.1084 69.1561 84.6228 70.9913C84.2633 71.257 84.2058 71.4669 84.3913 71.8408C85.6735 74.4304 84.6638 77.4563 82.5559 78.9405C82.308 79.116 82.1914 79.2783 82.3572 79.5982C84.2271 83.1898 81.6693 87.4834 77.959 87.8967C77.9081 87.9016 77.8638 87.9656 77.8178 88.0016C77.6947 88.0016 77.5716 88.0016 77.4485 88.0016C77.2367 87.8819 77.0068 87.9426 76.7868 87.941C74.4293 87.936 72.0734 87.9377 69.7159 87.9377C68.8163 87.9377 67.9182 87.9377 67.0186 87.9377C66.1862 87.9754 65.3506 87.8622 64.5199 88.0016C63.8632 88.0016 63.2065 88.0016 62.5498 88.0016C61.9883 87.8622 61.417 87.9738 60.8506 87.9377C60.5699 87.9377 60.2891 87.9377 60.0084 87.9377C59.708 87.9721 59.396 87.8639 59.1022 88.0016C59.0201 88.0016 58.938 88.0016 58.8559 88.0016C57.8889 87.8426 56.9088 87.9114 55.9369 87.818C52.3464 87.4768 48.8972 86.5732 45.5612 85.2234C45.287 85.1119 44.9669 85.0283 44.8618 84.6822C45.6236 82.3026 45.3396 79.8491 45.3494 77.4218C45.3773 70.496 45.3576 63.5702 45.3642 56.6427C45.3642 56.2655 45.2673 55.8571 45.5628 55.5258Z" fill="#FECE98"/>
<path d="M45.5628 55.5259C45.5546 55.7915 45.5399 56.0572 45.5399 56.3229C45.5382 64.5919 45.5317 72.8626 45.5481 81.1316C45.5514 82.3928 45.4479 83.6195 44.9341 84.7856C44.9653 84.9807 44.8865 85.1497 44.7797 85.2989C43.7602 86.7192 42.5339 87.8196 40.6738 87.9361C40.6114 87.9393 40.5556 87.9574 40.5096 88C40.3044 88 40.0992 88 39.894 88C39.3588 87.8639 38.8137 87.9754 38.2752 87.9344C38.0585 87.918 37.8303 88 37.6284 87.8606C37.4527 87.6015 37.5053 87.3063 37.5053 87.0242C37.5003 84.2985 37.5036 81.5744 37.502 78.8487C37.502 78.5617 37.5217 78.2747 37.4708 77.9926C37.3312 77.2808 36.9881 76.7084 36.2493 76.5198C35.5598 76.3444 34.9556 76.5526 34.4779 77.1004C34.2218 77.394 34.1578 77.7581 34.0658 78.1156C33.9903 80.1246 34.0511 82.132 34.0346 84.1394C34.0264 85.1841 34.0281 86.2288 34.0346 87.2735C34.0379 87.754 33.8787 87.9574 33.35 87.9475C31.6279 87.9147 29.9041 87.9328 28.1819 87.9377C27.9816 87.9377 27.7715 87.8836 27.581 87.9984C27.54 87.9984 27.4989 87.9984 27.4579 87.9984C26.2758 87.4785 25.9967 86.5273 26 85.312C26.0263 75.2718 26.0148 65.2299 26.0164 55.1896C26.0164 54.924 26.0148 54.655 26.0526 54.3942C26.2036 53.3413 26.9112 52.7066 27.9783 52.705C33.1678 52.6968 38.3573 52.6968 43.5468 52.705C44.7338 52.7066 45.4939 53.4742 45.5382 54.6665C45.5497 54.9535 45.5563 55.2405 45.5628 55.5259Z" fill="#FEB200"/>
<path d="M27.581 88C27.7599 87.7934 28.0029 87.8819 28.2163 87.8803C29.8958 87.8737 31.5737 87.859 33.2532 87.8869C33.744 87.8951 33.877 87.7442 33.8737 87.262C33.8524 84.3788 33.8606 81.494 33.8672 78.6109C33.8672 78.3763 33.7785 78.1156 33.9804 77.9089C34.1824 78.0975 34.1775 78.3517 34.1775 78.5945C34.1857 81.499 34.1857 84.4034 34.1791 87.3063C34.1791 87.4703 34.1709 87.6343 34.1134 87.7901C34.0806 87.8655 34.0379 87.9344 33.9837 87.9967C31.8495 88 29.7152 88 27.581 88Z" fill="#69B5EF"/>
<path d="M33.9837 88C33.9837 87.959 33.9853 87.918 33.9853 87.8754C34.2825 87.6245 34.6437 87.6884 34.9868 87.6819C35.5614 87.672 36.136 87.6655 36.709 87.6819C37.19 87.6966 37.3624 87.4802 37.3591 87.0193C37.3509 85.8106 37.3558 84.6019 37.3575 83.3932C37.3591 81.8155 37.3542 80.2378 37.3607 78.6601C37.3624 78.3583 37.3131 78.0385 37.5561 77.7876C37.7597 77.9926 37.671 78.2534 37.671 78.4879C37.6776 81.6171 37.6759 84.7479 37.6776 87.877C37.7203 87.9033 37.735 87.9312 37.7203 87.959C37.7055 87.9869 37.6924 88 37.6776 88C36.4463 88 35.215 88 33.9837 88Z" fill="#6BBDFB"/>
<path d="M70.76 52.5788C70.5433 52.7411 70.2921 52.6985 70.0492 52.6985C63.9469 52.7001 57.8429 52.7001 51.7406 52.6952C51.5256 52.6952 51.2859 52.7788 51.102 52.5804C53.3938 51.124 55.5576 49.5103 57.3767 47.4766C59.6488 44.9379 61.1329 42.0416 61.4596 38.6024C61.7371 35.6848 64.0257 34.2121 67.094 34.9091C70.7075 35.7291 73.1471 39.037 73.1799 42.5024C73.216 46.0892 72.5265 49.4496 70.76 52.5788Z" fill="#FEC280"/>
<path d="M57.623 26.9254C57.6197 26.0283 58.1253 25.328 58.9249 25.082C59.6653 24.854 60.5732 25.1263 60.9852 25.7987C61.7322 27.0172 62.4562 28.2522 63.126 29.5134C63.5792 30.3662 63.195 31.4322 62.3676 31.8996C61.486 32.3965 60.427 32.1735 59.8918 31.3076C59.1629 30.1267 58.4865 28.9131 57.797 27.7077C57.6509 27.4568 57.5918 27.1747 57.623 26.9254Z" fill="#8FCC92"/>
<path d="M77.0954 26.9812C77.1234 27.2878 76.992 27.606 76.8163 27.911C76.1941 28.9902 75.5801 30.0742 74.9431 31.1452C74.357 32.1308 73.3031 32.4326 72.3656 31.9094C71.4463 31.3961 71.1409 30.2825 71.6876 29.3084C72.3361 28.1505 72.9993 26.9992 73.6905 25.8676C74.1321 25.1443 74.9973 24.8458 75.7755 25.0771C76.5931 25.3182 77.1102 26.0431 77.0954 26.9812Z" fill="#8FCC92"/>
<path d="M53.6187 38.6779C54.2541 38.6779 54.8911 38.6697 55.5264 38.6795C56.5689 38.6959 57.3652 39.4815 57.3783 40.4967C57.3914 41.5315 56.6412 42.3499 55.597 42.3696C54.2229 42.3958 52.8488 42.3974 51.4747 42.3679C50.4322 42.3466 49.6983 41.5217 49.7213 40.4721C49.7443 39.4749 50.5142 38.6992 51.5255 38.6795C52.2233 38.6664 52.921 38.6779 53.6187 38.6779Z" fill="#8FCC92"/>
<path d="M81.1965 42.3761C80.4987 42.3745 79.801 42.3975 79.1049 42.3696C78.0723 42.3302 77.3023 41.4905 77.3302 40.477C77.3565 39.5077 78.1675 38.691 79.1525 38.6812C80.5069 38.6664 81.8597 38.6648 83.2142 38.6828C84.1992 38.6959 84.9971 39.5127 85.0266 40.4934C85.0562 41.479 84.2484 42.3401 83.2273 42.3745C82.5509 42.3958 81.8729 42.3778 81.1965 42.3761Z" fill="#8FCC92"/>
<path d="M37.5561 77.7892C37.5561 80.8921 37.5397 83.9951 37.5676 87.098C37.5725 87.69 37.4642 87.9393 36.8042 87.8934C35.8684 87.8294 34.9244 87.877 33.9853 87.8754C33.9837 84.5543 33.982 81.2316 33.9804 77.9106C34.1479 76.92 34.8325 76.3148 35.7912 76.3115C36.7516 76.3083 37.3837 76.8363 37.5561 77.7892Z" fill="#C68400"/>
</g>
<defs>
<filter id="filter0_d_343_412" x="0" y="0" width="120" height="122" filterUnits="userSpaceOnUse" color-interpolation-filters="sRGB">
<feFlood flood-opacity="0" result="BackgroundImageFix"/>
<feColorMatrix in="SourceAlpha" type="matrix" values="0 0 0 0 0 0 0 0 0 0 0 0 0 0 0 0 0 0 127 0" result="hardAlpha"/>
<feOffset dy="2"/>
<feComposite in2="hardAlpha" operator="out"/>
<feColorMatrix type="matrix" values="0 0 0 0 0 0 0 0 0 0 0 0 0 0 0 0 0 0 0.15 0"/>
<feBlend mode="normal" in2="BackgroundImageFix" result="effect1_dropShadow_343_412"/>
<feBlend mode="normal" in="SourceGraphic" in2="effect1_dropShadow_343_412" result="shape"/>
</filter>
<clipPath id="clip0_343_412">
<rect width="61" height="63" fill="white" transform="translate(26 25)"/>
</clipPath>
</defs>
</svg>
