<svg width="100" height="102" viewBox="0 0 100 102" fill="none" xmlns="http://www.w3.org/2000/svg">
<g filter="url(#filter0_d_340_5)">
<circle cx="50" cy="50" r="50" fill="white"/>
<circle cx="50" cy="50" r="49" stroke="#2DA0E3" stroke-opacity="0.6" stroke-width="2"/>
</g>
<g clip-path="url(#clip0_340_5)">
<path d="M31.272 17C46.7946 17 62.3172 17 77.8398 17C77.8131 17.3506 77.497 17.3581 77.2703 17.4312C74.8495 18.2094 73.503 20.3562 73.6077 22.6213C73.6953 24.5131 73.623 26.4106 73.6268 28.3062C73.6287 29.2681 73.6592 29.3038 74.6172 29.3038C77.4455 29.3075 80.2739 29.3 83.1041 29.3113C83.466 29.3131 83.8774 29.2081 84.1517 29.5756C83.8717 29.9825 83.4336 29.8737 83.0489 29.8756C80.3196 29.8888 77.5884 29.8812 74.8591 29.8831C74.621 29.8831 74.3848 29.8831 74.1467 29.8981C73.8344 29.9169 73.6725 30.0706 73.6553 30.38C73.6477 30.5431 73.642 30.7063 73.642 30.8713C73.6458 35.4988 73.6306 40.1262 73.6515 44.7519C73.6744 45.2431 73.2954 45.425 72.9468 45.6181C71.7088 46.3006 70.488 47.0112 69.2652 47.72C67.9434 48.4869 67.7949 48.8281 68.0672 50.3337C68.0882 50.4519 68.0786 50.5644 68.0196 50.6712C67.8634 50.8756 67.6292 50.9263 67.3987 50.9844C65.9702 51.3387 64.5437 51.71 63.1076 52.0325C61.7572 52.3344 60.4221 52.2988 59.1098 51.8169C57.5518 51.245 55.9729 50.7256 54.4207 50.1369C52.3561 49.3531 50.3067 49.1431 48.305 50.2738C46.8213 51.1119 45.3814 52.0231 43.9186 52.8988C43.433 53.1894 42.9816 53.5438 42.4235 53.7013C42.2807 53.7238 42.134 53.7238 42.0007 53.6712C40.4941 53.0563 38.8981 52.805 37.3039 52.5312C36.363 52.37 35.4717 52.04 34.6146 51.62C34.3613 51.4963 34.0851 51.3988 33.9347 51.1344C33.8604 50.915 33.9689 50.7275 34.0451 50.5325C34.4508 49.4694 34.228 48.7119 33.2509 48.05C31.7691 47.045 30.2568 46.0831 28.7655 45.0913C28.5446 44.945 28.2913 44.8438 28.4018 44.5062C28.497 44.0881 28.4817 43.6663 28.4817 43.2444C28.4817 35.675 28.4856 28.1038 28.4779 20.5344C28.4779 19.6662 28.6208 18.8656 29.175 18.1569C29.7083 17.465 30.3921 17.0675 31.272 17Z" fill="#DFE8EE"/>
<path d="M79.6972 17C80.2705 17.2644 80.9028 17.3806 81.4533 17.7106C83.1179 18.7062 84.0854 20.1369 84.1197 22.0662C84.1654 24.545 84.1235 27.0275 84.1197 29.5081C80.7714 29.51 77.425 29.5006 74.0767 29.525C73.5415 29.5288 73.3891 29.375 73.3968 28.8519C73.4234 26.6788 73.4044 24.5037 73.4082 22.3306C73.412 19.8425 74.9585 17.8438 77.3964 17.1687C77.5507 17.1256 77.7393 17.1725 77.8421 17.0019C78.4592 17 79.0782 17 79.6972 17Z" fill="#9AB5C5"/>
<path d="M53.2774 87.3125C52.9955 88.2388 52.1785 88.5913 51.4128 89C50.9367 89 50.4605 89 49.9843 89C48.3388 88.0813 46.9446 86.8231 45.4418 85.7131C44.659 85.1356 44.68 85.0963 44.1429 85.8819C43.7296 86.4875 43.2763 87.0425 42.5468 87.3013C41.166 86.7706 40.3603 85.0306 41.0689 83.6356C41.924 81.9519 43.0497 80.4088 44.3829 79.0381C44.5448 78.8713 44.7505 78.7438 44.9847 78.6781C46.2323 78.9125 47.4626 80.8644 46.6094 82.5856C46.3065 83.195 46.4361 83.4931 46.9313 83.8494C48.2188 84.7756 49.4663 85.7525 50.7386 86.6975C51.3119 87.125 51.948 87.3369 52.6775 87.2056C52.887 87.1681 53.1041 87.1288 53.2774 87.3125Z" fill="#FEC6B2"/>
<path d="M53.2771 87.3125C51.6087 87.83 50.5136 86.7781 49.3575 85.9119C48.3632 85.1675 47.3881 84.395 46.3901 83.6544C46.1272 83.4594 45.9977 83.3169 46.1882 82.9775C47.1748 81.2281 46.7691 79.8556 44.9711 78.7456C44.7731 78.8656 44.554 78.8375 44.3521 78.7963C43.6017 78.65 42.9256 78.9856 42.2152 79.085C41.9218 78.7963 42.1904 78.5806 42.3313 78.3725C42.6608 77.8906 43.0341 77.4331 43.3027 76.9156C43.9807 75.6106 43.5293 73.9531 41.9409 73.2425C40.7029 72.7719 39.6744 73.0869 38.8078 74.0375C38.6364 74.225 38.5202 74.4725 38.2478 74.555C37.8803 74.4275 37.9507 74.1031 37.9526 73.8425C37.966 72.6613 37.4384 71.8269 36.3585 71.3244C35.2176 70.85 34.2615 71.0338 33.3949 71.9094C32.9149 72.395 32.555 72.9706 32.1569 73.52C32.0045 73.73 31.9036 74.0506 31.5227 73.9569C31.3474 73.7356 31.3855 73.4731 31.3741 73.2219C31.3246 72.1288 30.8332 71.3206 29.8066 70.8556C28.6505 70.3963 27.6296 70.5931 26.7345 71.45C26.6049 71.5738 26.5078 71.765 26.2716 71.7069C25.167 70.8725 24.0966 69.9988 23.1386 68.9956C22.8338 68.675 22.6662 68.2306 22.2396 68.0225C22.1101 67.7281 22.3215 67.5294 22.4624 67.3269C26.1155 62.0806 29.7057 56.7913 33.3797 51.5563C33.5301 51.3406 33.6196 51.0256 33.9796 51.0275C35.29 51.92 36.7889 52.3006 38.3316 52.5256C39.6439 52.7169 40.9124 53.03 42.1333 53.5419C42.2152 53.5756 42.3199 53.5625 42.4132 53.57C42.4551 53.8531 42.2113 53.9394 42.0361 54.0125C39.7506 54.98 38.3831 56.8606 37.0765 58.8069C36.2899 59.9788 35.4309 61.1038 34.6196 62.2606C33.8634 63.335 34.1072 64.1956 35.3338 64.7338C38.1698 65.9769 41.3943 65.1144 43.4951 62.5363C44.2398 61.6231 44.9921 60.7156 45.7425 59.8081C46.0034 59.4913 46.3006 59.2381 46.71 59.1238C47.7861 58.8256 48.8565 58.5031 49.9231 58.175C50.4755 58.0063 50.9459 58.0906 51.3821 58.46C53.4886 60.2488 55.6027 62.03 57.7111 63.8169C59.9281 65.6956 62.1355 67.5838 64.3658 69.4456C66.1047 70.8969 67.8417 72.35 69.5635 73.8238C69.5768 74.2325 69.9463 74.39 70.1806 74.6319C71.0567 75.5394 71.2738 76.8725 70.7063 78.035C69.6035 78.6613 68.5674 78.35 67.6494 77.6975C66.3809 76.7938 65.1848 75.7925 63.9792 74.8081C62.9183 73.9438 61.8098 73.1375 60.7737 72.2413C60.4347 71.9488 60.1699 71.9956 59.8481 72.2844C58.8767 73.1544 58.8691 73.1469 59.8957 73.9569C61.6365 75.3313 63.3621 76.7244 65.1048 78.0988C65.3562 78.2975 65.6743 78.4719 65.5543 78.8825C66.0076 79.8669 66.219 80.855 65.5714 81.845C64.2858 82.2575 63.1792 81.8769 62.1945 81.0631C60.0823 79.3156 57.8577 77.7088 55.7131 76.0025C55.2808 75.6594 54.9532 75.6819 54.5228 76.0063C53.5381 76.7488 53.5247 76.73 54.5361 77.4931C55.9531 78.56 57.3549 79.6438 58.7586 80.7275C59.0253 80.9338 59.3948 81.1025 59.2672 81.5544C59.7471 82.5388 59.8938 83.5269 59.2824 84.5169C58.092 84.8544 57.0388 84.5994 56.0769 83.8438C54.1285 82.31 52.2144 80.735 50.2717 79.1938C50.0469 79.0156 49.8222 78.6556 49.487 78.8919C49.087 79.1731 48.6832 79.4919 48.4794 79.9531C48.3918 80.1519 48.6375 80.2644 48.7785 80.3825C50.0431 81.4456 51.3592 82.4469 52.6277 83.5081C52.8619 83.705 53.1343 83.87 53.1267 84.2281C53.6181 85.2313 53.8085 86.255 53.2771 87.3125Z" fill="#FEDDCE"/>
<path d="M69.5645 73.8219C68.8331 73.7281 68.4655 73.1019 67.9703 72.6987C65.8181 70.9456 63.7288 69.1194 61.6089 67.3306C59.3996 65.4669 57.175 63.6181 54.9657 61.7525C53.7962 60.7662 52.6363 59.7706 51.4897 58.7619C51.0193 58.3475 50.566 58.1131 49.9013 58.3437C48.8518 58.7056 47.7815 59.0131 46.7072 59.3C46.1359 59.4519 45.9073 59.9262 45.5683 60.2994C44.6388 61.325 43.8465 62.4612 42.879 63.4606C41.5496 64.8312 39.8659 65.4237 38.0317 65.4762C36.8699 65.51 35.6491 65.2981 34.6739 64.5537C33.8244 63.905 33.7578 63.1231 34.3692 62.2794C35.8529 60.2281 37.3613 58.1937 38.8183 56.1256C39.4621 55.2125 40.4601 54.8131 41.342 54.2375C41.6962 54.0069 42.0581 53.7894 42.4181 53.5662C44.0389 52.5987 45.7092 51.7006 47.2672 50.645C49.6194 49.0512 52.0287 48.9706 54.6057 49.9925C56.2094 50.6281 57.853 51.1662 59.4834 51.7306C60.5595 52.1037 61.6623 52.1244 62.7746 51.89C64.5325 51.5206 66.2733 51.0837 68.0027 50.6056C68.3836 50.6394 68.4617 50.9825 68.6065 51.2262C70.8901 55.0587 73.1547 58.9025 75.4231 62.7444C76.343 64.3006 77.2649 65.8569 78.1848 67.4131C78.4019 67.7787 78.7485 68.1106 78.6666 68.6019C77.3734 70.0737 75.9088 71.3469 74.1699 72.2881C72.7262 73.0644 71.2063 73.6231 69.5645 73.8219Z" fill="#FEC6B2"/>
<path d="M33.9783 51.0219C32.367 53.3356 30.7519 55.6475 29.1463 57.965C26.9103 61.1919 24.6819 64.4244 22.4516 67.655C22.3716 67.7694 22.3106 67.8969 22.2402 68.0169C21.1964 68.9919 20.3794 69.0631 19.1833 68.27C17.8215 67.3681 16.4635 66.4625 15.1055 65.555C13.8713 64.73 13.6656 63.7288 14.5131 62.4969C18.3528 56.9131 22.204 51.3388 26.0399 45.7531C26.6246 44.9 27.3883 44.54 28.4149 44.7088C30.2129 45.7419 31.9042 46.9363 33.6126 48.0988C34.5973 48.77 34.6659 49.7113 33.9783 51.0219Z" fill="#8FCC92"/>
<path d="M78.6615 68.6C75.1627 62.675 71.6658 56.75 68.1671 50.825C68.1214 50.7463 68.0547 50.6788 67.9976 50.6056C67.4338 49.0831 67.6871 48.4025 69.106 47.5925C70.6031 46.7356 72.0982 45.8731 73.5933 45.0125C74.9303 44.6 75.677 44.8775 76.3912 46.0831C79.8043 51.8563 83.2135 57.6331 86.6209 63.4081C86.7751 63.6688 86.9561 63.92 87.0037 64.2313C87.0037 64.5725 87.0037 64.9138 87.0037 65.255C86.8666 65.8813 86.4171 66.245 85.8895 66.545C84.4325 67.3738 82.9792 68.21 81.5165 69.0313C80.3528 69.6819 79.6043 69.56 78.6615 68.6Z" fill="#FEB200"/>
<path d="M55.0748 42.35C54.8539 42.6969 54.6748 42.9987 54.4768 43.2894C53.1435 45.2487 51.2503 45.4794 49.5057 43.8537C49.0791 43.4562 48.9153 43.4394 48.4868 43.9081C46.9154 45.6331 42.9443 45.9387 41.4054 42.9481C41.093 42.3425 40.8035 42.2431 40.2188 42.545C39.2684 43.0344 38.2437 43.3381 37.2114 43.6156C36.4934 43.8087 35.9373 43.6381 35.8744 43.1244C35.7982 42.5112 36.2058 42.2862 36.7562 42.1512C37.7943 41.8944 38.7675 41.4519 39.7693 41.0844C40.3007 40.8894 40.4207 40.6269 40.2626 40.0906C39.6551 38.0319 40.0284 36.1062 41.2511 34.355C41.9044 33.4194 42.7615 32.6844 43.8185 32.1856C44.9232 31.6662 45.9022 31.9156 46.7916 32.6394C47.6944 33.3725 48.0335 34.4975 47.6868 35.5381C46.9021 37.8931 45.2718 39.575 43.2319 40.9269C42.3501 41.5119 42.371 41.4969 42.8891 42.4287C43.411 43.3662 44.5537 43.7769 45.4184 43.67C47.0469 43.4694 47.5706 43.0025 47.862 41.6769C47.9439 41.3056 48.0677 40.9175 48.4963 40.8181C48.9629 40.7094 49.2657 41.0244 49.4791 41.3675C49.8562 41.975 50.3228 42.5 50.8637 42.9613C51.616 43.5988 52.2179 43.535 52.8864 42.8037C53.4387 42.2 53.7378 41.4631 54.0711 40.7375C54.4768 39.8562 55.1015 39.7944 55.6633 40.5744C55.97 41 56.3376 41.3656 56.7318 41.6994C57.6213 42.4587 58.4993 42.3144 59.1145 41.3225C59.3126 41.0037 59.4592 40.655 59.6383 40.325C59.9868 39.68 60.4534 39.5525 61.0115 40.0175C61.9847 40.8294 63.038 40.9231 63.9427 39.8825C64.2569 39.5206 64.6436 39.5319 65.0055 39.8581C65.3921 40.205 65.2892 40.5631 65.0245 40.9175C64.1598 42.0744 62.6514 42.5019 61.2724 41.9431C60.9258 41.8025 60.6972 41.7219 60.4401 42.0987C58.9793 44.2475 57.1813 44.1537 55.3948 42.6312C55.3053 42.56 55.2215 42.4794 55.0748 42.35Z" fill="#9AB5C5"/>
<path d="M51.1993 25.7056C55.7684 25.7056 60.3376 25.7056 64.9068 25.7056C65.1448 25.7056 65.3886 25.6888 65.6191 25.7319C65.9695 25.7975 66.1257 26.0413 66.1352 26.39C66.1448 26.7631 66.0019 27.035 65.6134 27.1156C65.4305 27.1531 65.2344 27.14 65.0439 27.14C55.7627 27.14 46.4815 27.1419 37.2004 27.1381C36.9432 27.1381 36.6709 27.1906 36.4328 27.0463C36.0919 26.8381 36.0633 26.51 36.1471 26.1781C36.2443 25.7956 36.5547 25.7056 36.9204 25.7056C39.324 25.7094 41.7276 25.7075 44.1313 25.7075C46.4873 25.7056 48.8433 25.7056 51.1993 25.7056Z" fill="#9AB5C5"/>
<path d="M41.9904 73.1056C43.6741 73.6831 44.3426 75.7944 43.2913 77.2944C42.8913 77.8644 42.5142 78.4494 42.1256 79.0287C42.1618 79.4956 41.718 79.6775 41.5181 80.0037C40.6972 81.3387 39.5849 82.4844 38.924 83.9225C38.8535 84.0744 38.7373 84.1925 38.5545 84.2206C37.9945 84.5956 37.6422 85.2256 36.966 85.4581C35.2157 84.6369 34.6938 82.7225 35.8042 81.0237C36.4975 79.9644 37.2632 78.9481 37.9983 77.9169C38.884 76.6737 39.7506 75.4175 40.6667 74.195C41.0133 73.7319 41.3333 73.2125 41.9904 73.1056Z" fill="#FEC6B2"/>
<path d="M36.4111 71.1425C37.5977 71.6675 38.1786 72.5619 38.1348 73.85C38.1272 74.0713 38.0472 74.3225 38.2643 74.5081C38.3748 74.8044 38.1558 74.9937 38.0148 75.1925C36.5749 77.2362 35.097 79.2556 33.678 81.3144C33.5523 81.4963 33.4495 81.7419 33.1428 81.6819C32.8533 81.8169 32.6381 82.0925 32.2896 82.1131C31.4972 82.0175 30.7411 81.2488 30.5754 80.3188C30.4135 79.415 30.5259 78.5581 31.0935 77.7819C32.4114 75.98 33.6494 74.1237 34.9789 72.3294C35.3484 71.8287 35.7236 71.2925 36.4111 71.1425Z" fill="#FEC6B2"/>
<path d="M33.1431 81.6837C33.9697 80.5569 34.8077 79.4375 35.6191 78.2994C36.5143 77.045 37.3847 75.7737 38.2665 74.5081C39.1445 73.0156 40.5006 72.5056 41.9939 73.1056C40.7101 74.0525 40.0245 75.47 39.1007 76.6981C38.1008 78.0256 37.1657 79.3981 36.1886 80.7425C34.9449 82.4562 35.1315 83.8587 36.8 85.2369C36.8704 85.295 36.9123 85.3831 36.9695 85.4581C35.8153 85.8444 34.7525 85.6775 33.8688 84.8469C33.0307 84.0575 32.787 83.0694 33.105 81.9594C33.1298 81.8712 33.1298 81.7756 33.1431 81.6837Z" fill="#F8AC94"/>
<path d="M36.4102 71.1425C34.9874 72.2169 34.2161 73.8031 33.1647 75.1681C32.4943 76.0381 31.8943 76.9606 31.2487 77.8494C30.2773 79.1825 30.4659 81.2938 32.2905 82.1131C30.7078 83.0431 28.4146 81.7981 28.2641 79.955C28.1975 79.1413 28.4641 78.44 28.8393 77.7538C28.8812 77.3225 29.245 77.0919 29.4812 76.7919C30.2088 75.8731 30.7497 74.8231 31.5591 73.9644C32.0029 73.37 32.4505 72.7813 32.8866 72.1831C33.7399 71.0113 35.2865 70.5088 36.4102 71.1425Z" fill="#F8AC94"/>
<path d="M31.5584 73.9663C30.8118 75.3406 29.9185 76.6138 28.8386 77.7556C28.69 77.7913 28.5415 77.8269 28.3929 77.8625C26.5493 77.2081 26.3093 75.1812 26.9492 73.9681C27.4844 72.9519 28.191 72.035 28.9396 71.1556C29.1662 70.8894 29.4328 70.6381 29.8461 70.7169C30.8156 71.0431 31.507 71.9544 31.5546 72.9837C31.5717 73.3119 31.5584 73.64 31.5584 73.9663Z" fill="#FEC6B2"/>
<path d="M38.5547 84.2206C39.2042 82.8088 40.2193 81.6275 41.0764 80.3469C41.3926 79.8763 41.7754 79.4675 42.1258 79.0288C43.0362 78.5675 43.979 78.4213 44.9694 78.7475C43.4419 79.9513 42.5658 81.6594 41.4668 83.1894C40.5583 84.4531 40.9659 86.0919 42.2458 87.0219C42.3563 87.1025 42.4477 87.2094 42.5468 87.3031C40.5945 88.0081 38.7337 86.795 38.5718 84.71C38.5604 84.5469 38.5604 84.3838 38.5547 84.2206Z" fill="#F8AC94"/>
<path d="M29.8465 70.7188C29.3855 70.8913 29.0541 71.2288 28.7704 71.6019C28.3742 72.1213 28.058 72.7006 27.639 73.1994C26.4067 74.6638 26.4505 76.5763 28.3932 77.8663C27.0029 78.4813 25.7154 77.9038 24.9821 76.9813C24.2164 76.0175 24.1974 74.7144 24.9497 73.6044C25.382 72.9669 25.8296 72.3388 26.2715 71.7069C27.3152 70.4413 28.5932 70.0888 29.8465 70.7188Z" fill="#F8AC95"/>
<path d="M59.2701 81.5488C58.7311 80.6506 57.7693 80.225 56.9941 79.595C55.8799 78.6913 54.7181 77.8456 53.5753 76.9756C53.3448 76.7994 53.2306 76.6306 53.5867 76.4694C53.6077 76.46 53.6286 76.4469 53.6477 76.4338C54.1505 76.0906 54.6457 75.4888 55.1561 75.4794C55.6209 75.47 56.1122 76.0831 56.5713 76.4469C58.4892 77.9694 60.4833 79.3963 62.3537 80.975C63.1765 81.6706 64.1459 82.0306 65.2601 81.7531C65.3915 81.7194 65.4906 81.7344 65.5725 81.8394C64.723 83.555 62.3632 83.8663 60.9747 82.7413C60.4395 82.3081 59.9786 81.7531 59.2701 81.5488Z" fill="#FEC6B2"/>
<path d="M65.5555 78.8769C65.186 78.0894 64.3689 77.7631 63.7537 77.2437C62.2319 75.9575 60.632 74.7612 59.0626 73.5312C58.8074 73.3306 58.7065 73.1769 58.996 72.8694C60.2568 71.5269 60.2245 71.5381 61.7348 72.7831C63.5823 74.3056 65.4755 75.7737 67.3287 77.2869C68.3381 78.1119 69.4523 78.35 70.7074 78.0312C69.9704 79.6494 67.9381 80.2681 66.4068 79.3456C66.1307 79.1806 65.9135 78.9031 65.5555 78.8769Z" fill="#FEC6B2"/>
<path d="M53.1286 84.2225C52.2315 83.2588 51.1173 82.5444 50.1231 81.6931C49.5536 81.2056 48.9499 80.7575 48.3594 80.2925C48.1214 80.105 48.108 79.9156 48.3442 79.7169C48.3614 79.7019 48.3785 79.685 48.3937 79.6663C49.586 78.3369 49.6165 78.3631 51.005 79.5181C52.7172 80.9431 54.4809 82.3081 56.2141 83.7106C57.0331 84.3725 57.9244 84.68 58.9777 84.3875C59.1053 84.3519 59.2081 84.41 59.2843 84.5113C58.4463 86.2063 56.2312 86.3975 55.0637 85.6438C54.3856 85.2088 53.8562 84.5863 53.1286 84.2225Z" fill="#FEC6B2"/>
<path d="M21.4256 63.0781C21.418 63.9406 20.7647 64.565 19.8772 64.5575C19.0049 64.55 18.3421 63.8956 18.3497 63.0463C18.3573 62.2006 19.0372 61.5519 19.9057 61.5613C20.7819 61.5725 21.4313 62.2213 21.4256 63.0781Z" fill="#FEFEFE"/>
<path d="M81.2806 65.2419C80.4311 65.2419 79.7188 64.5537 79.7207 63.7344C79.7226 62.9187 80.433 62.2269 81.2806 62.2175C82.1167 62.2081 82.8348 62.9113 82.829 63.7325C82.8252 64.5669 82.1339 65.2419 81.2806 65.2419Z" fill="#FDFDFE"/>
<path d="M41.5481 38.2625C41.6662 36.3312 42.4509 34.7712 44.1841 33.7475C44.7231 33.4287 45.3002 33.2806 45.8468 33.695C46.4087 34.1206 46.3516 34.7056 46.1421 35.2906C45.4297 37.2856 43.9403 38.6206 42.2224 39.7644C41.9424 39.95 41.7881 39.8956 41.7138 39.5862C41.6072 39.1531 41.5081 38.72 41.5481 38.2625Z" fill="#DFE8EE"/>
</g>
<defs>
<filter id="filter0_d_340_5" x="0" y="0" width="100" height="102" filterUnits="userSpaceOnUse" color-interpolation-filters="sRGB">
<feFlood flood-opacity="0" result="BackgroundImageFix"/>
<feColorMatrix in="SourceAlpha" type="matrix" values="0 0 0 0 0 0 0 0 0 0 0 0 0 0 0 0 0 0 127 0" result="hardAlpha"/>
<feOffset dy="2"/>
<feComposite in2="hardAlpha" operator="out"/>
<feColorMatrix type="matrix" values="0 0 0 0 0.176471 0 0 0 0 0.627451 0 0 0 0 0.890196 0 0 0 0.15 0"/>
<feBlend mode="normal" in2="BackgroundImageFix" result="effect1_dropShadow_340_5"/>
<feBlend mode="normal" in="SourceGraphic" in2="effect1_dropShadow_340_5" result="shape"/>
</filter>
<clipPath id="clip0_340_5">
<rect width="73" height="72" fill="white" transform="translate(14 17)"/>
</clipPath>
</defs>
</svg>
