<svg width="530" height="356" viewBox="0 0 530 356" fill="none" xmlns="http://www.w3.org/2000/svg">
<g clip-path="url(#clip0_352_880)">
<path d="M392.035 317.509C392.035 320.927 389.263 323.695 385.849 323.695H83.8711C80.4525 323.695 77.6844 320.923 77.6844 317.509V99.6881C77.6844 96.2695 80.4566 93.5014 83.8711 93.5014H385.849C389.267 93.5014 392.035 96.2736 392.035 99.6881V317.509Z" fill="#423330" stroke="#68544F" stroke-width="4.4799" stroke-miterlimit="10"/>
<path d="M380.586 105.63H89.1421V300.544H380.586V105.63Z" fill="white"/>
<path d="M443.858 313.191H437.671H32.0442H25.8575C24.1502 313.191 22.7621 314.575 22.7621 316.286V323.094C22.7621 323.376 22.8118 323.646 22.8822 323.907C23.5701 328.353 27.4031 331.759 32.0442 331.759H437.671C442.308 331.759 446.141 328.353 446.833 323.907C446.904 323.646 446.953 323.376 446.953 323.094V316.286C446.953 314.579 445.569 313.191 443.858 313.191Z" fill="#68544F"/>
<path opacity="0.4" d="M181.711 313.191C182.387 319.551 187.769 324.507 194.308 324.507H275.407C281.946 324.507 287.329 319.551 288.004 313.191H181.711Z" fill="#352836"/>
<path opacity="0.1" d="M456.414 335.965C455.801 335.965 455.191 335.969 454.582 335.973C457.379 335.103 458.855 334.2 458.855 333.28C458.855 325.659 358.868 319.485 235.527 319.485C112.186 319.485 12.1994 325.659 12.1994 333.28C12.1994 340.9 112.186 347.075 235.527 347.075C296.197 347.075 351.206 345.579 391.455 343.155C389.847 343.996 388.969 344.883 388.969 345.798C388.969 351.227 419.165 355.628 456.414 355.628C493.663 355.628 523.859 351.227 523.859 345.798C523.859 340.366 493.663 335.965 456.414 335.965Z" fill="#352836"/>
<path d="M439.391 324.938L438.426 346.234C438.426 346.234 382.173 362.175 426.694 340.333L427.113 311.691L439.391 324.938Z" fill="#352836"/>
<path opacity="0.3" d="M434.327 340.532C435.749 340.528 437.099 340.486 438.699 340.213L439.391 324.938L427.113 311.691L426.711 339.289C429.168 340.213 431.717 340.54 434.327 340.532Z" fill="#0D1122"/>
<path d="M419.84 343.814C399.66 354.505 413.343 352.383 425.542 349.545C424.361 346.942 422.567 344.746 419.84 343.814Z" fill="white"/>
<path d="M409.97 350.125C404.807 355.901 438.475 346.462 438.475 346.462L438.529 345.235C435.84 345.981 411.561 352.657 409.97 350.125Z" fill="white"/>
<path d="M425.824 340.242C425.824 340.242 428.642 340.179 429.897 341.957" stroke="white" stroke-width="1.9283" stroke-miterlimit="10" stroke-linecap="round"/>
<path d="M423.557 341.588C423.557 341.588 426.375 341.526 427.631 343.304" stroke="white" stroke-width="1.9283" stroke-miterlimit="10" stroke-linecap="round"/>
<path d="M421.005 343.001C421.005 343.001 423.823 342.939 425.078 344.717" stroke="white" stroke-width="1.9283" stroke-miterlimit="10" stroke-linecap="round"/>
<path d="M474.941 324.13L477.083 345.343C477.083 345.343 534.136 358.292 488.471 338.829L486.473 310.253L474.941 324.13Z" fill="#352836"/>
<path opacity="0.3" d="M480.858 339.434C479.437 339.504 478.086 339.537 476.478 339.347L474.941 324.13L486.469 310.253L488.396 337.788C485.993 338.841 483.465 339.305 480.858 339.434Z" fill="#0D1122"/>
<path d="M496.195 342.268C493.485 343.142 491.396 345.6 492.473 348.372C503.931 350.266 514.676 350.933 496.195 342.268Z" fill="white"/>
<path d="M505.713 347.73C511.191 353.224 477.05 345.575 477.05 345.575L476.93 344.352C479.648 344.953 504.263 350.34 505.713 347.73Z" fill="white"/>
<path d="M489.332 338.696C489.332 338.696 486.515 338.783 485.359 340.627" stroke="white" stroke-width="1.9283" stroke-miterlimit="10" stroke-linecap="round"/>
<path d="M491.674 339.923C491.674 339.923 488.856 340.01 487.7 341.849" stroke="white" stroke-width="1.9283" stroke-miterlimit="10" stroke-linecap="round"/>
<path d="M494.297 341.199C494.297 341.199 491.479 341.286 490.327 343.13" stroke="white" stroke-width="1.9283" stroke-miterlimit="10" stroke-linecap="round"/>
<path d="M428.808 153.496C428.808 153.496 420.006 255.177 424.548 337.138C424.548 337.138 436.167 340.93 439.743 337.759C442.341 318.225 441.886 280.525 445.818 252.252C449.519 225.627 453.633 194.147 453.633 194.147L455.925 194.466C455.925 194.466 472.015 327.106 474.377 336.777C486.49 339.529 490.534 334.304 490.534 334.304C490.534 334.304 485.785 178.355 481.716 152.576C476.387 118.791 428.808 153.496 428.808 153.496Z" fill="#3777D3"/>
<path opacity="0.1" d="M426.437 187.057C424.216 223.812 421.635 284.532 424.548 337.134C424.548 337.134 436.167 340.925 439.743 337.755C442.341 318.221 441.886 280.521 445.818 252.247C449.274 227.36 453.099 198.228 453.584 194.536C444.098 193.405 434.891 191.176 426.437 187.057Z" fill="#352836"/>
<path d="M438.26 147.462C432.645 150.695 428.808 153.496 428.808 153.496C428.808 153.496 428.286 159.517 427.565 169.785C429.827 170.452 433.01 171.31 436.859 172.139C437.261 163.909 437.692 155.68 438.26 147.462Z" fill="#352836"/>
<path d="M467.793 137.869C460.263 137.264 451.072 140.774 443.502 144.62C442.81 154.109 442.317 163.611 441.857 173.113C449.568 174.48 459.078 175.479 469.028 174.915C468.68 162.567 468.166 150.218 467.793 137.869Z" fill="#352836"/>
<path d="M474.067 174.488C477.249 174.132 480.456 173.606 483.639 172.856C482.997 163.681 482.35 156.562 481.72 152.568C480.535 145.059 477.257 140.944 472.886 139.071C473.25 150.877 473.731 162.683 474.067 174.488Z" fill="#352836"/>
<path d="M473.242 336.612C473.242 336.612 482.644 341.062 492.275 334.034L491.603 326.302C491.603 326.302 483.767 328.643 472.123 328.643L473.242 336.612Z" fill="#6CBBE6"/>
<path d="M440.489 338.489C440.489 338.489 433.225 341.534 422.675 336.235L422.633 327.951C422.633 327.951 430.262 329.832 441.289 328.925L440.489 338.489Z" fill="#6CBBE6"/>
<path d="M474.995 45.5116C474.995 45.5116 468.622 67.4946 477.535 71.2655C486.448 75.0364 504.047 76.1842 504.379 92.6311C504.71 109.074 426.151 91.7567 426.151 91.7567C426.151 91.7567 426.064 73.3333 441.641 71.8912C457.218 70.4491 453.422 68.6466 454.57 51.0436C455.718 33.4447 474.995 45.5116 474.995 45.5116Z" fill="#FFAC9D"/>
<path d="M472.927 62.9904C469.587 66.2515 465.63 68.7171 460.777 69.4464C457.922 69.8733 454.819 69.9769 451.702 69.7199C455.212 67.4408 453.803 62.721 454.566 51.0437C455.718 33.4407 474.995 45.5117 474.995 45.5117C474.995 45.5117 472.148 55.3491 472.927 62.9904Z" fill="#F3938A"/>
<path d="M474.162 54.595C474.162 54.595 488.259 36.0182 476.449 20.5327C464.639 5.04718 450.016 14.176 447.38 23.8602C444.741 33.5443 435.649 62.3066 453.289 63.8854C470.926 65.4642 474.162 54.595 474.162 54.595Z" fill="#FFAC9D"/>
<path d="M442.578 2.80952L444.144 6.67985C444.144 6.67985 445.706 1.56637 449.577 0C449.577 0 448.006 5.70191 454.168 5.68533C460.33 5.66876 474.352 -1.17685 479.976 12.2326C485.918 26.4003 473.159 15.614 473.781 16.9731C475.832 16.6789 479.855 10.0115 485.359 14.7189C491.458 19.9401 492.096 42.1013 473.553 56.9445L475.989 48.8765C475.989 48.8765 478.003 50.1942 480.249 47.0739C484.144 41.6662 481.704 38.6039 479.159 39.4907C476.615 40.3775 475.844 46.0131 475.844 46.0131L473.884 45.8308L476.018 33.8095C471.986 30.511 474.982 22.6667 474.982 22.6667C474.982 22.6667 455.063 27.1835 444.882 22.0037C429.533 14.1968 442.578 2.80952 442.578 2.80952Z" fill="#352836"/>
<path d="M474.692 52.8918C474.692 52.8918 480.423 53.2731 482.122 45.5241C483.817 37.7793 478.865 36.9215 477.063 41.6455C475.26 46.3736 474.692 52.8918 474.692 52.8918Z" fill="#FFAC9D"/>
<path d="M448.657 49.8627L464.809 52.4857C464.809 52.4857 452.941 60.2554 448.657 49.8627Z" fill="white"/>
<path d="M457.272 35.467C457.16 36.4326 456.928 37.3649 456.658 38.2807C456.385 39.1965 456.045 40.0916 455.66 40.97C455.262 41.8444 454.81 42.698 454.276 43.5185C453.994 43.9246 453.704 44.3265 453.36 44.7036C453.202 44.8943 452.987 45.0724 452.796 45.2506C452.705 45.3418 452.585 45.4205 452.465 45.4993C452.345 45.578 452.224 45.6526 452.104 45.7272L452.075 44.7741C452.311 44.9233 452.548 45.0766 452.784 45.2382C453.016 45.3998 453.256 45.549 453.484 45.7189C453.712 45.8888 453.944 46.0462 454.168 46.2244C454.396 46.3985 454.62 46.5767 454.835 46.7673C454.553 46.7093 454.276 46.6347 454.002 46.5559C453.725 46.4855 453.459 46.3902 453.186 46.3073C452.912 46.2244 452.651 46.125 452.382 46.0338C452.113 45.9426 451.852 45.8432 451.59 45.7437L450.807 45.4412L451.561 44.7907C452.117 44.3141 452.614 43.5226 453.078 42.7643C453.538 41.9811 453.973 41.1731 454.421 40.3568C454.864 39.5404 455.307 38.7199 455.776 37.9036C456.244 37.0873 456.721 36.2668 457.272 35.467Z" fill="#FD7D71"/>
<path d="M477.067 50.0492C477.278 49.7094 477.402 49.2867 477.27 48.9593C477.203 48.7977 477.096 48.6651 476.947 48.5615C476.876 48.5077 476.793 48.4662 476.719 48.4207L476.462 48.3129L476.3 48.2425L476.342 48.056C476.557 47.0615 476.839 46.096 477.179 45.1346C477.535 44.1815 477.92 43.2367 478.505 42.3541C478.65 42.1345 478.815 41.919 479.014 41.7201C479.209 41.5253 479.445 41.3264 479.781 41.227C479.868 41.2104 479.959 41.1938 480.046 41.1897C480.133 41.198 480.241 41.2021 480.311 41.227C480.461 41.2684 480.614 41.3347 480.746 41.4342C481.02 41.6331 481.173 41.948 481.227 42.2298C481.327 42.8058 481.206 43.3237 481.057 43.8169C480.9 44.3058 480.688 44.7741 480.432 45.2092C480.572 44.7244 480.684 44.2354 480.759 43.7506C480.825 43.2699 480.862 42.7643 480.734 42.3582C480.676 42.1552 480.564 42.0019 480.419 41.9148C480.344 41.8734 480.262 41.8444 480.166 41.8278C480.117 41.8112 480.096 41.8278 480.059 41.8195C480.025 41.8237 479.988 41.8361 479.955 41.8402C479.81 41.8941 479.64 42.0267 479.499 42.1925C479.354 42.3624 479.213 42.5447 479.089 42.7436C478.583 43.5517 478.19 44.4674 477.817 45.3832C477.44 46.299 477.096 47.2397 476.76 48.1762L476.64 47.9192L476.926 48.085C477.013 48.1554 477.108 48.2176 477.187 48.3005C477.349 48.4579 477.477 48.6734 477.523 48.9013C477.572 49.1292 477.523 49.3613 477.436 49.5519C477.344 49.7425 477.216 49.9083 477.067 50.0492Z" fill="#FD7D71"/>
<path d="M465.97 39.1882C465.667 40.7629 464.942 41.9438 464.353 41.832C463.765 41.7201 463.533 40.3526 463.835 38.778C464.138 37.2033 464.863 36.0223 465.452 36.1342C466.04 36.2461 466.272 37.6135 465.97 39.1882Z" fill="#352836"/>
<path d="M452.765 37.1289C453.068 35.5559 452.834 34.1884 452.243 34.0745C451.652 33.9606 450.928 35.1435 450.624 36.7165C450.321 38.2895 450.555 39.657 451.146 39.7709C451.737 39.8847 452.462 38.7019 452.765 37.1289Z" fill="#352836"/>
<path d="M460.773 33.7515C461.034 32.6824 461.685 31.7376 462.605 31.0249C463.065 30.6726 463.616 30.395 464.217 30.2334C464.818 30.0759 465.472 30.0511 466.09 30.1629C467.341 30.3991 468.352 31.1243 469.086 31.9531C469.811 32.8026 470.312 33.7722 470.557 34.8372C469.641 34.2363 468.858 33.6147 468.066 33.1133C467.275 32.6161 466.5 32.239 465.742 32.094C464.987 31.9572 464.208 32.0401 463.371 32.3592C462.534 32.6741 461.685 33.1631 460.773 33.7515Z" fill="#352836"/>
<path d="M447.865 32.4379C448.043 31.3854 448.607 30.4281 449.448 29.674C449.875 29.301 450.389 28.9902 450.977 28.8079C451.561 28.6214 452.208 28.5758 452.821 28.667C454.06 28.8701 455.051 29.5828 455.763 30.3826C456.468 31.203 456.957 32.1395 457.193 33.1755C456.29 32.6119 455.523 32.0235 454.752 31.547C453.981 31.0746 453.231 30.7224 452.519 30.6063C451.81 30.4944 451.085 30.6022 450.302 30.9586C449.519 31.3025 448.723 31.8288 447.865 32.4379Z" fill="#352836"/>
<path d="M447.003 89.4446C449.005 83.9747 447.517 73.7021 447.517 73.7021L421.974 75.3431L401.587 109.555L380.499 86.8257C380.499 86.8257 369.766 90.7747 369.253 96.199C369.253 96.199 396.2 140.016 404.4 140.016C409.837 140.016 445.59 93.3066 447.003 89.4446Z" fill="#F0F9FF"/>
<path d="M383.549 95.4904C383.549 95.4904 376.989 85.885 374.412 85.6488C371.834 85.4126 355.665 86.3533 355.665 86.3533C355.665 86.3533 343.246 77.9164 353.556 88.2263L359.179 89.1628H352.383C352.383 89.1628 348.401 85.8809 346.76 86.3491C345.119 86.8174 352.383 91.7402 352.383 91.7402C352.383 91.7402 344.883 88.9266 345.119 90.0993C345.355 91.272 351.447 94.3177 354.024 95.0221C356.601 95.7266 368.788 93.8494 368.788 93.8494L377.457 102.518L383.549 95.4904Z" fill="#FFAC9D"/>
<path d="M447.003 89.4446C449.005 83.9747 447.517 73.7021 447.517 73.7021L421.974 75.3431L401.587 109.555L380.499 86.8257C380.499 86.8257 369.766 90.7747 369.253 96.199C369.253 96.199 396.2 140.016 404.4 140.016C409.837 140.016 445.59 93.3066 447.003 89.4446Z" fill="white"/>
<path d="M447.517 73.7021L421.974 75.3431L409.576 96.1493C411.23 101.524 413.509 106.724 416.281 111.125C418.419 114.519 420.918 117.643 423.574 120.639C434.58 107.304 446.208 91.6159 447.003 89.4446C449.009 83.9747 447.517 73.7021 447.517 73.7021Z" fill="#E5F4F8"/>
<path d="M479.333 70.8719C479.333 70.8719 471.812 78.7079 459 78.3847C448.135 78.1112 446.112 70.6523 446.112 70.6523C446.112 70.6523 424.651 69.347 421.979 75.339C419.302 81.331 421.51 102.286 421.51 102.286C421.51 102.286 424.705 157.582 425.024 172.35C425.024 172.35 434.787 182.809 446.581 183.597C448.031 183.692 448.118 171.571 449.639 171.65C450.559 171.7 453.136 183.791 454.077 183.833C465.381 184.305 482.586 177.791 484.538 173.055C484.538 173.055 488.064 101.694 494.164 76.6401L479.333 70.8719Z" fill="white"/>
<path d="M452.44 81.7826L455.37 86.5895L444.471 148.917L451.151 158.526L460.288 151.146L461.225 87.0577L467.905 80.0257L462.75 76.0434L455.602 75.1069L452.44 81.7826Z" fill="#68544F"/>
<path d="M444.239 69.7158C444.239 69.7158 443.067 76.6277 451.856 86.4693L457.798 75.3928L448.226 66.6701L444.239 69.7158Z" fill="#E5F4F8"/>
<path d="M475.169 63.8606L459.762 75.5254L465.563 86.8257C465.563 86.8257 475.77 79.2963 479.338 70.8761L475.169 63.8606Z" fill="#E5F4F8"/>
<path d="M504.524 85.9265C504.524 85.9265 528.405 123.847 526.088 130.323C523.772 136.8 492.56 165.732 487.911 165.463C483.262 165.198 483.208 159.359 483.208 159.359C483.208 159.359 463.782 172.632 482.566 156.989C482.566 156.989 457.326 169.93 481.625 153.048C481.625 153.048 458.059 157.142 482.557 150.38C482.557 150.38 464.407 148.175 484.973 148.962L487.741 154.954L507.855 129.665L482.868 97.5126L504.524 85.9265Z" fill="#FFAC9D"/>
<path d="M523.328 115.874C516.131 103.239 503.417 81.3351 500.272 78.683C495.822 74.9287 479.333 70.8719 479.333 70.8719L479.151 98.3041L505.63 128.765L487.82 152.667C487.82 152.667 491.334 161.104 496.257 163.445C496.257 163.445 530 131.811 530 128.061C530 125.691 526.155 119.848 523.328 115.874Z" fill="white"/>
<path d="M414.201 63.3177C414.201 65.083 412.771 66.5126 411.006 66.5126H312.548C310.783 66.5126 309.353 65.083 309.353 63.3177V12.0876C309.353 10.3223 310.783 8.89267 312.548 8.89267H411.006C412.771 8.89267 414.201 10.3223 414.201 12.0876V63.3177Z" fill="#FEB200"/>
<path d="M356.27 60.1145L362.548 80.1168L367.781 57.6158L356.27 60.1145Z" fill="#FEB200"/>
<path d="M321.031 142.983C321.031 144.566 319.746 145.85 318.163 145.85H289.5C287.917 145.85 286.633 144.566 286.633 142.983V114.32C286.633 112.737 287.917 111.452 289.5 111.452H318.163C319.746 111.452 321.031 112.737 321.031 114.32V142.983Z" fill="#EF5541"/>
<path d="M314.993 124.46H292.554V139.527H314.993V124.46Z" stroke="white" stroke-width="6.6651" stroke-miterlimit="10" stroke-linecap="round" stroke-linejoin="round"/>
<path d="M304.095 133.435V116.123" stroke="white" stroke-width="6.6651" stroke-miterlimit="10" stroke-linecap="round" stroke-linejoin="round"/>
<path d="M298.965 119.972L303.776 115.161L308.744 120.13" stroke="white" stroke-width="6.6651" stroke-miterlimit="10" stroke-linecap="round" stroke-linejoin="round"/>
<path d="M368.084 209.802C368.084 211.261 367.243 212.446 366.207 212.446H308.454C307.418 212.446 306.577 211.261 306.577 209.802V155.327C306.577 153.869 307.418 152.684 308.454 152.684H366.207C367.243 152.684 368.084 153.869 368.084 155.327V209.802Z" fill="#FEB200"/>
<path d="M360.02 197.599H316.663L330.035 165.186L340.167 184.633L346.246 178.96L360.02 197.599Z" stroke="white" stroke-width="7.0061" stroke-miterlimit="10"/>
<path d="M347.282 173.361C350.303 173.361 352.752 170.912 352.752 167.891C352.752 164.871 350.303 162.422 347.282 162.422C344.261 162.422 341.812 164.871 341.812 167.891C341.812 170.912 344.261 173.361 347.282 173.361Z" stroke="white" stroke-width="7.0061" stroke-miterlimit="10"/>
<path d="M218.715 63.6327C235.839 63.6327 249.72 49.7516 249.72 32.6285C249.72 15.5054 235.839 1.62439 218.715 1.62439C201.592 1.62439 187.711 15.5054 187.711 32.6285C187.711 49.7516 201.592 63.6327 218.715 63.6327Z" fill="#629CF9"/>
<path d="M218.715 54.6074C230.854 54.6074 240.694 44.7671 240.694 32.6285C240.694 20.4899 230.854 10.6497 218.715 10.6497C206.577 10.6497 196.737 20.4899 196.737 32.6285C196.737 44.7671 206.577 54.6074 218.715 54.6074Z" stroke="white" stroke-width="5.0512" stroke-miterlimit="10"/>
<path d="M202.766 16.766C206.773 20.9885 212.438 23.624 218.72 23.624C224.575 23.624 229.9 21.3325 233.836 17.5989" stroke="white" stroke-width="5.0512" stroke-miterlimit="10"/>
<path d="M233.836 48.7439C229.829 44.5213 224.165 41.8859 217.883 41.8859C212.027 41.8859 206.703 44.1774 202.766 47.911" stroke="white" stroke-width="5.0512" stroke-miterlimit="10"/>
<path d="M218.715 54.6074C225.739 54.6074 231.433 44.7671 231.433 32.6285C231.433 20.4899 225.739 10.6497 218.715 10.6497C211.692 10.6497 205.998 20.4899 205.998 32.6285C205.998 44.7671 211.692 54.6074 218.715 54.6074Z" stroke="white" stroke-width="5.0512" stroke-miterlimit="10"/>
<path d="M218.715 10.6497V54.6074" stroke="white" stroke-width="5.0512" stroke-miterlimit="10"/>
<path d="M196.737 32.6285H240.694" stroke="white" stroke-width="5.0512" stroke-miterlimit="10"/>
<path d="M175.176 113.616C175.176 115.161 173.925 116.413 172.379 116.413H113.611C112.066 116.413 110.814 115.161 110.814 113.616V54.8477C110.814 53.3021 112.066 52.0507 113.611 52.0507H172.379C173.925 52.0507 175.176 53.3021 175.176 54.8477V113.616Z" fill="#FEB200"/>
<path d="M119.172 81.8945L131.873 74.1663V80.2163L127.439 83.0631L131.873 85.6695V92.022L119.172 84.5341V81.8945Z" fill="white"/>
<path d="M151.358 69.5542L138.628 98.9132H132.366L145.067 69.5542H151.358Z" fill="white"/>
<path d="M166.814 84.53L154.113 92.0179V85.6654L158.547 83.0589L154.113 80.2121V74.1621L166.814 81.8904V84.53Z" fill="white"/>
<path d="M322.909 249.065C329.401 233.807 322.294 216.176 307.037 209.685C291.779 203.194 274.148 210.3 267.657 225.558C261.165 240.815 268.272 258.446 283.529 264.938C298.787 271.429 316.418 264.323 322.909 249.065Z" fill="#EF5541"/>
<path d="M309.455 251.731C317.425 243.761 317.425 230.839 309.455 222.869C301.485 214.899 288.563 214.899 280.593 222.869C272.623 230.839 272.623 243.761 280.593 251.731C288.563 259.701 301.485 259.701 309.455 251.731Z" stroke="white" stroke-width="7.5768" stroke-miterlimit="10"/>
<path d="M302.795 245.071C307.086 240.779 307.086 233.821 302.795 229.529C298.503 225.238 291.545 225.238 287.254 229.529C282.962 233.821 282.962 240.779 287.254 245.07C291.545 249.362 298.503 249.362 302.795 245.071Z" stroke="white" stroke-width="7.5768" stroke-miterlimit="10"/>
<path d="M295.028 211.46V230.563" stroke="white" stroke-width="7.5768" stroke-miterlimit="10"/>
<path d="M295.028 244.428V263.527" stroke="white" stroke-width="7.5768" stroke-miterlimit="10"/>
<path d="M268.993 237.495H288.091" stroke="white" stroke-width="7.5768" stroke-miterlimit="10"/>
<path d="M301.961 237.495H321.06" stroke="white" stroke-width="7.5768" stroke-miterlimit="10"/>
<path d="M200.429 277.131C200.429 279.298 198.672 281.055 196.505 281.055H37.9492C35.782 281.055 34.025 279.298 34.025 277.131V172.736C34.025 170.568 35.782 168.811 37.9492 168.811H196.505C198.672 168.811 200.429 170.568 200.429 172.736V277.131Z" fill="#629CF9"/>
<path d="M52.4568 223.162C57.6175 223.162 61.8011 218.978 61.8011 213.817C61.8011 208.657 57.6175 204.473 52.4568 204.473C47.296 204.473 43.1124 208.657 43.1124 213.817C43.1124 218.978 47.296 223.162 52.4568 223.162Z" fill="white"/>
<path d="M68.3069 210.163H185.325" stroke="white" stroke-width="5.8833" stroke-miterlimit="10" stroke-linecap="round" stroke-linejoin="round"/>
<path d="M68.3069 216.664H136.162" stroke="white" stroke-width="5.8833" stroke-miterlimit="10" stroke-linecap="round" stroke-linejoin="round"/>
<path d="M52.4568 248.965C57.6175 248.965 61.8011 244.782 61.8011 239.621C61.8011 234.46 57.6175 230.277 52.4568 230.277C47.296 230.277 43.1124 234.46 43.1124 239.621C43.1124 244.782 47.296 248.965 52.4568 248.965Z" fill="white"/>
<path d="M68.3069 235.966H185.325" stroke="white" stroke-width="5.8833" stroke-miterlimit="10" stroke-linecap="round" stroke-linejoin="round"/>
<path d="M68.3069 242.464H177.605" stroke="white" stroke-width="5.8833" stroke-miterlimit="10" stroke-linecap="round" stroke-linejoin="round"/>
<path d="M52.4568 274.765C57.6175 274.765 61.8011 270.581 61.8011 265.421C61.8011 260.26 57.6175 256.076 52.4568 256.076C47.296 256.076 43.1124 260.26 43.1124 265.421C43.1124 270.581 47.296 274.765 52.4568 274.765Z" fill="white"/>
<path d="M68.3069 261.766H185.325" stroke="white" stroke-width="5.8833" stroke-miterlimit="10" stroke-linecap="round" stroke-linejoin="round"/>
<path d="M68.3069 268.267H103.654" stroke="white" stroke-width="5.8833" stroke-miterlimit="10" stroke-linecap="round" stroke-linejoin="round"/>
<path d="M143.476 190.658C143.476 192.904 141.657 194.723 139.411 194.723H45.5531C43.3072 194.723 41.488 192.904 41.488 190.658V180.907C41.488 178.661 43.3072 176.842 45.5531 176.842H139.415C141.661 176.842 143.48 178.661 143.48 180.907V190.658H143.476Z" fill="white"/>
<path d="M217.547 293.147C235.862 293.147 250.71 278.299 250.71 259.984C250.71 241.668 235.862 226.821 217.547 226.821C199.231 226.821 184.384 241.668 184.384 259.984C184.384 278.299 199.231 293.147 217.547 293.147Z" fill="#8FCC92"/>
<path d="M235.602 260.597C235.593 258.434 235.2 256.358 234.491 254.435L239.401 252.629C238.461 250.08 237.093 247.731 235.332 245.646L231.333 249.032C229.978 247.432 228.35 246.069 226.522 245.016L229.129 240.471C226.763 239.111 224.202 238.192 221.517 237.727L220.63 242.886C219.627 242.712 218.599 242.617 217.547 242.617C216.457 242.617 215.396 242.721 214.36 242.903L213.445 237.752C210.763 238.229 208.207 239.165 205.849 240.541L208.484 245.07C206.661 246.131 205.041 247.503 203.694 249.11L199.675 245.75C197.926 247.842 196.567 250.2 195.643 252.757L200.566 254.535C199.869 256.453 199.488 258.517 199.488 260.672C199.488 260.684 199.488 260.697 199.488 260.709L194.259 260.717C194.263 263.452 194.739 266.129 195.672 268.674L200.586 266.875C201.32 268.868 202.393 270.696 203.736 272.287L199.728 275.664C201.481 277.749 203.566 279.493 205.919 280.848L208.538 276.311C210.328 277.347 212.313 278.08 214.422 278.449L213.523 283.604C214.841 283.832 216.192 283.948 217.539 283.948C217.543 283.948 217.547 283.948 217.547 283.948C218.906 283.948 220.269 283.828 221.6 283.595L220.692 278.441C222.801 278.068 224.782 277.33 226.572 276.29L229.199 280.823C231.553 279.46 233.633 277.711 235.382 275.627L231.371 272.258C232.713 270.663 233.782 268.831 234.512 266.838L239.43 268.628C240.359 266.079 240.827 263.398 240.827 260.63V260.589H235.602V260.597ZM217.547 249.401C223.771 249.401 228.835 254.464 228.835 260.688C228.835 266.912 223.771 271.976 217.547 271.976C211.323 271.976 206.259 266.912 206.259 260.688C206.255 254.464 211.323 249.401 217.547 249.401Z" fill="white"/>
<path d="M260.27 201.386C260.27 203.553 258.513 205.31 256.346 205.31H157.441C155.273 205.31 153.516 203.553 153.516 201.386V126.428C153.516 124.261 155.273 122.504 157.441 122.504H256.341C258.509 122.504 260.266 124.261 260.266 126.428V201.386H260.27Z" fill="#8FCC92"/>
<path d="M229.46 199.032L249.081 218.657V199.385L229.46 199.032Z" fill="#8FCC92"/>
<path d="M189.626 131.923H162.152V159.397H189.626V131.923Z" fill="white"/>
<path d="M251.24 134.865C251.24 136.059 250.275 137.024 249.081 137.024H197.279C196.086 137.024 195.121 136.059 195.121 134.865C195.121 133.672 196.086 132.706 197.279 132.706H249.086C250.275 132.706 251.24 133.672 251.24 134.865Z" fill="white"/>
<path d="M251.24 146.049C251.24 147.243 250.275 148.208 249.081 148.208H197.279C196.086 148.208 195.121 147.243 195.121 146.049C195.121 144.856 196.086 143.89 197.279 143.89H249.086C250.275 143.89 251.24 144.856 251.24 146.049Z" fill="white"/>
<path d="M251.24 157.233C251.24 158.427 250.275 159.392 249.081 159.392H197.279C196.086 159.392 195.121 158.427 195.121 157.233C195.121 156.04 196.086 155.075 197.279 155.075H249.086C250.275 155.075 251.24 156.044 251.24 157.233Z" fill="white"/>
<path d="M251.24 168.617C251.24 169.81 250.275 170.776 249.081 170.776H163.719C162.525 170.776 161.56 169.81 161.56 168.617C161.56 167.423 162.525 166.458 163.719 166.458H249.081C250.275 166.458 251.24 167.423 251.24 168.617Z" fill="white"/>
<path d="M251.24 179.801C251.24 180.994 250.275 181.96 249.081 181.96H163.719C162.525 181.96 161.56 180.994 161.56 179.801C161.56 178.607 162.525 177.642 163.719 177.642H249.081C250.275 177.642 251.24 178.611 251.24 179.801Z" fill="white"/>
<path d="M251.24 190.985C251.24 192.178 250.275 193.144 249.081 193.144H163.719C162.525 193.144 161.56 192.178 161.56 190.985C161.56 189.792 162.525 188.826 163.719 188.826H249.081C250.275 188.83 251.24 189.796 251.24 190.985Z" fill="white"/>
<path d="M31.0041 191.619C48.1272 191.619 62.0083 177.738 62.0083 160.615C62.0083 143.492 48.1272 129.611 31.0041 129.611C13.881 129.611 0 143.492 0 160.615C0 177.738 13.881 191.619 31.0041 191.619Z" fill="#8FCC92"/>
<path d="M20.0396 143.812L49.295 160.702L20.0396 177.592V143.812Z" fill="white"/>
<path d="M332.004 22.7165C336.404 22.7165 339.736 23.9431 342.032 26.4294C344.174 28.725 345.247 32.0567 345.247 36.3828C345.247 40.6717 344.137 43.9992 341.957 46.3736C339.661 48.8226 336.33 50.0492 331.929 50.0492H322.054V22.7165H332.004ZM326.227 46.4896H331.167C334.61 46.4896 337.175 45.6485 338.783 44.0034C340.354 42.3582 341.157 39.8305 341.157 36.387C341.157 32.8647 340.353 30.337 338.824 28.7292C337.217 27.0841 334.689 26.2802 331.245 26.2802H326.231V46.4896H326.227Z" fill="white"/>
<path d="M364.462 31.9075C365.647 33.1714 366.261 35.0071 366.261 37.4188V50.0492H362.511V47.2562C361.744 48.2508 360.787 49.0547 359.639 49.6306C358.338 50.2439 356.804 50.5879 355.047 50.5879C352.98 50.5879 351.372 50.0533 350.224 49.0174C348.96 47.9855 348.347 46.6429 348.347 44.9978C348.347 42.7768 349.225 41.0529 350.987 39.8678C352.594 38.7199 354.89 38.144 357.799 38.0694L362.241 37.9533V37.1494C362.241 34.3938 360.749 33.0139 357.762 33.0139C356.498 33.0139 355.466 33.2418 354.699 33.7018C353.779 34.2363 353.208 35.0402 352.976 36.1508L348.956 35.8068C349.379 33.6645 350.448 32.0567 352.134 31.0621C353.589 30.1422 355.578 29.7237 358.031 29.7237C360.944 29.7237 363.087 30.4489 364.462 31.9075ZM358.072 41.0156C354.36 41.0902 352.52 42.3955 352.52 44.8445C352.52 45.6111 352.826 46.2244 353.477 46.7217C354.09 47.2189 354.931 47.4883 355.963 47.4883C357.687 47.4883 359.142 46.9537 360.364 45.9178C361.586 44.8818 362.241 43.5848 362.241 42.0516V40.8996L358.072 41.0156Z" fill="white"/>
<path d="M376.902 30.2583H381.419V33.6272H376.902V45.1097C376.902 45.6443 377.018 46.0297 377.246 46.2949C377.474 46.5228 377.822 46.6761 378.319 46.6761H380.922V50.045H377.669C375.986 50.045 374.722 49.5851 373.956 48.7066C373.189 47.8654 372.845 46.6761 372.845 45.1097V33.6272H369.17V30.2583H372.845V25.5509L376.902 23.8685V30.2583Z" fill="white"/>
<path d="M400.02 31.9075C401.206 33.1714 401.819 35.0071 401.819 37.4188V50.0492H398.069V47.2562C397.302 48.2508 396.345 49.0547 395.197 49.6306C393.896 50.2439 392.363 50.5879 390.606 50.5879C388.538 50.5879 386.93 50.0533 385.782 49.0174C384.518 47.9855 383.905 46.6429 383.905 44.9978C383.905 42.7768 384.784 41.0529 386.545 39.8678C388.153 38.7199 390.448 38.144 393.357 38.0694L397.799 37.9533V37.1494C397.799 34.3938 396.308 33.0139 393.32 33.0139C392.056 33.0139 391.024 33.2418 390.258 33.7018C389.338 34.2363 388.766 35.0402 388.534 36.1508L384.514 35.8068C384.937 33.6645 386.006 32.0567 387.693 31.0621C389.147 30.1422 391.136 29.7237 393.589 29.7237C396.498 29.7237 398.645 30.4489 400.02 31.9075ZM393.631 41.0156C389.918 41.0902 388.078 42.3955 388.078 44.8445C388.078 45.6111 388.385 46.2244 389.035 46.7217C389.648 47.2189 390.49 47.4883 391.521 47.4883C393.245 47.4883 394.7 46.9537 395.922 45.9178C397.145 44.8818 397.799 43.5848 397.799 42.0516V40.8996L393.631 41.0156Z" fill="white"/>
</g>
<defs>
<clipPath id="clip0_352_880">
<rect width="530" height="355.628" fill="white"/>
</clipPath>
</defs>
</svg>
