<svg width="100" height="102" viewBox="0 0 100 102" fill="none" xmlns="http://www.w3.org/2000/svg">
<g filter="url(#filter0_d_340_9)">
<circle cx="50" cy="50" r="50" fill="white"/>
<circle cx="50" cy="50" r="49" stroke="#2DA0E3" stroke-opacity="0.6" stroke-width="2"/>
</g>
<g clip-path="url(#clip0_340_9)">
<path d="M57.2259 63.1601C57.404 63.402 57.6645 63.3041 57.8906 63.306C59.6607 63.3137 61.4326 63.2945 63.2027 63.3156C64.172 63.3271 64.9555 62.9835 65.6356 62.298C68.8941 59.0166 72.1622 55.7447 75.4322 52.4748C76.641 51.2671 78.0451 50.8351 79.6811 51.4898C80.3554 51.7586 80.9282 52.181 81.3324 52.8031C81.2941 53.911 80.8554 54.8096 80.0623 55.6007C74.3288 61.3187 68.6221 67.0656 62.8924 72.7874C60.9365 74.7402 58.5457 75.7252 55.7872 75.7309C48.4177 75.7463 41.0463 75.7386 33.6749 75.729C33.2687 75.729 32.7898 75.8749 32.5101 75.3911C32.4259 75.1607 32.4201 74.9206 32.4201 74.6806C32.4144 71.2033 32.4144 67.728 32.422 64.2507C32.422 63.9224 32.3818 63.5691 32.673 63.3137C34.2591 63.596 35.4085 62.9873 36.4468 61.7623C37.7744 60.1955 39.2647 58.7689 40.7149 57.3096C42.3738 55.6391 44.3872 54.7866 46.7549 54.7924C49.887 54.8 53.0191 54.7943 56.1512 54.7962C57.5707 54.7962 58.6568 55.4433 59.5112 56.5377C60.0035 58.3599 59.5055 59.8883 58.1435 61.1574C57.2144 62.0234 56.0726 62.3345 54.8447 62.3537C53.1225 62.3805 51.3985 62.3479 49.6744 62.3709C49.341 62.3748 48.7644 62.1693 48.774 62.7434C48.7817 63.235 49.3257 63.0756 49.6456 63.0756C52.0153 63.0718 54.385 63.1255 56.7546 63.0507C56.9194 63.0468 57.0898 63.0315 57.2259 63.1601Z" fill="#FBC3AD"/>
<path d="M50.0385 24.1842C52.4139 21.8187 55.1955 20.1866 58.4808 19.4282C67.7161 17.295 77.1066 23.6754 78.4974 33.0454C79.823 41.9719 74.329 50.1073 65.5208 51.966C59.5555 53.2236 54.3736 51.4994 50.0634 47.1715C50.6132 46.1059 51.2837 45.1382 52.2511 44.4047C52.9331 44.8578 53.435 45.5107 54.0901 46.0022C55.9483 47.3981 57.998 48.3409 60.2987 48.6308C63.653 49.0532 66.7928 48.3946 69.5571 46.3901C73.4363 43.579 75.3079 39.7216 75.1086 34.9406C74.9803 31.8953 73.8137 29.2091 71.7486 26.953C71.2352 26.3923 70.7352 25.799 70.08 25.3843C68.4134 24.1266 66.5763 23.2261 64.5074 22.8997C60.1991 22.2219 56.3659 23.2319 53.1342 26.256C52.8564 26.5171 52.6227 26.8263 52.2856 27.0221C52.1285 27.0912 51.9944 27.0298 51.9159 26.9031C51.3929 26.0506 50.7071 25.3228 50.1266 24.5164C50.0615 24.4185 50.0174 24.309 50.0385 24.1842Z" fill="#EA9C00"/>
<path d="M52.1784 44.4258C51.5136 45.3724 50.824 46.2979 50.0654 47.1734C47.9659 49.2663 45.5464 50.8216 42.6902 51.6895C33.2613 54.5504 23.2636 48.3255 21.5625 38.6463C20.0031 29.7659 25.7673 20.9316 34.9988 19.288C40.4661 18.3145 45.3012 19.8295 49.4103 23.5986C49.621 23.7925 49.8298 23.9903 50.0386 24.1862C50.8125 25.0752 51.5175 26.0179 52.188 26.9856C52.9159 27.5982 53.2033 28.4929 53.527 29.3166C55.5269 34.3991 55.2108 39.3453 52.5232 44.1205C52.4312 44.2453 52.3316 44.3663 52.1784 44.4258Z" fill="#649368"/>
<path d="M32.6741 75.5389C40.5014 75.5389 48.3307 75.5696 56.158 75.5216C58.5794 75.5063 60.7632 74.6134 62.4912 72.8988C68.3933 67.0406 74.2475 61.1325 80.1285 55.2532C80.6439 54.7386 80.9599 54.1491 81.0653 53.4425C81.1017 53.1987 81.1438 52.9721 81.3354 52.8012C82.3699 54.5005 82.1994 56.1729 80.8105 57.565C75.1268 63.2695 69.4507 68.9818 63.7402 74.6595C61.7191 76.6698 59.2307 77.6817 56.3726 77.6856C48.4724 77.6971 40.5723 77.6894 32.6741 77.6894C32.2909 76.9732 32.2909 76.257 32.6741 75.5389Z" fill="#F1AC96"/>
<path d="M20.1408 76.1149C20.135 70.9134 20.1216 65.7138 20.1293 60.5123C20.1312 59.6214 20.6848 59.1049 21.5928 59.0991C23.3629 59.0876 25.131 59.1049 26.9011 59.1106C27.1712 59.3794 27.1329 59.727 27.1329 60.0572C27.1386 64.773 27.1463 69.4868 27.131 74.2025C27.1252 75.8077 26.5697 76.3396 24.9548 76.3473C23.6655 76.353 22.3763 76.3549 21.0871 76.3434C20.7595 76.3396 20.4109 76.3837 20.1408 76.1149Z" fill="#629CF9"/>
<path d="M32.674 75.5389C32.674 76.257 32.674 76.9732 32.674 77.6913C32.6664 78.5554 32.6568 79.4175 32.6511 80.2815C32.6453 81.3337 32.1511 81.9635 31.1339 81.977C27.95 82.0134 24.7662 82.0077 21.5824 81.977C20.751 81.9693 20.3411 81.5488 20.138 80.7519C20.0231 80.4006 20.0901 80.0377 20.0863 79.6825C20.0767 78.8607 20.1419 78.78 20.9733 78.7723C23.2222 78.7512 25.4712 78.7685 27.7202 78.7627C29.2029 78.7589 29.5439 78.4306 29.5458 76.9444C29.5534 71.476 29.5477 66.0095 29.5496 60.5411C29.5496 59.0319 29.5515 59.0319 31.0208 59.053C31.1856 59.055 31.358 59.0204 31.5093 59.1183C32.2928 59.3276 32.6396 59.7443 32.6511 60.5181C32.6664 61.4493 32.6683 62.3805 32.676 63.3118C32.674 67.3881 32.674 71.4626 32.674 75.5389Z" fill="#3777D3"/>
<path d="M31.507 59.1202C29.7772 59.1586 29.7772 59.1586 29.7772 60.9117C29.7772 66.3302 29.7772 71.7487 29.7772 77.1671C29.7772 78.5842 29.3634 78.997 27.942 78.997C25.5973 78.997 23.2525 79.0162 20.9097 78.9835C20.3158 78.9759 20.0783 79.141 20.1492 79.7458C20.1875 80.0761 20.1434 80.4159 20.1377 80.7519C19.902 80.1337 20.0361 79.4943 20.0553 78.8645C20.0821 77.9467 19.9442 77.0251 20.1415 76.113C21.8617 76.113 23.582 76.1169 25.3042 76.1149C26.421 76.113 26.9037 75.633 26.9037 74.4867C26.9076 69.3601 26.9037 64.2354 26.9018 59.1087C28.4363 59.0185 29.9707 58.8975 31.507 59.1202Z" fill="#3777D3"/>
<path d="M57.2267 63.1601C56.811 63.2849 56.3857 63.3041 55.9528 63.3041C53.6789 63.2983 51.4031 63.2926 49.1292 63.3079C48.6695 63.3118 48.43 63.235 48.4377 62.6878C48.4434 62.1367 48.7404 62.1425 49.1292 62.1425C50.997 62.1501 52.8647 62.1309 54.7325 62.1501C57.1041 62.1751 59.0408 60.7754 59.4699 58.3407C59.5331 57.9816 59.5523 57.6283 59.4546 57.275C59.3837 57.0216 59.2803 56.7681 59.512 56.5377C61.4871 59.2335 59.6653 62.6398 57.2267 63.1601Z" fill="#F1AC96"/>
<path d="M55.2713 56.386C56.7291 56.2401 57.4857 57.2462 57.7558 58.3676C58.0738 59.6886 57.4934 61.0307 56.413 61.5453C55.7502 61.8602 55.051 61.7028 54.369 61.6797C54.1161 61.672 54.0625 61.4147 54.0625 61.1843C54.0625 59.7711 54.0644 58.358 54.0606 56.9467C54.0586 56.5531 54.2406 56.3745 54.6295 56.3879C54.8402 56.3918 55.0548 56.386 55.2713 56.386Z" fill="#FED1BF"/>
<path d="M52.3408 44.1455C53.2929 42.3175 54.0419 40.4282 54.3695 38.3698C54.9806 34.5374 54.3101 30.9487 52.4787 27.554C52.3772 27.3658 52.2852 27.1738 52.1895 26.9837C54.7852 24.117 57.969 22.581 61.8769 22.5157C64.827 22.4658 67.461 23.2876 69.846 24.9868C69.959 25.0675 70.051 25.1788 70.1525 25.2768C71.5854 26.9108 72.1658 28.9096 72.4743 30.989C72.9934 34.497 72.1467 37.7093 70.1084 40.5818C67.9706 43.5925 65.0607 45.4339 61.4114 46.0387C58.5149 46.5187 55.743 46.0828 53.1224 44.7484C52.8274 44.5986 52.5055 44.4738 52.3408 44.1455Z" fill="#FEC81D"/>
<path d="M52.3406 44.1455C53.7543 44.8962 55.2064 45.5452 56.8002 45.8044C60.9648 46.4803 64.6793 45.5433 67.8995 42.74C70.0833 40.8391 71.4913 38.4678 72.1101 35.674C72.8974 32.1142 72.2652 28.756 70.3151 25.6608C70.2423 25.5437 70.2059 25.4035 70.1523 25.2748C71.2384 25.9219 72.0507 26.8685 72.7691 27.8689C74.6598 30.4994 75.6234 33.4698 75.2939 36.7032C74.7537 42.0161 72.0028 45.8543 67.0834 47.9568C62.0088 50.1246 56.0014 48.698 52.2965 44.6005C52.2486 44.5487 52.216 44.4815 52.1777 44.422C52.2333 44.3317 52.2869 44.2396 52.3406 44.1455Z" fill="#FEC81D"/>
<path d="M37.9367 51.0578C29.525 51.102 22.5521 44.205 22.6038 35.626C22.6555 26.9396 29.6591 20.2404 37.9999 20.3153C46.9191 20.3959 53.3174 27.4177 53.3021 35.724C53.2868 44.2415 46.5207 51.0482 37.9367 51.0578Z" fill="#8FCC92"/>
<path d="M27.489 43.7096C21.4145 35.9755 26.0714 24.1305 35.7589 22.675C39.5365 22.1067 42.979 22.8939 46.0172 25.271C47.4022 26.928 48.0267 28.9115 48.3217 30.9929C48.8466 34.7159 47.9175 38.101 45.613 41.0484C41.5901 46.1904 34.985 47.521 29.4028 44.9653C28.6978 44.6428 28.0675 44.2165 27.489 43.7096Z" fill="#E5E5E5"/>
<path d="M27.4883 43.7096C28.425 44.1205 29.2583 44.7196 30.2181 45.1055C34.9057 46.993 40.6545 45.8985 44.2521 42.2734C46.39 40.119 47.7214 37.596 48.1447 34.6257C48.6026 31.4134 47.8727 28.42 46.1735 25.6608C46.1007 25.5437 46.0682 25.4016 46.0164 25.2729C48.4685 27.072 50.0106 29.499 50.7385 32.4176C52.5986 39.8829 48.0451 47.1446 40.4687 48.6903C35.4861 49.7041 30.3637 47.6765 27.4883 43.7096Z" fill="#CBCBCB"/>
<path d="M62.6781 38.9708C62.6781 38.0358 62.6934 37.0987 62.6704 36.1656C62.6608 35.7662 62.7892 35.6318 63.1991 35.6203C64.9251 35.5684 66.1262 36.684 66.1511 38.4102C66.1588 38.9132 66.1646 39.4182 66.1435 39.9213C66.0745 41.4938 64.5382 42.7054 63.0037 42.4404C62.6398 42.3771 62.68 42.1543 62.68 41.922C62.6762 40.937 62.6781 39.9539 62.6781 38.9708Z" fill="#FEC81D"/>
<path d="M61.5279 31.7129C61.5279 32.479 61.5183 33.2451 61.5317 34.0112C61.5374 34.3453 61.4225 34.4605 61.0815 34.4836C59.4589 34.5911 58.0682 33.3431 58.0529 31.7359C58.0375 30.0731 59.3881 28.8116 61.0566 28.8904C61.4474 28.9096 61.5413 29.0593 61.5336 29.4126C61.5164 30.1788 61.5279 30.9468 61.5279 31.7129Z" fill="#FEC81D"/>
<path d="M38.5324 30.653C38.5324 31.3481 38.6148 32.0547 38.5133 32.7344C38.3715 33.6868 38.7623 34.3434 39.404 34.954C39.5975 35.1383 39.7929 35.1038 39.9941 35.1038C41.1645 35.1115 42.3369 35.1076 43.5074 35.1076C43.9211 35.1076 44.3139 35.1767 44.3253 35.6913C44.3388 36.2289 43.9326 36.2635 43.5227 36.2616C42.3752 36.2578 41.2277 36.2712 40.0803 36.2539C39.7163 36.2481 39.4749 36.3307 39.2527 36.661C38.8753 37.2216 38.2987 37.452 37.6263 37.3042C36.9673 37.1583 36.521 36.7589 36.362 36.0811C36.1972 35.3783 36.3984 34.7754 36.9903 34.3818C37.3256 34.1591 37.3869 33.9133 37.383 33.5562C37.3715 31.6879 37.3715 29.8178 37.383 27.9495C37.3869 27.4772 37.2068 26.784 37.9673 26.809C38.6972 26.832 38.5152 27.5175 38.5248 27.9937C38.5439 28.8789 38.5324 29.7659 38.5324 30.653Z" fill="#68544F"/>
<path d="M26.4006 36.2597C25.9715 36.2769 25.5117 36.2424 25.5117 35.6952C25.5117 35.1671 25.9504 35.098 26.3891 35.0999C26.845 35.1019 27.3258 35.1326 27.3086 35.7201C27.2933 36.2712 26.8182 36.2731 26.4006 36.2597Z" fill="#68544F"/>
<path d="M37.3824 24.1228C37.3709 23.7023 37.3747 23.2472 37.9417 23.2472C38.549 23.2472 38.5317 23.733 38.5356 24.1727C38.5394 24.6124 38.4762 25.0291 37.9245 25.0118C37.3555 24.9945 37.3709 24.5375 37.3824 24.1228Z" fill="#68544F"/>
<path d="M37.3833 47.185C37.3507 46.7779 37.4312 46.3613 37.9197 46.3536C38.5001 46.3459 38.5384 46.8202 38.5384 47.281C38.5384 47.7188 38.4886 48.1642 37.9465 48.1527C37.345 48.1393 37.3699 47.6362 37.3833 47.185Z" fill="#68544F"/>
<path d="M49.4965 36.2558C49.0942 36.2501 48.6153 36.2981 48.6 35.722C48.5846 35.1191 49.0636 35.1095 49.508 35.0999C49.9467 35.0903 50.3719 35.1652 50.3739 35.6971C50.3758 36.2577 49.9218 36.2731 49.4965 36.2558Z" fill="#68544F"/>
<path d="M62.2274 40.7815C60.9497 40.6989 60.0608 40.3783 59.421 39.7657C58.8654 39.2224 58.6145 38.6387 58.4766 37.5653L60.4363 37.2581C60.5052 38.0511 60.6163 38.3583 60.9497 38.6924C61.2696 39.04 61.6719 39.207 62.2274 39.2492V35.8104C60.9363 35.5185 60.4631 35.3515 59.8788 34.9617C59.1566 34.4874 58.7256 33.6099 58.7256 32.6499C58.7256 31.5785 59.2122 30.701 60.0723 30.1442C60.7121 29.7544 61.3079 29.5739 62.2255 29.5182V28.7924H63.1699V29.5298C64.3231 29.6277 65.0185 29.9061 65.6564 30.5186C66.1851 31.0198 66.4208 31.4787 66.6008 32.3715L64.6967 32.6921C64.6124 32.1353 64.4879 31.8569 64.1967 31.5651C63.9189 31.2732 63.6277 31.133 63.168 31.0639V34.1553C64.5856 34.4471 65.2101 34.6852 65.7656 35.1019C66.53 35.7009 66.8633 36.4248 66.8633 37.4693C66.8633 38.6675 66.3767 39.5853 65.4591 40.1709C64.8193 40.5607 64.1814 40.7412 63.1661 40.7968V41.9527H62.2217V40.7815H62.2274ZM62.2274 31.062C61.7542 31.0889 61.4631 31.1868 61.1585 31.4249C60.8117 31.6899 60.6163 32.0796 60.6163 32.5117C60.6163 32.9571 60.8117 33.3335 61.1451 33.5696C61.4228 33.7367 61.6872 33.848 62.2293 33.9728V31.062H62.2274ZM63.1718 39.2646C64.2963 39.1667 64.9093 38.5676 64.9093 37.5653C64.9093 37.0776 64.7561 36.7013 64.4649 36.4517C64.2427 36.2712 63.9649 36.1733 63.1737 35.9774V39.2646H63.1718Z" fill="#68544F"/>
</g>
<defs>
<filter id="filter0_d_340_9" x="0" y="0" width="100" height="102" filterUnits="userSpaceOnUse" color-interpolation-filters="sRGB">
<feFlood flood-opacity="0" result="BackgroundImageFix"/>
<feColorMatrix in="SourceAlpha" type="matrix" values="0 0 0 0 0 0 0 0 0 0 0 0 0 0 0 0 0 0 127 0" result="hardAlpha"/>
<feOffset dy="2"/>
<feComposite in2="hardAlpha" operator="out"/>
<feColorMatrix type="matrix" values="0 0 0 0 0.176471 0 0 0 0 0.627451 0 0 0 0 0.890196 0 0 0 0.15 0"/>
<feBlend mode="normal" in2="BackgroundImageFix" result="effect1_dropShadow_340_9"/>
<feBlend mode="normal" in="SourceGraphic" in2="effect1_dropShadow_340_9" result="shape"/>
</filter>
<clipPath id="clip0_340_9">
<rect width="62" height="63" fill="white" transform="translate(20 19)"/>
</clipPath>
</defs>
</svg>
