<svg width="172" height="46" viewBox="0 0 172 46" fill="none" xmlns="http://www.w3.org/2000/svg">
<g clip-path="url(#clip0_486_2)">
<path d="M10.4488 45.85C15.1118 45.85 18.8918 45.0844 18.8918 44.1399C18.8918 43.1955 15.1118 42.4298 10.4488 42.4298C5.78592 42.4298 2.00586 43.1955 2.00586 44.1399C2.00586 45.0844 5.78592 45.85 10.4488 45.85Z" fill="#F9BD29"/>
<path d="M24.031 16.8412L13.6362 15.2117C11.9888 14.9521 10.4309 16.0623 10.1802 17.6918L7.4047 35.3746C7.14505 37.031 8.18364 38.1322 9.1506 38.562C10.1355 39.0007 11.6665 39.0544 12.7588 37.7293L25.9291 21.676C26.6096 20.8434 26.7887 19.751 26.4037 18.7483C26.0097 17.7276 25.1233 17.0113 24.031 16.8412Z" fill="#38A1DB"/>
<path d="M8.69376 17.459C9.07875 15.0147 11.3977 13.3405 13.8598 13.7344L17.4591 14.2985L19.0259 4.34238C19.59 0.77895 15.2118 -1.44147 12.6243 1.10127L1.11924 12.3825C-1.07432 14.5313 0.143329 18.2469 3.20537 18.7304L8.37144 19.5451L8.69376 17.459Z" fill="#45C0F0"/>
<path d="M61.9211 4.45876C62.4046 4.4498 62.8164 4.8348 62.8343 5.32723C62.9865 8.68473 62.7985 20.3778 62.7985 20.3778C62.7806 20.4225 62.4225 20.7717 61.9838 20.7717H54.3466C54.3466 20.7717 54.2123 20.7628 54.1496 20.8254C54.078 20.8881 54.0959 21.0403 54.0959 21.0403V23.8964L62.4941 23.9143L64.5713 23.8427C65.019 23.8338 65.395 24.2008 65.395 24.6485V26.9853C65.395 27.424 65.0458 27.7822 64.6071 27.7911C64.6071 27.7911 63.7386 27.8986 62.4941 27.9075C60.6676 27.9254 55.224 27.9075 54.2839 27.9075C54.1944 27.9075 54.1317 27.9792 54.1407 28.0687L54.257 35.2851C54.266 35.7417 53.8989 36.1088 53.4512 36.1088H50.2997C49.8431 36.1088 49.4849 35.7417 49.4939 35.2851L49.6103 28.0687C49.6103 27.9792 49.5565 27.9075 49.467 27.9075C48.5359 27.9075 43.1549 27.9344 41.3553 27.9075C40.1197 27.8896 39.2781 27.7553 39.2781 27.7553C38.8394 27.7464 38.4902 27.3793 38.4902 26.9495V24.6485C38.4902 24.1919 38.8573 23.8338 39.3139 23.8427L41.3553 23.9143H49.6461C49.6461 23.6636 49.6461 21.1746 49.6461 20.9239L49.476 20.7717C49.3238 20.7717 44.0861 20.709 41.8477 20.6822C41.3195 20.6732 40.9076 20.2435 40.9076 19.7152L40.9166 6.35686C40.9166 5.2377 41.6329 4.53038 42.179 4.53038L61.9211 4.45876ZM45.0172 7.90579C44.9277 7.90579 44.8471 7.96846 44.8292 8.05799V10.2963L58.8859 11.4424V8.50566C58.8859 8.18334 58.6263 7.92369 58.304 7.92369L45.0172 7.90579ZM44.8292 17.074H58.8859V14.5223L44.8292 13.5912V17.074ZM116.921 9.8218H107.44C106.921 9.8218 106.5 9.40099 106.5 8.8817V6.36581C106.5 5.84652 106.921 5.42572 107.44 5.42572H133.297C133.655 5.42572 133.951 5.72118 133.951 6.07931V9.1503C133.951 9.50843 133.655 9.80389 133.297 9.80389H121.685H116.921V9.8218ZM121.568 11.1558C121.702 11.2096 121.676 11.5408 121.676 11.5408L121.667 15.8026L123.332 14.1463L123.672 14.0746C126.654 15.4087 130.145 18.1305 132.617 20.4225L132.581 20.7628L129.617 24.1024L129.277 24.0665C127.048 21.8014 124.344 19.751 121.667 18.2021L121.828 34.9448C121.837 35.4462 121.434 35.8581 120.932 35.8581H117.647C117.145 35.8581 116.742 35.4462 116.751 34.9448L116.912 10.932C116.912 10.6455 117.145 10.4217 117.423 10.4217C117.423 10.4217 120.037 10.8067 121.013 11.0036C121.112 11.0305 121.371 11.0753 121.568 11.1558ZM139.045 9.48157L138.803 9.27565V5.60478L139.009 5.39886L142.644 5.5063H145.321L148.786 5.39886L148.992 5.56897V9.30251L148.786 9.47262L146.181 9.40099V14.5044L148.267 14.4328L148.473 14.6029V18.3364L148.267 18.5065L146.181 18.4349V24.738C147.058 24.4694 147.927 24.1919 148.759 23.9233C148.876 23.8875 148.876 23.8964 148.974 23.9412C149.064 23.986 149.091 24.0934 149.091 24.0934L148.983 26.9764C148.965 27.4599 148.679 27.8896 148.231 28.0687C146.235 28.8476 143.137 29.8235 139.833 30.7368L139.52 30.5667L138.266 26.8331L138.436 26.5287C139.6 26.3228 140.728 26.081 141.865 25.8393V18.4349L139.394 18.5065L139.153 18.3006V14.6297L139.358 14.4238L141.865 14.4954V9.39204L139.045 9.48157ZM159.333 4.44085V18.802C159.333 27.4778 158.062 31.7933 150.935 35.2224C150.729 35.3298 150.595 35.3925 150.425 35.3925C150.255 35.3925 150.085 35.2851 149.843 35.0881L146.826 32.3931C146.826 32.3931 146.718 32.2947 146.736 32.1962C146.763 32.0798 146.772 32.0619 146.879 32.0171C153.218 29.5191 154.803 26.851 154.803 19.9122V4.44085L155.045 4.19911H159.092L159.333 4.44085ZM153.612 11.4692V17.2262L153.746 21.3626C153.764 21.9267 153.317 22.3833 152.753 22.3833H150.478C149.914 22.3833 149.467 21.9177 149.485 21.3626L149.628 17.1546V11.505L149.87 11.2275H153.335L153.612 11.4692ZM167.526 17.3963L169.424 17.3247L169.665 17.5664V21.3L169.424 21.5417L167.526 21.4701V30.4503L170.856 30.3428L171.098 30.5846V34.3897L170.856 34.6315L166.979 34.524H162.145L158.85 34.6315L158.608 34.3897V30.5846L158.85 30.3428L162.145 30.4503H162.933V21.479L160.9 21.5507L160.658 21.3089V17.5754L160.9 17.3336L162.933 17.4053V9.62483L160.658 9.69645L160.417 9.45471V5.6406L160.658 5.39886L163.891 5.5063H166.872L170.31 5.39886L170.552 5.6406V9.44576L170.31 9.6875L167.526 9.61587V17.3963ZM102.498 9.33832L98.003 9.43681H96.3198V3.82307L96.087 3.58133H91.8342L91.6282 3.82307V19.2855H91.1179L87.5545 19.178L87.3486 19.4198L87.456 23.1891V27.5046L87.3933 31.0322C87.0173 29.7967 86.4353 28.3552 85.8175 27.2987L85.5042 27.2002L83.033 27.9881L82.9256 28.2298C83.5792 29.5997 84.0269 31.0054 84.4298 32.6886L84.7431 32.7871L87.3486 31.7933L87.4112 35.2582C87.4202 35.4999 87.6082 35.688 87.8499 35.688C87.8499 35.688 92.6221 35.7596 94.2158 35.7506C95.8811 35.7417 100.895 35.5984 100.895 35.5984C101.361 35.5984 101.746 35.2134 101.728 34.7479C101.728 34.7479 101.88 29.6445 101.898 27.9433C101.916 26.8689 101.925 24.7291 101.898 23.6636C101.871 22.6072 101.674 19.4287 101.674 19.4287L101.432 19.187L97.5554 19.2944H96.3198V13.5732H98.003L102.462 13.6717L102.704 13.43V9.51739L102.498 9.33832ZM97.5554 23.2249C97.6001 23.2249 97.6359 23.2518 97.6449 23.2966C97.6807 23.7353 97.8777 26.1258 97.8866 27.433C97.9045 29.5549 97.6896 31.7575 97.6449 32.1872C97.6359 32.232 97.6001 32.2588 97.5554 32.2588H91.5029C91.4492 32.2588 91.4134 32.223 91.4134 32.1693V23.3145C91.4134 23.2607 91.4492 23.2249 91.5029 23.2249H97.5554V23.2249ZM81.9676 28.1582L79.2637 28.776L79.1294 29.0177C79.5771 30.3876 79.9531 32.1425 80.2575 33.8525L80.5351 33.9868L83.418 33.1631L83.5882 32.9214C83.3106 31.5515 82.8003 29.4565 82.2541 28.2925L81.9676 28.1582ZM71.0356 28.5701C76.1748 28.0597 81.1081 27.3703 85.6743 26.5466C86.2921 26.4392 86.498 26.3407 86.498 25.893L86.5338 23.2518C84.6447 23.4935 82.6928 23.7353 80.6694 23.9054V22.4997H82.5854L86.0145 22.5982L86.2562 22.3565V19.3392L86.0145 19.0974L82.5854 19.2049H80.6694V17.7007H82.075L85.916 17.7186C86.0951 17.7186 86.2473 17.5754 86.2473 17.3963L86.3547 13.6896V8.10276L86.4622 4.74526L86.2204 4.50352L82.0124 4.64678H75.0914L71.2415 4.51248L70.9998 4.74526L71.1072 8.10276V13.6896L71.143 17.6112C71.143 17.656 71.1878 17.7007 71.2326 17.7007H75.3869H76.5508V19.2049H74.3573L70.9998 19.0974L70.7222 19.3034V22.3206L70.9998 22.5982L74.3573 22.4997H76.5508V24.2814C74.4916 24.4515 72.3338 24.5858 70.1403 24.6933L69.8985 24.935L70.758 28.4L71.0356 28.5701ZM81.0902 14.585L83.2211 9.42785V14.585H81.0902ZM78.9414 12.4809C78.0998 10.8514 77.0701 8.92647 76.4524 7.82521H80.9559C80.6425 8.46089 79.8367 10.6276 78.9414 12.4809ZM74.5274 14.585V9.97401L76.7389 14.585H74.5274ZM78.0998 29.1431L75.4585 29.7519L75.1094 29.7609L71.6623 29.152C71.6623 29.152 70.579 32.3663 69.7553 34.0853L69.8627 34.3271L73.3276 35.4641L73.6321 35.4283C74.3483 33.9242 74.8318 32.5095 75.2795 30.5219C75.557 31.8291 75.7629 33.4675 75.9689 34.8732L76.2464 35.0075L79.1652 34.3092L79.3353 34.0674C79.1652 32.6976 78.7623 30.5129 78.3505 29.3132L78.0998 29.1431Z" fill="#2468B3"/>
</g>
<defs>
<clipPath id="clip0_486_2">
<rect width="171.089" height="45.85" fill="white"/>
</clipPath>
</defs>
</svg>
