<svg width="86" height="86" viewBox="0 0 86 86" fill="none" xmlns="http://www.w3.org/2000/svg">
<circle cx="43" cy="43" r="43" fill="white"/>
<g clip-path="url(#clip0_405_328)">
<path d="M38.294 12C39.293 12.32 40.346 12.3561 41.3667 12.5857C45.7205 13.5655 50.1355 14.0283 54.5971 13.956C57.1218 13.9144 59.6338 13.6686 62.1297 13.3016C62.9868 13.175 63.5906 13.4263 64.1243 14.1024C67.4162 18.2783 69.2059 23.0599 69.8563 28.3096C70.3253 32.0986 70.1744 35.8642 69.4592 39.6099C69.3963 39.6731 69.3155 39.7129 69.2364 39.684C68.5769 39.4399 67.8816 39.3405 67.2077 39.1525C66.7783 38.5216 66.9472 37.7786 66.8519 37.0917C66.2841 33.0043 64.7873 29.3093 62.3094 26.0246C61.4559 24.8929 60.2645 24.5729 58.9259 24.9056C57.1972 25.334 55.4615 25.6974 53.6807 25.8366C51.9845 25.9703 50.3008 25.9414 48.6081 25.7516C46.4968 25.5148 44.4699 24.949 42.4592 24.3072C40.8366 23.7902 39.178 23.4503 37.4908 23.2497C36.4234 23.0599 35.3417 23.1159 34.2779 23.1864C31.9276 23.3401 29.6797 23.933 27.5647 25.0122C24.041 26.8073 21.5272 29.5226 20.0681 33.2194C19.9837 33.4346 19.9819 33.731 19.6512 33.7636C19.3601 33.2375 19.4769 32.6608 19.5147 32.1167C19.6261 30.5657 19.7177 29.011 20.0717 27.4834C20.857 24.1047 22.2531 21.0569 24.5963 18.4591C26.8154 15.9988 29.5072 14.3049 32.5853 13.1714C34.0102 12.6472 35.4603 12.2603 36.9715 12.1193C37.0595 12.1103 37.126 12.0705 37.1763 12C37.5501 12 37.922 12 38.294 12Z" fill="#CB8663"/>
<path d="M37.1763 12C37.1727 12.0832 37.4997 12.2205 37.1475 12.2477C36.0568 12.3308 34.9895 12.564 33.9509 12.884C31.0435 13.7752 28.3967 15.1365 26.0967 17.1883C23.5738 19.4389 21.874 22.203 20.8084 25.3738C20.1957 27.1978 19.8489 29.0851 19.7644 31.0248C19.7249 31.9341 19.6494 32.8434 19.662 33.7545C19.7914 33.8937 19.7842 34.0619 19.7357 34.2209C19.299 35.6328 19.1301 37.0935 18.9918 38.5559C18.9451 39.0567 18.7294 39.3062 18.2191 39.3134C17.8651 39.3188 17.5381 39.4634 17.2057 39.5719C16.999 39.6388 16.7906 39.787 16.566 39.6135C16.0682 37.1857 15.7574 34.7325 15.8257 32.2505C15.946 27.8143 17.0134 23.6673 19.671 20.0373C22.6377 15.9807 26.6735 13.6161 31.4963 12.4971C32.3498 12.3001 33.2339 12.2802 34.0713 12C35.1063 12 36.1413 12 37.1763 12Z" fill="#CC7859"/>
<path d="M37.435 23.1123C39.559 23.2244 41.5751 23.8354 43.5822 24.4735C46.5632 25.4208 49.6108 25.8709 52.7355 25.7336C54.8469 25.6395 56.9097 25.2473 58.9564 24.7266C60.4244 24.3524 61.7002 24.8839 62.5933 26.1023C64.8538 29.1882 66.2895 32.6211 66.9256 36.3939C67.0765 37.2923 67.143 38.2053 67.2472 39.1128C67.5886 39.8702 67.4377 40.671 67.3892 41.443C67.2688 43.3122 66.9579 45.1561 66.4422 46.9602C66.2769 47.5369 66.1349 48.1262 65.7558 48.6143C65.4737 48.8674 65.4755 49.2488 65.3335 49.5634C63.8745 52.7993 61.8601 55.6356 59.2133 57.9893C56.6186 60.2942 53.6609 61.9809 50.3439 63.0131C50.2451 63.0438 50.1534 63.0926 50.0582 63.1342C49.8426 63.4379 49.4814 63.409 49.1831 63.5283C48.0708 63.8411 46.9334 64.0128 45.7906 64.1466C45.4563 64.1863 45.1958 64.2749 45.0502 64.5949C44.752 64.7214 44.7825 64.4069 44.6567 64.302C44.3189 64.0417 43.9002 64.1158 43.5265 64.0634C38.1214 63.3042 33.4783 61.021 29.579 57.165C26.1056 53.7303 23.8901 49.614 22.9449 44.8361C22.201 41.0742 22.1758 37.296 23.4516 33.619C24.9502 29.2984 27.8684 26.2632 31.994 24.385C33.5304 23.6854 35.1296 23.2045 36.8223 23.0834C37.0307 23.0689 37.2356 23.0255 37.435 23.1123Z" fill="#FBDED5"/>
<path d="M37.435 23.1123C34.8601 23.3889 32.4433 24.1446 30.2151 25.4968C27.6007 27.0822 25.6169 29.2569 24.2728 31.9993C23.3744 33.8359 22.9072 35.8028 22.7455 37.8546C22.6628 38.8922 22.5999 39.9281 22.6502 40.9621C22.8389 44.8054 23.7966 48.4245 25.6852 51.8032C26.9987 54.1515 28.6662 56.1943 30.6464 57.9677C33.7532 60.7498 37.3524 62.5992 41.4295 63.5193C42.5723 63.7778 43.7331 63.8574 44.8724 64.105C44.6621 64.3219 44.3854 64.3002 44.1213 64.3039C43.5876 64.3111 43.0503 64.3346 42.5184 64.2984C41.9704 64.2623 41.5122 64.3581 41.2337 64.886C40.9174 64.1701 40.2651 64.1448 39.6219 64.0779C38.6803 63.9821 37.7621 63.7543 36.8421 63.5374C36.5366 63.4325 36.1557 63.4904 35.967 63.1306C31.1082 61.632 27.085 58.8716 23.8955 54.909C22.528 53.2097 21.4176 51.3332 20.6144 49.2904C20.4347 48.8313 20.2999 48.5927 19.662 48.7084C17.6531 49.0735 15.9802 48.3595 14.8517 46.6547C13.6766 44.8759 13.7538 43.0049 14.8553 41.2007C15.2686 40.5246 15.9101 40.0474 16.566 39.6099C17.2075 39.4147 17.8112 39.0712 18.5156 39.1056C18.7276 39.1164 18.7833 38.97 18.7959 38.782C18.9181 37.0754 19.184 35.3942 19.662 33.751C20.3017 32.1511 21.0348 30.6019 22.1094 29.2424C24.3429 26.4187 27.2323 24.6055 30.6626 23.6239C32.7488 23.0274 34.8799 22.937 37.0289 22.9966C37.1745 23.0057 37.3218 22.9984 37.435 23.1123Z" fill="#FBC0AC"/>
<path d="M49.2388 63.3729C49.4886 63.2066 49.7887 63.2174 50.0618 63.1324C51.3825 64.2153 52.5667 65.4174 53.4777 66.8853C55.129 69.5464 55.9143 72.4569 56.049 75.568C56.0634 75.8862 55.9933 76.0019 55.6519 75.9982C53.5208 75.9802 51.3879 75.982 49.2568 75.9766C49.0088 75.756 49.0286 75.4541 49.0286 75.1649C49.0232 71.5078 49.0232 67.8489 49.0268 64.1918C49.0268 63.9044 49.0178 63.6079 49.2388 63.3729Z" fill="#4B3F4E"/>
<path d="M35.9688 63.1342C36.2437 63.2137 36.5169 63.295 36.7918 63.3746C37.0146 63.6078 37.0038 63.9061 37.0056 64.1953C37.0092 67.8524 37.011 71.5095 37.0056 75.1666C37.0056 75.4558 37.02 75.7559 36.7828 75.9819C34.6715 75.9855 32.5601 75.9837 30.4488 75.9982C30.1343 76 29.9618 75.9765 29.9834 75.5733C30.2026 71.1949 31.5754 67.3101 34.7577 64.1935C35.1386 63.8193 35.5627 63.4867 35.9688 63.1342Z" fill="#4B3F4E"/>
<path d="M36.781 75.9819C36.7846 71.7789 36.7882 67.5759 36.79 63.3746C38.0712 63.6151 39.3362 63.9531 40.6461 64.0182C41.2157 64.0471 41.1636 64.481 41.1744 64.8678C41.3433 65.054 41.3505 65.2945 41.3199 65.5114C41.2031 66.3556 41.4763 67.0842 41.9255 67.7711C41.8878 69.1576 41.6578 70.5279 41.5374 71.9072C41.4439 72.9792 41.302 74.0458 41.2103 75.1178C41.1834 75.4306 41.1636 75.7397 40.9282 75.9819C39.5464 75.9801 38.1646 75.9819 36.781 75.9819Z" fill="#EBE9EB"/>
<path d="M49.2388 63.3728C49.246 67.5758 49.2514 71.7771 49.2586 75.9801C47.8732 75.9801 46.4878 75.9801 45.1024 75.9801C44.6675 75.4685 44.8167 74.8213 44.7466 74.241C44.5058 72.2597 44.3351 70.2694 44.1015 68.2863C44.0817 68.12 44.0835 67.9537 44.1213 67.7892C44.1626 67.6246 44.2578 67.4891 44.3782 67.3788C44.743 67.048 44.8221 66.6286 44.8346 66.1549C44.849 65.6524 44.6945 65.1281 44.9802 64.6509C44.9424 64.1754 45.1042 64.0001 45.6324 63.973C46.8525 63.9133 48.0421 63.6132 49.2388 63.3728Z" fill="#EBE9EB"/>
<path d="M65.7576 48.6125C66.0415 47.6002 66.3596 46.5969 66.6004 45.5737C67.0999 43.4514 67.2994 41.2929 67.2472 39.1109C68.0397 39.0314 68.7405 39.3622 69.4592 39.6099C70.638 40.3836 71.5418 41.3761 71.8671 42.7951C72.5391 45.7346 70.5607 48.4697 67.7648 48.7589C67.0783 48.8312 66.4189 48.7716 65.7576 48.6125Z" fill="#FBC0AC"/>
<path d="M44.2363 67.7476C44.5238 70.4918 44.8131 73.2342 45.1006 75.9783C43.7098 75.9783 42.319 75.9783 40.9282 75.9783C41.2175 73.2342 41.5068 70.4918 41.7961 67.7476C41.9686 67.5813 42.1555 67.6482 42.3046 67.7585C42.8203 68.1417 43.3217 68.1598 43.8392 67.7693C43.9524 67.6844 44.0979 67.6247 44.2363 67.7476Z" fill="#3D3340"/>
<path d="M31.906 50.3317C31.9941 51.2319 30.7991 52.3509 29.9402 52.604C28.332 53.0794 26.598 51.8538 26.5028 50.1382C26.4003 48.2925 27.0634 46.7758 28.5314 45.6297C28.9753 45.2826 29.3329 45.2356 29.8306 45.6225C31.1765 46.6673 31.7856 48.0376 31.906 50.3317Z" fill="#A7C2D9"/>
<path d="M44.2363 67.7476C44.0296 67.744 43.9002 67.8994 43.7565 68.0043C43.2983 68.3369 42.8581 68.3405 42.4016 68.0025C42.2255 67.8723 42.0566 67.6951 41.7979 67.7476C40.8545 66.9467 41.2049 65.8657 41.1762 64.8642C41.16 64.17 41.5427 64.0706 42.1447 64.1067C43.0503 64.1592 43.9631 64.1086 44.8742 64.1031C44.9101 64.2857 44.946 64.4665 44.9838 64.6491C44.991 65.0197 44.9622 65.3939 45.0143 65.759C45.1275 66.5816 44.9514 67.2649 44.2363 67.7476Z" fill="#5D5360"/>
<path d="M43.0503 45.4815C42.4681 45.4634 42.0207 45.6822 41.611 46.0365C41.0324 46.5336 40.461 46.5372 40.0891 46.0799C39.7315 45.6406 39.8249 45.1073 40.3514 44.6029C41.8716 43.1459 44.3872 43.2073 45.8247 44.7367C46.2326 45.1706 46.265 45.7527 45.902 46.1341C45.5516 46.5029 45.0089 46.53 44.5669 46.154C44.1087 45.7689 43.6433 45.4453 43.0503 45.4815Z" fill="#4B3F4E"/>
<path d="M29.7372 40.9494C29.7372 40.5969 29.7048 40.2407 29.7444 39.8937C29.8055 39.3604 30.0984 39.0024 30.6662 38.9898C31.2232 38.9789 31.5628 39.2863 31.6221 39.8394C31.7048 40.6023 31.6976 41.3706 31.6275 42.1353C31.5772 42.683 31.2556 42.9994 30.6913 43.0102C30.1666 43.0211 29.7875 42.6541 29.7408 42.0702C29.712 41.6996 29.7354 41.3236 29.7354 40.9512C29.7354 40.9494 29.7354 40.9494 29.7372 40.9494Z" fill="#4C404E"/>
<path d="M56.2952 41.0163C56.2952 41.3688 56.324 41.7231 56.2898 42.0738C56.2377 42.6053 55.9682 42.9686 55.3968 43.0084C54.8541 43.0464 54.466 42.73 54.4049 42.1298C54.3276 41.367 54.324 40.5969 54.4103 39.834C54.4732 39.2808 54.8128 38.9771 55.3698 38.9898C55.9376 39.0042 56.2287 39.364 56.2862 39.8973C56.3275 40.266 56.2952 40.6439 56.2952 41.0163Z" fill="#4C404E"/>
</g>
<defs>
<clipPath id="clip0_405_328">
<rect width="58" height="64" fill="white" transform="translate(14 12)"/>
</clipPath>
</defs>
</svg>
