<svg width="120" height="122" viewBox="0 0 120 122" fill="none" xmlns="http://www.w3.org/2000/svg">
<g filter="url(#filter0_d_343_486)">
<circle cx="60" cy="60" r="60" fill="white"/>
</g>
<g clip-path="url(#clip0_343_486)">
<path d="M39.2004 63.9203C36.244 63.4613 33.2894 62.9832 30.3296 62.5486C28.7023 62.3096 27.6279 61.4615 27.1221 59.8944C27.1046 59.8403 27.0419 59.8019 27 59.7548C27 59.2313 27 58.7077 27 58.1842C28.7808 54.8389 31.104 51.8409 33.1098 48.6405C33.4673 48.0681 33.8528 47.5149 34.2243 46.9512C35.3074 45.3109 36.8772 44.5989 38.7957 44.4663C42.223 44.2289 45.6485 43.948 49.0758 43.688C49.1612 43.681 49.2484 43.6967 49.3357 43.7019C49.4019 43.9916 49.1665 44.1295 49.0235 44.3057C46.6113 47.2915 44.5096 50.478 42.7846 53.9088C42.598 54.2788 42.4497 54.6644 42.2928 55.0466C41.0858 57.6293 40.1823 60.3132 39.5701 63.0983C39.5073 63.388 39.5911 63.7684 39.2004 63.9203Z" fill="#2DA0E3"/>
<path d="M60.2262 93C60.139 92.8081 59.9314 92.8342 59.7814 92.7749C58.4785 92.2514 57.6971 91.3021 57.4791 89.9217C56.9995 86.8923 56.5408 83.8594 56.0733 80.8265C56.1832 80.5158 56.478 80.528 56.7204 80.4774C59.5791 79.8859 62.3157 78.9243 64.9738 77.7325C68.8109 75.9752 72.3236 73.6996 75.5974 71.0419C75.7945 70.8813 75.9497 70.5602 76.2986 70.7644C76.0055 74.4552 75.716 78.1478 75.4143 81.8386C75.2835 83.4353 74.5457 84.7267 73.2341 85.6114C69.8243 87.9114 66.3778 90.1591 62.9505 92.4346C62.5494 92.6999 62.0715 92.7627 61.6634 92.9983C61.1855 93 60.7058 93 60.2262 93Z" fill="#2DA0E3"/>
<path d="M27 90.5133C27.3209 89.8868 27.8093 89.3982 28.3029 88.9061C32.0999 85.1176 35.8865 81.3203 39.68 77.5283C40.6829 76.5266 41.7521 76.4882 42.7183 77.4044C42.6608 77.6818 42.4358 77.8371 42.2526 78.0204C37.5853 82.6937 32.9162 87.3652 28.2453 92.035C28.0622 92.2182 27.9035 92.4364 27.6401 92.5219C27.0959 92.4224 27.1919 91.8936 26.9983 91.5603C27 91.2113 27 90.8623 27 90.5133Z" fill="#FEB200"/>
<path d="M27.6488 92.4747C27.7744 92.3264 27.8913 92.1676 28.0273 92.0297C32.7732 87.2779 37.5208 82.5279 42.2701 77.7795C42.4079 77.6417 42.5683 77.5283 42.7166 77.4044C43.4526 78.2856 43.4387 79.3239 42.6329 80.1528C41.6021 81.2156 40.5434 82.2521 39.4969 83.2992C36.633 86.1646 33.7673 89.0265 30.9104 91.8971C30.4796 92.3299 30.0383 92.7347 29.4837 92.9983C29.1349 92.9983 28.786 92.9983 28.4372 92.9983C28.1791 92.8203 27.6593 93.0314 27.6488 92.4747Z" fill="#C68400"/>
<path d="M76.2986 70.7644C75.3445 71.4799 74.3974 72.2041 73.4347 72.9056C70.8132 74.8199 68.0644 76.5196 65.0836 77.8232C64.8482 77.79 64.7086 77.612 64.5569 77.4584C61.025 73.9282 57.4966 70.3962 53.9681 66.8642C53.8443 66.7403 53.7152 66.6216 53.6333 66.4645C53.6106 66.4052 53.6019 66.3441 53.6019 66.2796C53.6612 65.9794 53.8984 65.8049 54.0955 65.606C57.8349 61.8593 61.5779 58.1162 65.3208 54.3747C65.4883 54.2072 65.6365 54.01 65.8807 53.9385C65.9487 53.9332 66.0115 53.9472 66.0726 53.9769C67.5795 55.3747 69.3115 56.3362 71.3661 56.6328C77.0974 57.46 81.7438 53.483 82.4275 48.4782C82.8531 45.3615 81.9392 42.6688 79.8078 40.3758C79.7241 40.2694 79.663 40.1525 79.677 40.0111C83.8699 35.8107 88.0681 31.6104 92.2698 27.417C92.4425 27.246 92.6082 26.9825 92.9291 27.1587C93.7558 27.8532 93.9215 28.8427 93.9512 29.8095C94.0209 32.1356 94.0419 34.4688 93.8291 36.788C93.414 41.3129 92.5907 45.7576 91.0803 50.0557C89.4443 54.7115 87.0705 58.9555 83.9554 62.7859C82.4328 64.6601 80.8351 66.4645 79.1014 68.1433C78.184 69.035 77.1497 69.8028 76.2986 70.7644Z" fill="#D6D5FA"/>
<path d="M65.8546 53.9909C65.6836 54.1863 65.5214 54.3922 65.3383 54.5754C61.6267 58.2924 57.9134 62.0077 54.2019 65.7247C54.0187 65.9079 53.8565 66.1121 53.6838 66.3075C53.3612 66.3738 53.2182 66.1121 53.0437 65.9376C49.5572 62.4579 46.0758 58.973 42.5945 55.4881C42.4253 55.3188 42.2474 55.1548 42.1759 54.914C43.8084 51.2406 45.9817 47.9023 48.4688 44.7595C48.7514 44.4017 49.0461 44.0545 49.3357 43.7037C51.1757 41.5608 53.117 39.5278 55.2518 37.6658C57.2698 35.9067 59.3872 34.2978 61.6424 32.8651C64.0546 31.3329 66.6325 30.1393 69.3028 29.1324C72.376 27.9737 75.5556 27.2041 78.7875 26.6911C80.6624 26.3944 82.5548 26.185 84.463 26.0873C86.2019 25.9983 87.9391 25.9948 89.6745 26.0035C90.6896 26.0087 91.7221 26.096 92.5663 26.7923C92.6971 26.9005 92.8087 27.0366 92.9273 27.1587C92.6047 27.1832 92.4529 27.4502 92.2576 27.6456C88.2949 31.6052 84.3356 35.5682 80.3712 39.5295C80.1758 39.725 80.0223 39.9902 79.6962 40.0042C79.4171 40.0478 79.2514 39.8454 79.0753 39.697C77.3765 38.2608 75.3794 37.5332 73.1957 37.4511C70.9318 37.3656 68.8388 38.0427 67.0336 39.4353C65.1569 40.8837 63.9063 42.7683 63.4511 45.1172C62.8616 48.1641 63.5366 50.9108 65.5022 53.3295C65.6644 53.5232 65.9156 53.6767 65.8546 53.9909Z" fill="#F0F0FA"/>
<path d="M42.1759 54.9139C42.5073 55.2263 42.8439 55.5317 43.1666 55.8545C46.4962 59.1806 49.8205 62.5102 53.1501 65.838C53.3176 66.0056 53.5059 66.1522 53.6838 66.3075C53.6891 66.3441 53.6961 66.3825 53.703 66.4191C53.6629 66.653 53.4798 66.7874 53.328 66.9392C51.1321 69.1414 48.9328 71.3402 46.7334 73.5373C46.5816 73.6891 46.4473 73.8706 46.2154 73.9142C44.1555 71.8585 42.0835 69.8133 40.0393 67.7437C39.1725 66.8659 38.862 65.7927 39.1201 64.5676C39.1637 64.3565 39.1742 64.1366 39.2004 63.922C39.8283 61.006 40.6916 58.1667 41.9143 55.441C41.9963 55.2612 42.0887 55.0884 42.1759 54.9139Z" fill="#637176"/>
<path d="M46.2171 73.9125C46.4177 73.6856 46.606 73.4483 46.8188 73.2354C48.9328 71.1152 51.0484 68.9984 53.1676 66.8834C53.335 66.7159 53.5251 66.5728 53.7048 66.4192C55.9879 68.6895 58.2762 70.9529 60.5506 73.2302C62.0715 74.7519 63.5732 76.2928 65.0854 77.8249C62.5511 79.0709 59.8843 79.933 57.1373 80.5629C56.7815 80.645 56.4274 80.7392 56.0733 80.8264C55.5989 80.8701 55.1262 80.9329 54.6518 80.9556C53.7832 80.9992 53.0019 80.7078 52.3966 80.111C50.3176 78.0605 48.2735 75.9804 46.2171 73.9125Z" fill="#464E54"/>
<path d="M27.1046 79.6677C27.1081 79.3519 27.1134 79.0377 27.1169 78.7219C27.2215 78.3292 27.4605 78.0273 27.7413 77.7446C29.7906 75.6977 31.8348 73.6455 33.8859 71.6003C34.7929 70.6963 35.9737 70.6405 36.7847 71.445C37.5888 72.2425 37.5469 73.4692 36.6644 74.3557C34.6063 76.4254 32.5499 78.495 30.4726 80.5455C29.2622 81.7408 27.5878 81.2906 27.1046 79.6677Z" fill="#FEB200"/>
<path d="M41.1486 92.8953C40.873 92.8935 40.5974 92.8935 40.3236 92.8918C38.7382 92.4224 38.2533 90.7401 39.4027 89.5727C41.4939 87.4454 43.6079 85.3409 45.7253 83.2416C46.545 82.4284 47.7712 82.4336 48.5368 83.2032C49.2955 83.9675 49.3252 85.1524 48.5281 85.9621C46.4055 88.119 44.2549 90.2498 42.1131 92.3875C41.848 92.6545 41.5306 92.8412 41.1486 92.8953Z" fill="#C68400"/>
<path d="M65.8546 53.9908C64.4313 52.4237 63.5139 50.6228 63.1599 48.513C62.2721 43.229 66.3935 37.8647 71.7202 37.3534C74.7934 37.0584 77.4201 37.9746 79.6997 40.0041C79.7572 40.0826 79.8148 40.1594 79.8741 40.2379C79.0561 41.2588 78.1927 42.236 77.0869 42.962C77.0207 42.9637 76.9561 42.9533 76.8933 42.9323C76.2271 42.5292 75.6375 42.0197 74.8823 41.7404C71.1708 40.3636 67.222 43.0894 67.1889 47.0472C67.1766 48.4223 67.6109 49.6037 68.4359 50.6699C68.5563 50.8253 68.6784 50.9788 68.7603 51.1568C68.7865 51.2179 68.7952 51.2825 68.79 51.3488C68.0609 52.3278 67.1313 53.1148 66.2627 53.9594C66.1842 54.0362 66.0726 54.0623 65.9627 54.0048C65.9261 54.0013 65.8912 53.996 65.8546 53.9908Z" fill="#637176"/>
<path d="M65.961 54.003C66.7668 53.3678 67.4173 52.5703 68.1656 51.874C68.3557 51.6978 68.558 51.5338 68.7534 51.3645C69.0725 51.3383 69.2714 51.5721 69.4946 51.7309C72.0987 53.5929 76.1922 53.1933 78.0201 49.6124C79.0299 47.6353 78.798 45.6424 77.5683 43.7804C77.3817 43.496 77.073 43.2761 77.0712 42.8887C77.877 42.2413 78.5398 41.4455 79.2915 40.7405C79.4782 40.566 79.677 40.4037 79.8724 40.2362C82.0927 42.4943 83.0083 45.2079 82.602 48.335C82.0578 52.5232 79.1572 55.7865 75.0445 56.6642C71.5911 57.4024 68.49 56.5979 65.961 54.003Z" fill="#464E54"/>
<path d="M77.073 42.8887C78.5102 44.5273 79.152 46.3824 78.5921 48.555C77.502 52.778 72.4841 54.3852 69.0568 51.6123C68.9557 51.5303 68.8545 51.4483 68.7534 51.3663C68.7464 51.3226 68.7411 51.2807 68.7342 51.2371C68.6627 50.9422 68.8964 50.8043 69.0568 50.6438C71.5161 48.1745 73.9806 45.7088 76.4468 43.2465C76.5986 43.0964 76.7346 42.9114 76.9805 42.9009C77.0119 42.8975 77.0433 42.894 77.073 42.8887Z" fill="#3777D3"/>
<path d="M76.9805 42.8992C74.4079 45.4871 71.8353 48.075 69.2644 50.6647C69.0813 50.8497 68.9121 51.0451 68.7359 51.2371C67.0947 49.5688 66.6098 47.5812 67.2796 45.3684C67.9633 43.1121 69.5504 41.7544 71.8545 41.3164C73.8166 40.9412 75.5381 41.5049 76.9805 42.8992Z" fill="#629CF9"/>
</g>
<defs>
<filter id="filter0_d_343_486" x="0" y="0" width="120" height="122" filterUnits="userSpaceOnUse" color-interpolation-filters="sRGB">
<feFlood flood-opacity="0" result="BackgroundImageFix"/>
<feColorMatrix in="SourceAlpha" type="matrix" values="0 0 0 0 0 0 0 0 0 0 0 0 0 0 0 0 0 0 127 0" result="hardAlpha"/>
<feOffset dy="2"/>
<feComposite in2="hardAlpha" operator="out"/>
<feColorMatrix type="matrix" values="0 0 0 0 0 0 0 0 0 0 0 0 0 0 0 0 0 0 0.15 0"/>
<feBlend mode="normal" in2="BackgroundImageFix" result="effect1_dropShadow_343_486"/>
<feBlend mode="normal" in="SourceGraphic" in2="effect1_dropShadow_343_486" result="shape"/>
</filter>
<clipPath id="clip0_343_486">
<rect width="67" height="67" fill="white" transform="translate(27 26)"/>
</clipPath>
</defs>
</svg>
