<svg width="120" height="122" viewBox="0 0 120 122" fill="none" xmlns="http://www.w3.org/2000/svg">
<g filter="url(#filter0_d_343_504)">
<circle cx="60" cy="60" r="60" fill="white"/>
</g>
<g clip-path="url(#clip0_343_504)">
<path d="M92 64.03C91.6576 65.0412 91.6438 66.1112 91.43 67.1459C89.1065 78.4204 79.8954 87.4337 68.5053 89.5149C66.7102 89.8435 64.8973 90.0802 63.0586 89.9707C62.928 89.8474 62.8568 89.691 62.8548 89.5188C62.837 88.267 62.7321 87.0132 62.9142 85.7652C63.0784 85.4053 63.4169 85.4132 63.7375 85.4053C69.7245 85.2449 74.9574 83.1481 79.363 79.195C83.8894 75.1323 86.5553 70.0564 87.2124 64.0045C87.8715 57.9389 86.4425 52.3779 82.8305 47.4449C78.5951 41.6609 72.8496 38.3103 65.6335 37.4985C65.018 37.43 64.4065 37.3694 63.787 37.3694C63.4703 37.3694 63.1299 37.3929 62.934 37.0525C62.744 35.6911 62.7974 34.3278 62.8983 32.9645C63.0072 32.6378 63.3159 32.5869 63.5831 32.4794C64.454 32.1351 65.0457 31.5307 65.0477 30.5859C65.0497 29.6412 64.4639 29.0329 63.593 28.6866C63.3258 28.581 63.0151 28.5302 62.9003 28.2035C62.7459 26.979 62.835 25.7526 62.8429 24.5262C62.8449 24.3325 62.9043 24.1448 63.0567 24.0039C66.4015 23.8494 69.6057 26.76 69.7304 30.0559C69.768 31.0417 69.7067 32.0099 69.299 32.9234C69.1446 33.2696 69.198 33.4241 69.5919 33.5141C74.9455 34.721 79.5471 37.2833 83.446 41.0858C83.7429 41.3753 83.9092 41.3812 84.2199 41.1191C85.4589 40.0687 86.7295 39.0555 87.9684 38.0051C88.2812 37.7411 88.4533 37.7254 88.7205 38.0618C89.4073 38.9264 90.1178 39.7734 90.856 40.5968C91.1668 40.9431 91.1905 41.1269 90.7927 41.4379C89.5716 42.3925 88.4058 43.4174 87.1827 44.37C86.7315 44.7221 86.7493 44.947 87.06 45.4028C89.7794 49.395 91.4181 53.7804 91.8595 58.5864C91.8694 58.7018 91.8496 58.8348 91.998 58.8895C91.998 59.134 91.998 59.3785 91.998 59.623C91.8753 59.9653 91.8753 60.3076 91.998 60.65C91.998 61.1879 91.998 61.7258 91.998 62.2637C91.8773 62.5571 91.8773 62.8505 91.998 63.1439C92 63.4431 92 63.7365 92 64.03Z" fill="#465A61"/>
<path d="M34.8436 54.7936C28.5618 54.7917 22.2819 54.7897 16 54.7878C16 53.3207 16 51.8537 16 50.3867C22.7668 50.3906 29.5335 50.3926 36.3003 50.3965C36.4527 50.6077 36.3597 50.821 36.2845 51.0224C35.8847 52.0963 35.4988 53.176 35.2118 54.287C35.1564 54.4983 35.093 54.7154 34.8436 54.7936Z" fill="#FEB200"/>
<path d="M92 60.6558C91.7684 60.3135 91.7625 59.9712 92 59.6289C92 59.9712 92 60.3135 92 60.6558Z" fill="#3E444A"/>
<path d="M92 63.1497C91.7704 62.8563 91.7783 62.5629 92 62.2695C92 62.5629 92 62.8563 92 63.1497Z" fill="#42494E"/>
<path d="M34.8436 54.7936C35.2771 53.311 35.7323 51.8361 36.3003 50.3965C37.1335 48.5715 38.0459 46.7876 39.2354 45.1602C39.5184 44.7749 39.2552 44.6595 39.0395 44.4815C37.8084 43.4644 36.5853 42.4355 35.3345 41.4399C34.9822 41.1602 34.9485 40.9861 35.2612 40.6418C36.0015 39.8242 36.71 38.9753 37.3948 38.1107C37.6837 37.745 37.8639 37.7626 38.2043 38.054C39.3799 39.0614 40.5971 40.0198 41.7767 41.0233C42.1468 41.3382 42.3546 41.4301 42.7761 41.0174C46.6217 37.2599 51.1896 34.764 56.4581 33.5532C57.0499 33.4182 56.9272 33.2011 56.7926 32.8197C55.2469 28.4656 58.4967 23.9022 63.0626 24.0059C63.0626 25.4573 63.0626 26.9086 63.0626 28.358C62.8924 28.6025 62.5935 28.6064 62.3541 28.7179C61.5505 29.0915 61.0399 29.6862 61.0399 30.5801C61.0399 31.474 61.5505 32.0686 62.3541 32.4422C62.5935 32.5537 62.8924 32.5596 63.0626 32.8021C63.0586 34.2515 63.0567 35.7029 63.0527 37.1523C63.029 37.1836 63.0052 37.2129 62.9834 37.2442C62.2967 37.4829 61.5683 37.4261 60.8618 37.4907C54.9777 38.0227 49.9427 40.3758 45.8062 44.4893C41.7252 48.5461 39.3918 53.4733 38.899 59.2103C38.3171 65.9821 40.2448 71.9675 44.7316 77.1138C48.5969 81.5481 53.5131 84.1574 59.3477 85.1041C60.5194 85.2938 61.7049 85.3408 62.8805 85.4699C62.9557 85.5012 63.0131 85.552 63.0527 85.6224C63.0567 87.0719 63.0586 88.5213 63.0626 89.9707C56.4898 89.9668 50.5978 87.9658 45.3847 84.0263C41.3116 80.9495 38.3448 77.014 36.3043 72.3822C36.1063 72.2609 36.0015 72.0731 35.9203 71.8658C35.4928 70.7821 35.1108 69.6828 34.8377 68.5523C34.7922 68.3645 34.7486 68.1728 34.8496 67.985C34.5863 66.5258 34.3251 65.0666 34.1786 63.5898C34.0183 63.3669 33.9134 63.1263 33.9055 62.8485C33.8778 61.8764 33.8778 60.9023 33.9055 59.9301C33.9134 59.6524 34.0183 59.4098 34.1786 59.1888C34.3963 57.7237 34.62 56.2587 34.8436 54.7936Z" fill="#596C76"/>
<path d="M34.1727 59.1888C34.0935 60.6558 34.0916 62.1248 34.1747 63.5918C29.874 63.5918 25.5712 63.58 21.2705 63.6055C20.653 63.6094 20.3858 63.5096 20.4373 62.8192C20.5066 61.8705 20.5066 60.9101 20.4373 59.9634C20.3858 59.2748 20.6491 59.1731 21.2685 59.177C25.5693 59.2005 29.87 59.1888 34.1727 59.1888Z" fill="#FEB200"/>
<path d="M34.8436 67.985C35.2771 69.4677 35.7343 70.9425 36.3003 72.3822C32.6943 72.3861 29.0882 72.3802 25.4822 72.3998C25.0309 72.4017 24.8825 72.2805 24.8944 71.8247C24.926 70.7763 24.9478 69.7239 24.8884 68.6775C24.8528 68.0476 25.122 67.9772 25.6544 67.9792C28.7201 67.9987 31.7819 67.987 34.8436 67.985Z" fill="#FEB200"/>
<path d="M63.0488 37.1542C67.3752 37.1699 71.4562 38.1675 75.181 40.3406C81.9043 44.2624 86.015 50.0268 87.254 57.6729C89.3341 70.5063 80.5703 82.8058 67.7513 85.1647C66.1917 85.4523 64.6281 85.597 63.0468 85.6205L63.0606 85.5638C62.8014 85.3134 62.8192 84.9848 62.8172 84.6699C62.8093 78.1191 62.8093 71.5665 62.8172 65.0158C62.8172 64.8202 62.8271 64.6246 62.8766 64.4348C62.9676 64.1062 63.1695 64.0886 63.4347 64.2451C63.6682 64.384 63.882 64.5502 64.0997 64.7106C68.3529 67.8618 72.6042 71.0168 76.8574 74.166C77.6886 74.7822 77.6708 74.7646 78.3081 73.9783C80.5802 71.1772 82.1418 68.0535 82.6603 64.4779C83.5569 58.2832 81.9557 52.8102 77.6748 48.1568C74.1539 44.3289 69.7403 42.2712 64.5509 41.7861C64.256 41.7587 63.9572 41.7802 63.6623 41.7626C63.3634 41.747 63.0567 41.7391 62.9122 41.4047C62.7321 40.1567 62.8291 38.9068 62.8528 37.6569C62.8568 37.4868 62.926 37.3283 63.0606 37.209L63.0488 37.1542Z" fill="#D6D5FA"/>
<path d="M63.0606 37.2129C63.0567 38.6643 63.0527 40.1157 63.0468 41.569C63.0151 41.6022 62.9834 41.6355 62.9518 41.6687C62.5836 41.8663 62.1779 41.8115 61.788 41.8096C61.2992 41.8076 61.0458 41.9993 61.0577 42.502C61.0636 42.7211 61.0538 42.9421 61.0538 43.1612C61.0538 49.127 61.0735 55.0929 61.032 61.0588C61.026 62.0211 61.2774 62.7057 62.1265 63.183C62.4669 63.3747 62.7736 63.6329 63.0349 63.9341C63.0943 64.0163 63.0982 64.1004 63.0488 64.1884C63.0507 71.3142 63.0547 78.4419 63.0567 85.5677C57.7466 85.5912 52.9035 84.0811 48.6642 80.9476C41.6203 75.7426 38.1766 68.7009 38.6219 60.0358C39.184 49.0781 46.9225 40.233 57.7683 37.7665C59.51 37.3694 61.2715 37.1464 63.0606 37.2129Z" fill="#F0F0FA"/>
<path d="M63.0527 64.1864C63.0448 64.1473 63.0369 64.1101 63.029 64.071C62.8073 63.7483 62.8132 63.3786 62.8132 63.0109C62.8112 56.2215 62.8112 49.4322 62.8152 42.6428C62.8152 42.281 62.7736 41.9015 63.0626 41.6042C63.0626 41.6042 63.0468 41.567 63.0487 41.567C68.4816 41.6198 73.1781 43.4878 77.0652 47.2375C80.412 50.4649 82.3931 54.3926 82.9473 58.9991C83.6242 64.6246 82.0527 69.6085 78.5298 74.0311C77.7322 75.0325 77.746 75.0501 76.6971 74.2756C72.147 70.9151 67.6008 67.5508 63.0527 64.1864Z" fill="#FE9000"/>
<path d="M63.0626 41.6042C63.0606 48.7515 63.0567 55.8988 63.0527 63.048C63.0527 63.3884 63.0369 63.7307 63.029 64.071C62.3917 63.6153 61.7623 63.1439 61.1111 62.7077C60.836 62.5238 60.8261 62.2871 60.8261 62.0133C60.8281 55.4059 60.8321 48.7984 60.8182 42.191C60.8162 41.7157 60.9469 41.5396 61.4357 41.5788C61.976 41.6198 62.5203 41.5983 63.0626 41.6042Z" fill="#FEB200"/>
</g>
<defs>
<filter id="filter0_d_343_504" x="0" y="0" width="120" height="122" filterUnits="userSpaceOnUse" color-interpolation-filters="sRGB">
<feFlood flood-opacity="0" result="BackgroundImageFix"/>
<feColorMatrix in="SourceAlpha" type="matrix" values="0 0 0 0 0 0 0 0 0 0 0 0 0 0 0 0 0 0 127 0" result="hardAlpha"/>
<feOffset dy="2"/>
<feComposite in2="hardAlpha" operator="out"/>
<feColorMatrix type="matrix" values="0 0 0 0 0 0 0 0 0 0 0 0 0 0 0 0 0 0 0.15 0"/>
<feBlend mode="normal" in2="BackgroundImageFix" result="effect1_dropShadow_343_504"/>
<feBlend mode="normal" in="SourceGraphic" in2="effect1_dropShadow_343_504" result="shape"/>
</filter>
<clipPath id="clip0_343_504">
<rect width="76" height="66" fill="white" transform="translate(16 24)"/>
</clipPath>
</defs>
</svg>
