<svg width="100" height="102" viewBox="0 0 100 102" fill="none" xmlns="http://www.w3.org/2000/svg">
<g filter="url(#filter0_d_340_7)">
<circle cx="50" cy="50" r="50" fill="white"/>
<circle cx="50" cy="50" r="49" stroke="#2DA0E3" stroke-opacity="0.6" stroke-width="2"/>
</g>
<g clip-path="url(#clip0_340_7)">
<path d="M16.003 34.2886C16.0103 32.2023 15.9775 30.116 16.034 28.0316C16.0941 25.8619 17.8602 24.1131 19.9982 24.0074C20.2023 23.9981 20.4083 24 20.6124 24C40.7981 24.1242 60.9819 24.2466 81.1657 24.3709C81.3698 24.3727 81.5758 24.3839 81.7799 24.3913C82.0734 24.6936 82.0005 25.0811 81.9986 25.4409C81.9913 28.0761 81.9695 30.7095 81.9585 33.3447C81.9549 34.3202 81.9895 34.3498 82.9519 34.3609C83.6791 34.3702 84.4063 34.3647 85.1317 34.3776C85.427 34.3832 85.7277 34.3813 85.9665 34.602C85.9665 34.6484 85.9665 34.6948 85.9665 34.7411C85.7478 34.9414 85.478 34.9562 85.2065 34.9544C84.04 34.9488 82.8735 34.9655 81.707 34.921C81.2751 34.9581 80.8413 34.9358 80.4093 34.934C59.3962 34.806 38.3812 34.6781 17.3681 34.5427C16.907 34.5427 16.4039 34.6706 16.003 34.2886Z" fill="#DFE8EE"/>
<path d="M81.7567 34.539C83.1711 34.5353 84.5854 34.5316 85.998 34.5279C85.998 46.8601 85.998 59.1924 85.998 71.5247C85.5696 72.6151 85.0812 73.6611 84.0259 74.2916C83.4955 74.6087 82.9396 74.8405 82.3181 74.8739C81.8096 75.0575 81.5963 74.8201 81.5562 74.3268C81.5362 74.0728 81.538 73.8187 81.538 73.5646C81.538 67.341 81.538 61.1174 81.5362 54.8956C81.5362 54.4783 81.5854 54.0648 81.5599 53.6475C81.5325 53.1932 81.538 52.7407 81.558 52.2864C81.5143 46.7711 81.5471 41.2559 81.5416 35.7407C81.5416 35.3309 81.4596 34.8969 81.7567 34.539Z" fill="#97BBE8"/>
<path d="M86.0004 34.3888C84.8412 34.3888 83.6801 34.3573 82.5228 34.4018C81.9359 34.424 81.7427 34.2701 81.7482 33.6396C81.7773 30.4944 81.7554 27.3492 81.7518 24.2021C83.5125 24.013 85.4153 25.465 85.8637 27.3381C85.8946 27.4679 85.8637 27.6218 86.0004 27.7108C86.0004 29.938 86.0004 32.1634 86.0004 34.3888Z" fill="#9AB5C5"/>
<path d="M81.7576 34.539C81.7521 40.4863 81.7449 46.4355 81.7394 52.3828C81.486 52.3383 81.3694 52.125 81.2382 51.9414C80.7679 51.2923 80.1355 51.0123 79.3536 51.0123C73.7563 51.0123 68.1571 51.0086 62.5598 51.016C62.4231 51.016 62.2864 51.0253 62.1516 51.0439C61.0252 51.1996 60.2815 51.9971 60.318 53.0115C60.3563 54.0778 61.1491 54.8696 62.3028 54.8863C65.0787 54.9271 67.8546 54.8993 70.6304 54.9012C73.3844 54.903 76.1384 54.8752 78.8906 54.9141C79.9404 54.929 80.8354 54.7435 81.4113 53.757C81.4806 53.6383 81.5936 53.5511 81.743 53.5381C81.7503 58.9847 81.7558 64.4295 81.7613 69.8761C81.7631 71.3355 81.774 72.7969 81.754 74.2564C81.7485 74.6903 81.8579 74.9258 82.319 74.872C82.1495 75.0408 81.9362 74.9907 81.7357 74.9907C61.4626 74.9907 41.1876 74.9926 20.9145 74.9815C19.2632 74.9815 17.7668 74.5698 16.7571 73.0639C16.3069 72.3907 16.0226 71.6582 16.0207 70.8645C16.0116 58.7919 16.0171 46.7155 16.0189 34.641C16.0189 34.5946 16.028 34.5483 16.0335 34.5019C17.3549 34.5056 18.6745 34.5112 19.9959 34.5112C40.2873 34.5112 60.5805 34.5112 80.8718 34.513C81.1671 34.513 81.4623 34.5297 81.7576 34.539Z" fill="#C7DCF9"/>
<path d="M28.8574 29.3947C28.8574 28.2208 29.7797 27.2806 30.9334 27.2713C32.1254 27.262 33.0878 28.2189 33.0805 29.4058C33.0732 30.5445 32.1072 31.5403 30.9899 31.5589C29.8362 31.5774 28.8556 30.5834 28.8574 29.3947Z" fill="#FEB200"/>
<path d="M22.7563 27.2843C23.9611 27.2861 24.876 28.1985 24.8906 29.4095C24.9034 30.5185 23.8317 31.6015 22.749 31.5737C21.6044 31.544 20.6475 30.5315 20.6603 29.3613C20.6712 28.193 21.5898 27.2824 22.7563 27.2843Z" fill="#EF5541"/>
<path d="M37.0528 29.3798C37.0619 28.1652 37.9969 27.2509 39.2035 27.2732C40.3336 27.2936 41.2777 28.2727 41.274 29.4206C41.2704 30.5352 40.2625 31.5589 39.1653 31.5607C38.0061 31.5626 37.0419 30.5686 37.0528 29.3798Z" fill="#8FCC92"/>
<path d="M81.7428 53.54C81.2525 54.7027 80.3922 55.1404 79.1474 55.133C73.5464 55.0959 67.9437 55.1219 62.3427 55.1126C60.8008 55.1107 59.7874 53.8237 60.1683 52.3921C60.4308 51.4036 61.2801 50.812 62.4648 50.8102C67.1107 50.8065 71.7548 50.8083 76.4007 50.8083C77.312 50.8083 78.2251 50.8491 79.1328 50.7991C80.3722 50.7286 81.2416 51.2182 81.7373 52.3809C81.741 52.7685 81.7428 53.1542 81.7428 53.54Z" fill="#FEB200"/>
<path d="M68.3602 59.4205C70.3396 59.4205 72.3171 59.415 74.2965 59.4224C75.6507 59.4279 76.5711 60.2977 76.5748 61.5569C76.5784 62.7938 75.6307 63.7211 74.3165 63.7248C70.3359 63.734 66.3571 63.734 62.3765 63.7248C61.0496 63.7211 60.0818 62.7994 60.0781 61.5773C60.0745 60.3533 61.0423 59.4279 62.3582 59.4242C64.3577 59.415 66.3589 59.4205 68.3602 59.4205Z" fill="#EF5541"/>
<path d="M42.0817 43.6074C42.0216 43.8003 41.956 44.0451 41.8685 44.2824C39.4389 50.8195 37.0075 57.3546 34.5725 63.888C34.3173 64.5741 33.7414 64.8857 33.1855 64.6687C32.6132 64.4462 32.389 63.8509 32.6478 63.1554C35.0974 56.5776 37.5507 50.0016 40.0094 43.4257C40.2737 42.7172 40.7056 42.4558 41.3071 42.5948C41.8029 42.708 41.9942 43.0863 42.0817 43.6074Z" fill="#43809E"/>
<path d="M65.4872 46.4985C64.4629 46.4985 63.4349 46.4392 62.4161 46.5134C61.2715 46.5968 60.2125 45.7975 60.0904 44.4809C59.9829 43.3348 60.9234 42.2518 62.1864 42.2147C64.4155 42.1498 66.6482 42.159 68.8773 42.2091C70.0638 42.2369 70.997 43.3274 70.9496 44.4567C70.9004 45.5973 69.918 46.4911 68.6987 46.4967C67.627 46.5022 66.5571 46.4985 65.4872 46.4985Z" fill="#8FCC92"/>
<path d="M45.1018 46.2018C45.4791 46.1833 45.747 46.3891 45.9949 46.6413C47.9889 48.672 49.9883 50.6952 51.9768 52.7333C52.6603 53.4324 52.6457 53.9313 51.9585 54.6323C49.9992 56.6314 48.0381 58.6305 46.0714 60.6222C45.3898 61.3121 44.5496 61.2138 44.2433 60.4257C44.0337 59.886 44.2871 59.4984 44.648 59.1331C46.2774 57.4845 47.8868 55.8154 49.5326 54.1853C49.9245 53.7978 49.9044 53.5845 49.5253 53.208C47.8649 51.5594 46.2337 49.8792 44.5969 48.2065C44.2561 47.8579 43.9463 47.4907 44.1358 46.9251C44.2944 46.441 44.6261 46.2278 45.1018 46.2018Z" fill="#43809E"/>
<path d="M30.5008 47.2552C30.5136 47.6427 30.2493 47.9265 29.9704 48.2084C28.3447 49.8588 26.7334 51.526 25.0858 53.1561C24.6939 53.5437 24.6392 53.7495 25.0657 54.1686C26.6223 55.693 28.1351 57.2656 29.6588 58.8215C29.8502 59.0181 30.047 59.2165 30.1983 59.4446C30.4972 59.899 30.4935 60.3793 30.1108 60.7743C29.7043 61.1971 29.2068 61.2249 28.7566 60.8559C28.3684 60.5388 28.033 60.1549 27.6794 59.7951C26.0062 58.0946 24.3312 56.394 22.6617 54.6879C21.9253 53.935 21.9308 53.4491 22.6763 52.6888C24.6702 50.6581 26.6697 48.6349 28.6545 46.5968C29.0172 46.2241 29.4218 46.0757 29.883 46.2797C30.2548 46.4429 30.5027 46.7526 30.5008 47.2552Z" fill="#43809E"/>
</g>
<defs>
<filter id="filter0_d_340_7" x="0" y="0" width="100" height="102" filterUnits="userSpaceOnUse" color-interpolation-filters="sRGB">
<feFlood flood-opacity="0" result="BackgroundImageFix"/>
<feColorMatrix in="SourceAlpha" type="matrix" values="0 0 0 0 0 0 0 0 0 0 0 0 0 0 0 0 0 0 127 0" result="hardAlpha"/>
<feOffset dy="2"/>
<feComposite in2="hardAlpha" operator="out"/>
<feColorMatrix type="matrix" values="0 0 0 0 0.176471 0 0 0 0 0.627451 0 0 0 0 0.890196 0 0 0 0.15 0"/>
<feBlend mode="normal" in2="BackgroundImageFix" result="effect1_dropShadow_340_7"/>
<feBlend mode="normal" in="SourceGraphic" in2="effect1_dropShadow_340_7" result="shape"/>
</filter>
<clipPath id="clip0_340_7">
<rect width="70" height="51" fill="white" transform="translate(16 24)"/>
</clipPath>
</defs>
</svg>
