<svg width="100" height="102" viewBox="0 0 100 102" fill="none" xmlns="http://www.w3.org/2000/svg">
<g filter="url(#filter0_d_340_8)">
<circle cx="50" cy="50" r="50" fill="white"/>
<circle cx="50" cy="50" r="49" stroke="#2DA0E3" stroke-opacity="0.6" stroke-width="2"/>
</g>
<g clip-path="url(#clip0_340_8)">
<path d="M73.6432 83C58.6787 83 43.7159 83 28.7514 83C27.9415 82.7972 27.1154 82.668 26.4855 82.0088C25.5268 81.0062 25.0425 79.8302 25 78.4531C25.1521 77.6991 25.1554 76.9385 25.1554 76.1747C25.1505 60.3276 25.1521 44.4804 25.1521 28.6332C25.1521 28.3503 25.1636 28.0657 25.1521 27.7827C25.1309 27.2381 25.3779 26.9764 25.926 26.9682C26.2744 26.9633 26.6229 26.9519 26.973 26.9519C40.1199 26.9519 53.2685 26.9502 66.4154 26.9535C66.8931 26.9535 67.3757 26.9126 67.8453 27.0369C68.3279 27.3722 68.0825 27.7304 67.8289 28.0264C67.4755 28.4386 67.0911 28.8262 66.7835 29.276C63.8747 33.5302 63.469 38.0411 65.8068 42.6077C67.8469 46.5903 71.2596 48.8098 75.7357 49.3708C76.2788 49.4395 76.9447 49.2498 77.3537 49.8418C77.5026 50.1722 77.478 50.5255 77.478 50.8723C77.4813 60.1117 77.4797 69.3511 77.4829 78.5905C77.4829 79.9594 76.9382 81.0667 76.0138 82.0366C75.3611 82.7236 74.4907 82.8234 73.6432 83Z" fill="#3777D3"/>
<path d="M29.5247 16.0114C44.0164 16.0114 58.5081 16.0114 72.9998 16.0114C73.2403 16.1652 73.5381 15.9722 73.7769 16.1358C75.4816 16.6395 76.6023 17.7452 77.1651 19.4265C77.0767 19.631 77.0784 19.8354 77.1634 20.0399C77.1683 20.1315 77.1732 20.2231 77.1765 20.3147C77.3172 21.3974 77.2043 22.4867 77.2387 23.5711C77.2272 23.9244 76.9589 23.9587 76.6972 24.016C75.9315 24.1828 75.143 24.1877 74.374 24.3496C72.2832 24.7929 70.4444 25.7334 68.8018 27.0811C68.5826 27.261 68.3732 27.4752 68.0542 27.2806C67.8366 27.2757 67.619 27.2659 67.4014 27.2659C53.6443 27.2659 39.8888 27.2708 26.1316 27.2479C25.4527 27.2463 25.3267 27.4327 25.3267 28.0722C25.348 44.6619 25.3447 61.2467 25.3431 77.8332C25.3431 78.1161 25.33 78.3991 25.3218 78.6821C25.1696 78.4433 25.2155 78.175 25.2155 77.9166C25.2138 58.9896 25.2155 40.0627 25.2122 21.1357C25.2122 20.7612 25.2384 20.3964 25.3594 20.0415C25.4461 19.8371 25.4461 19.6326 25.3594 19.4282C25.8502 18.033 26.7288 16.9797 28.0719 16.3222C28.2928 16.2143 28.5022 16.1243 28.7476 16.139C28.9864 15.9722 29.2842 16.1652 29.5247 16.0114Z" fill="#E9E9E9"/>
<path d="M68.0573 27.2822C69.0127 26.5381 69.955 25.7791 71.0397 25.2149C72.9669 24.2123 75.0299 23.8066 77.1747 23.7183C77.2221 23.6349 77.2647 23.6365 77.3056 23.7232C79.2295 23.8753 81.0815 24.2728 82.8369 25.1298C90.8075 29.0258 92.486 40.0104 86.0369 46.1029C83.5453 48.4565 80.5759 49.6079 77.1878 49.7715C74.1857 49.7044 71.4683 48.8343 69.0519 47.009C63.1672 42.5668 62.3345 33.5514 67.3292 28.1164C67.5779 27.8465 67.8135 27.5619 68.0573 27.2822Z" fill="#8FCC92"/>
<path d="M47.5413 47.8137C43.9454 47.8137 40.3511 47.8137 36.7552 47.8121C36.5163 47.8121 36.2709 47.8268 36.0386 47.7859C35.4954 47.6894 35.1813 47.3394 35.1797 46.7947C35.1781 46.2861 35.4529 45.9263 35.9764 45.8248C36.23 45.7758 36.495 45.7643 36.7552 45.7643C43.9683 45.7611 51.1798 45.7611 58.3929 45.7627C59.4792 45.7627 59.9798 46.0931 59.9798 46.7947C59.9782 47.4948 59.4825 47.8137 58.3946 47.8137C54.7757 47.8137 51.1585 47.8137 47.5413 47.8137Z" fill="#FEB200"/>
<path d="M47.6214 34.312C51.2386 34.312 54.8558 34.312 58.473 34.3136C58.7119 34.3136 58.9605 34.2989 59.1879 34.3529C59.6951 34.4739 59.9749 34.8337 59.9667 35.3457C59.9601 35.8216 59.7115 36.1815 59.219 36.291C58.9671 36.3466 58.7004 36.3614 58.4419 36.3614C51.2075 36.3646 43.9731 36.3646 36.7387 36.363C35.677 36.363 35.1567 36.0097 35.1682 35.3146C35.1796 34.6293 35.6622 34.3136 36.7044 34.312C40.3445 34.312 43.9829 34.312 47.6214 34.312Z" fill="#FEB200"/>
<path d="M44.582 57.2298C47.2175 57.2298 49.8515 57.2314 52.4871 57.2281C52.8912 57.2281 53.274 57.2723 53.562 57.5929C54.0348 58.1212 53.8221 58.9439 53.1513 59.2023C52.8798 59.307 52.5967 59.3004 52.3137 59.3004C47.1079 59.3004 41.9038 59.3004 36.6981 59.3004C36.5884 59.3004 36.4805 59.3037 36.3709 59.2988C35.6314 59.2612 35.1782 58.8719 35.17 58.2733C35.1618 57.6419 35.6248 57.2379 36.4134 57.2347C39.1373 57.2249 41.8596 57.2298 44.582 57.2298Z" fill="#FEB200"/>
<path d="M60.42 70.738C58.0887 70.738 55.7557 70.7348 53.4244 70.7397C52.8322 70.7413 52.3299 70.6072 52.1778 69.9464C52.0371 69.3347 52.415 68.8097 53.0383 68.7312C53.2755 68.7017 53.516 68.7099 53.7565 68.7099C58.2457 68.7083 62.7349 68.7083 67.2241 68.7099C67.3991 68.7099 67.5726 68.705 67.7476 68.7148C68.3889 68.7557 68.8045 69.1564 68.8028 69.724C68.8012 70.2915 68.3922 70.7151 67.7427 70.7233C66.0216 70.7446 64.2989 70.7331 62.5779 70.7348C61.8596 70.7397 61.1398 70.7397 60.42 70.738Z" fill="#FEFEFE"/>
<path d="M42.8856 70.7364C40.8356 70.7364 38.7874 70.7364 36.7375 70.7348C36.5199 70.7348 36.3007 70.738 36.0847 70.7119C35.5383 70.6448 35.1587 70.2179 35.1702 69.7027C35.1816 69.1859 35.5694 68.7835 36.1256 68.7279C36.3203 68.7083 36.5182 68.7132 36.7129 68.7132C40.8765 68.7132 45.0402 68.7132 49.2038 68.7132C49.4214 68.7132 49.6422 68.705 49.8566 68.7361C50.4128 68.8162 50.7187 69.1695 50.7253 69.7109C50.7318 70.2523 50.4357 70.617 49.8795 70.7037C49.6439 70.7397 49.4018 70.7331 49.1613 70.7348C47.0721 70.7364 44.9796 70.7364 42.8856 70.7364Z" fill="#EF5541"/>
<path d="M52.3201 53.5579C50.4665 53.5579 48.6145 53.5579 46.7609 53.5579C46.4992 53.5579 46.2358 53.5677 45.9904 53.4548C45.5699 53.2602 45.3523 52.9314 45.3769 52.4686C45.3998 52.0351 45.6321 51.7375 46.0411 51.587C46.3339 51.4791 46.6399 51.4889 46.9458 51.4889C50.5646 51.4905 54.1835 51.4889 57.8023 51.4905C58.8526 51.4905 59.386 51.8552 59.3663 52.5553C59.3483 53.2291 58.8412 53.5579 57.8154 53.5579C55.9831 53.5579 54.1524 53.5579 52.3201 53.5579Z" fill="#EF5541"/>
<path d="M49.9465 42.0777C48.3792 42.0777 46.8119 42.0761 45.2462 42.0777C44.8176 42.0777 44.4233 42.0123 44.1681 41.6099C43.7526 40.9541 44.1338 40.1379 44.9289 40.0741C45.5996 40.0202 46.2769 40.048 46.951 40.0463C49.3886 40.0447 51.8262 40.0447 54.2639 40.0463C54.4815 40.0463 54.7007 40.0414 54.9167 40.0627C55.4958 40.1216 55.8279 40.4454 55.8606 41.031C55.8917 41.5854 55.5023 42.0319 54.9085 42.0532C53.8876 42.0892 52.8635 42.0728 51.841 42.0761C51.2095 42.081 50.578 42.0794 49.9465 42.0777Z" fill="#FEFEFE"/>
<path d="M51.9174 62.9723C53.3571 62.9723 54.7967 62.9674 56.2364 62.9739C57.0397 62.9772 57.5076 63.3485 57.5223 63.9716C57.537 64.5801 57.0561 65.02 56.2773 65.0233C53.398 65.038 50.5186 65.038 47.6392 65.0233C46.8327 65.02 46.3959 64.6177 46.4024 63.9798C46.409 63.3468 46.8589 62.9788 47.6638 62.9739C49.0806 62.9674 50.499 62.9723 51.9174 62.9723Z" fill="#FEB200"/>
<path d="M40.0895 62.9723C41.3099 62.9723 42.5287 62.9674 43.7492 62.9739C44.5443 62.9788 44.9925 63.3599 44.9893 63.9994C44.986 64.6111 44.5574 65.0168 43.7999 65.0217C41.3165 65.038 38.833 65.0397 36.3512 65.0217C35.6166 65.0168 35.1634 64.5784 35.17 63.9847C35.1749 63.355 35.6363 62.9788 36.4313 62.9739C37.6502 62.9674 38.869 62.9723 40.0895 62.9723Z" fill="#FEFEFE"/>
<path d="M39.5758 53.5562C38.5321 53.5562 37.4883 53.5628 36.4445 53.5546C35.6478 53.5481 35.1848 53.1768 35.1685 52.552C35.1505 51.9108 35.6347 51.497 36.4593 51.4938C38.5255 51.484 40.5918 51.4856 42.6581 51.4938C43.5104 51.497 43.9603 51.8732 43.9554 52.534C43.9521 53.1899 43.4941 53.5513 42.6433 53.5562C41.6208 53.5611 40.5983 53.5562 39.5758 53.5562Z" fill="#FEFEFE"/>
<path d="M64.9667 53.5562C63.9867 53.5562 63.0067 53.5628 62.0251 53.5546C61.2317 53.5481 60.7703 53.1686 60.7638 52.5405C60.7556 51.9059 61.2071 51.5003 61.9973 51.4954C63.9802 51.4823 65.9614 51.484 67.9442 51.4954C68.7524 51.5003 69.1941 51.8765 69.2023 52.5144C69.2105 53.1735 68.7491 53.5513 67.9066 53.5579C66.9282 53.5628 65.9483 53.5562 64.9667 53.5562Z" fill="#FEFEFE"/>
<path d="M39.5841 76.4708C38.5174 76.4708 37.4491 76.4789 36.3824 76.4675C35.6299 76.4593 35.1816 76.0815 35.1701 75.4747C35.1587 74.8761 35.6102 74.4557 36.3481 74.4508C38.5043 74.4377 40.6606 74.4361 42.8168 74.4524C43.5465 74.4574 43.9424 74.8352 43.9506 75.442C43.9587 76.0684 43.5317 76.4593 42.7857 76.4675C41.7191 76.4789 40.6524 76.4708 39.5841 76.4708Z" fill="#EF5541"/>
<path d="M38.7627 42.0728C37.9349 42.0728 37.1087 42.0875 36.2809 42.0679C35.5971 42.0516 35.1603 41.6279 35.1701 41.0457C35.1799 40.4847 35.5987 40.0692 36.2498 40.0611C37.9038 40.0414 39.5578 40.0414 41.2118 40.0594C41.9055 40.066 42.3407 40.4945 42.3276 41.0784C42.3161 41.659 41.8793 42.0532 41.1775 42.0695C40.3726 42.0875 39.5677 42.0728 38.7627 42.0728Z" fill="#EF5541"/>
<path d="M61.5408 62.9756C62.0202 62.9756 62.5012 62.9608 62.9805 62.9788C63.6398 63.0034 64.0586 63.3861 64.0799 63.9536C64.1012 64.4803 63.7167 64.9513 63.1179 64.9939C62.0316 65.0724 60.9371 65.0855 59.8525 64.9857C59.2373 64.9284 58.884 64.4754 58.9183 63.9307C58.9543 63.3828 59.3519 63.0066 59.9719 62.9805C60.4938 62.9592 61.0173 62.9772 61.5408 62.9756Z" fill="#EF5541"/>
<path d="M31.5924 57.2396C32.1503 57.251 32.628 57.7482 32.6084 58.2945C32.5888 58.8261 32.1176 59.2857 31.5924 59.2857C31.0395 59.2857 30.5634 58.7868 30.5847 58.2275C30.6043 57.6894 31.0755 57.2298 31.5924 57.2396Z" fill="#FCFCFC"/>
<path d="M32.6116 52.5356C32.6018 53.0934 32.1078 53.5693 31.5581 53.5481C31.0394 53.5284 30.5928 53.0525 30.5879 52.5177C30.5846 51.9877 31.0444 51.515 31.5711 51.5101C32.129 51.5036 32.6198 51.9877 32.6116 52.5356Z" fill="#FDFDFD"/>
<path d="M32.6126 41.0604C32.6077 41.6279 32.1366 42.0826 31.5672 42.0663C31.0224 42.0516 30.5856 41.605 30.584 41.0637C30.5824 40.4896 31.0486 40.0414 31.6245 40.0627C32.1758 40.084 32.6175 40.5305 32.6126 41.0604Z" fill="#FDFDFD"/>
<path d="M32.61 69.706C32.6182 70.2555 32.1879 70.7037 31.6333 70.725C31.064 70.7462 30.5895 70.285 30.5879 69.706C30.5863 69.1613 31.0378 68.7197 31.5924 68.7246C32.1552 68.7312 32.6018 69.163 32.61 69.706Z" fill="#FDFDFD"/>
<path d="M32.613 75.4518C32.6097 76.0193 32.1385 76.4806 31.5725 76.4675C31.031 76.4544 30.5909 76.0095 30.586 75.4681C30.5811 74.8957 31.0473 74.4426 31.6216 74.4606C32.1778 74.477 32.6146 74.9137 32.613 75.4518Z" fill="#FDFDFD"/>
<path d="M32.6107 63.9667C32.6222 64.5343 32.1625 65.0004 31.5915 65.0004C31.0614 65.002 30.6099 64.5555 30.5886 64.0142C30.5674 63.476 30.9993 63.0066 31.5359 62.9821C32.1003 62.9576 32.5993 63.4155 32.6107 63.9667Z" fill="#FDFDFD"/>
<path d="M31.5689 45.7938C32.1529 45.7872 32.6192 46.2386 32.611 46.8062C32.6028 47.341 32.1562 47.7908 31.618 47.8055C31.0535 47.8219 30.5807 47.3574 30.584 46.7898C30.5873 46.2452 31.0274 45.8003 31.5689 45.7938Z" fill="#FDFDFD"/>
<path d="M32.6059 35.3489C32.5928 35.9018 32.1511 36.3319 31.5932 36.3352C31.0337 36.3385 30.5658 35.8429 30.5887 35.2721C30.61 34.7258 31.0795 34.2989 31.6308 34.3234C32.1789 34.3496 32.619 34.8125 32.6059 35.3489Z" fill="#FDFDFD"/>
<path d="M77.3086 23.7249C77.2644 23.7232 77.2219 23.7216 77.1777 23.7199C77.1777 22.5849 77.1794 21.4498 77.1794 20.3147C77.4444 20.9836 77.2628 21.6804 77.3037 22.3624C77.3299 22.8155 77.3086 23.2718 77.3086 23.7249Z" fill="#E2E3E5"/>
<path d="M73.7771 16.1374C73.5137 16.1178 73.2339 16.2077 73 16.0114C73.2634 16.0229 73.5448 15.9297 73.7771 16.1374Z" fill="#CCCFD1"/>
<path d="M29.5248 16.0114C29.2909 16.2077 29.0095 16.1161 28.7461 16.1374C28.98 15.9297 29.2614 16.0229 29.5248 16.0114Z" fill="#CCCED1"/>
<path d="M77.1663 20.0415C77.0125 19.8371 77.0011 19.631 77.168 19.4282C77.1663 19.631 77.1663 19.8354 77.1663 20.0415Z" fill="#C9CCCF"/>
<path d="M25.3574 19.4265C25.5243 19.631 25.5112 19.8354 25.3574 20.0399C25.3591 19.8354 25.3591 19.631 25.3574 19.4265Z" fill="#C9CCCF"/>
<path d="M47.5514 23.7625C46.2933 23.7739 45.2855 22.7991 45.2659 21.5544C45.2463 20.3359 46.2688 19.2941 47.499 19.281C48.7326 19.2663 49.7649 20.2705 49.7829 21.5005C49.8009 22.7321 48.7948 23.751 47.5514 23.7625Z" fill="#8FCC92"/>
<path d="M39.9766 19.281C41.2167 19.3121 42.2065 20.3539 42.1689 21.5855C42.1296 22.8384 41.1235 23.7886 39.8621 23.7625C38.6122 23.7363 37.6224 22.7043 37.6633 21.4727C37.7059 20.2378 38.748 19.2499 39.9766 19.281Z" fill="#FEB200"/>
<path d="M32.2875 19.2793C33.5308 19.2663 34.5304 20.2411 34.5517 21.4874C34.573 22.7451 33.6208 23.7396 32.3709 23.7674C31.0932 23.7952 30.0674 22.804 30.0625 21.5381C30.0592 20.3098 31.0605 19.2924 32.2875 19.2793Z" fill="#EF5541"/>
<path d="M76.4396 43.6119C76.0568 43.6119 75.7852 43.432 75.5529 43.1932C73.9807 41.5592 72.4085 39.9253 70.8477 38.2799C70.3749 37.7811 70.3619 37.1661 70.7627 36.7604C71.2011 36.3188 71.8032 36.3417 72.3234 36.8733C73.4686 38.0411 74.6073 39.2138 75.7165 40.416C76.0993 40.8314 76.2384 40.7398 76.4723 40.2917C78.1001 37.1612 79.7509 34.0421 81.3967 30.9198C81.5079 30.7088 81.6192 30.4913 81.7664 30.3064C82.11 29.8779 82.555 29.7503 83.0425 30.0268C83.5153 30.295 83.6904 30.717 83.5055 31.2502C83.4564 31.3941 83.3926 31.5331 83.3223 31.6672C81.3738 35.3686 79.4237 39.0683 77.4785 42.7712C77.2445 43.2177 76.9598 43.5759 76.4396 43.6119Z" fill="#FEFEFE"/>
</g>
<defs>
<filter id="filter0_d_340_8" x="0" y="0" width="100" height="102" filterUnits="userSpaceOnUse" color-interpolation-filters="sRGB">
<feFlood flood-opacity="0" result="BackgroundImageFix"/>
<feColorMatrix in="SourceAlpha" type="matrix" values="0 0 0 0 0 0 0 0 0 0 0 0 0 0 0 0 0 0 127 0" result="hardAlpha"/>
<feOffset dy="2"/>
<feComposite in2="hardAlpha" operator="out"/>
<feColorMatrix type="matrix" values="0 0 0 0 0.176471 0 0 0 0 0.627451 0 0 0 0 0.890196 0 0 0 0.15 0"/>
<feBlend mode="normal" in2="BackgroundImageFix" result="effect1_dropShadow_340_8"/>
<feBlend mode="normal" in="SourceGraphic" in2="effect1_dropShadow_340_8" result="shape"/>
</filter>
<clipPath id="clip0_340_8">
<rect width="65" height="67" fill="white" transform="translate(25 16)"/>
</clipPath>
</defs>
</svg>
