<svg width="143" height="259" xmlns="http://www.w3.org/2000/svg">
 <defs>
  <clipPath id="clip0_505_32">
   <rect id="svg_1" fill="white" height="447.199" width="600"/>
  </clipPath>
 </defs>
 <g>
  <title>background</title>
  <rect fill="none" id="canvas_background" height="261" width="145" y="-1" x="-1"/>
 </g>
 <g>
  <title>Layer 1</title>
  <path id="svg_3" fill="#F9BD29" d="m57.001762,247.848101c23.752,0 43.007,-3.896 43.007,-8.703c0,-4.806 -19.255,-8.702 -43.007,-8.702c-23.752,0 -43.007,3.896 -43.007,8.702c0,4.807 19.255,8.703 43.007,8.703z"/>
  <path id="svg_4" fill="#38A1DB" d="m126.140762,100.224701l-52.949,-8.2924c-8.392,-1.3213 -16.327,4.3284 -17.604,12.6209l-14.138,89.9869c-1.323,8.429 3.967,14.033 8.893,16.22c5.017,2.232 12.815,2.506 18.379,-4.237l67.088,-81.695c3.466,-4.237 4.378,-9.795 2.417,-14.8985c-1.961,-5.1942 -6.476,-8.8392 -12.086,-9.7049z"/>
  <path id="svg_5" fill="#45C0F0" d="m48.062762,103.368601c1.961,-12.4387 13.773,-20.9589 26.315,-18.9541l18.333,2.8704l7.982,-50.6658c2.873,-18.13398 -19.429,-29.43355 -32.609,-16.49372l-58.65,57.40912c-11.174,10.935 -4.971,29.8436 10.626,32.304l26.315,4.1462l1.688,-10.6161z"/>
 </g>
</svg>