<svg width="100" height="102" viewBox="0 0 100 102" fill="none" xmlns="http://www.w3.org/2000/svg">
<g filter="url(#filter0_d_340_6)">
<circle cx="50" cy="50" r="50" fill="white"/>
<circle cx="50" cy="50" r="49" stroke="#2DA0E3" stroke-opacity="0.6" stroke-width="2"/>
</g>
<g clip-path="url(#clip0_340_6)">
<path d="M27.7537 58.4923C29.4687 57.6605 31.1081 56.6584 32.9829 56.1892C36.0555 55.4227 38.9888 55.8592 41.8844 57.0641C45.6426 58.6264 49.4318 60.1114 53.2192 61.6033C55.7986 62.6208 57.2988 64.7262 57.2335 67.3697C57.2043 68.5539 56.6905 69.6058 56.2419 70.6697C56.1354 70.9223 55.9653 70.8622 55.7642 70.7848C52.1675 69.3927 48.5657 68.0177 44.9776 66.6083C44.4621 66.4055 44.2009 66.3745 44.0136 66.9967C43.7627 67.8355 43.4052 68.6433 43.0753 69.458C42.9275 69.8223 42.9601 70.0028 43.3863 70.1644C46.9521 71.5136 50.5075 72.8938 54.0647 74.2636C54.1455 74.2945 54.2331 74.3117 54.3036 74.3581C55.747 75.2794 57.0909 75.0095 58.4484 74.1072C59.1014 73.6723 59.8679 73.4059 60.5827 73.0622C60.8285 73.2994 60.7958 73.6122 60.7958 73.9061C60.8027 76.1336 60.8027 78.3628 60.7975 80.5903C60.7975 80.8894 60.813 81.1953 60.5947 81.4445C58.8626 82.175 57.0909 82.7525 55.1971 82.8728C55.0872 82.8797 54.9875 82.902 54.9188 82.9983C54.7899 82.9983 54.661 82.9983 54.5321 82.9983C54.3173 82.8934 54.1025 82.8934 53.8877 82.9983C53.3292 82.9983 52.7707 82.9983 52.2122 82.9983C51.9201 82.8573 51.609 82.9656 51.3083 82.9312C51.1038 82.9312 50.8976 82.9312 50.6931 82.9312C48.4213 82.9261 46.2956 82.2747 44.2249 81.4256C40.575 79.9286 36.9164 78.4556 33.2664 76.9638C31.6202 76.29 29.9636 75.642 28.3277 74.9408C28.0115 74.805 27.6781 74.6916 27.575 74.3031C27.5045 74.0058 27.5183 73.705 27.5183 73.4059C27.5166 68.798 27.5148 64.19 27.5217 59.5837C27.5234 59.2125 27.4272 58.8034 27.7537 58.4923Z" fill="#FED8B2"/>
<path d="M54.6439 50.9969C50.9819 52.2086 47.3113 52.2584 43.6321 51.0777C43.4001 51.0038 43.1699 51.0106 42.9362 51.0141C37.3684 48.8347 33.6377 44.8953 32.067 39.1358C30.4603 33.2456 31.7577 27.8745 35.6019 23.1308C37.3959 20.9153 39.6643 19.3306 42.2642 18.1997C42.5014 18.0966 42.7299 17.9797 42.9482 17.8422C44.3418 17.4555 45.7338 17.0653 47.191 16.9983C47.4488 16.9983 47.7065 16.9983 47.9643 16.9983C48.2221 17.1031 48.4798 17.1031 48.7376 16.9983C49.425 16.9983 50.1123 16.9983 50.7997 16.9983C51.7569 17.1375 52.733 17.1478 53.6626 17.4641C53.9616 17.5655 54.2847 17.6084 54.5322 17.8319C54.7281 18.3166 54.3071 18.3613 54.0424 18.4764C52.3601 19.212 50.8169 20.1591 49.4147 21.3553C47.3646 23.1033 45.8558 25.2362 44.7749 27.6855C43.706 30.1037 43.2334 32.6527 43.3778 35.2789C43.6132 39.5191 45.1203 43.2453 48.0846 46.3477C49.7858 48.1283 51.7449 49.5119 54.0166 50.4641C54.2624 50.5689 54.637 50.5827 54.6439 50.9969Z" fill="#FEC24D"/>
<path d="M42.9353 17.9298C42.9061 18.1739 42.6981 18.2066 42.5229 18.2805C37.8556 20.2364 34.6146 23.5862 32.7535 28.2819C31.841 30.585 31.4527 32.9895 31.6091 35.4491C31.8445 39.1289 33.0525 42.465 35.3896 45.3577C37.3126 47.7381 39.6754 49.5291 42.5108 50.6927C42.6724 50.758 42.9215 50.7408 42.9353 51.0141C35.4962 53.7056 26.6342 50.4658 22.5117 43.5478C16.5435 33.5275 21.6851 20.7073 32.9288 17.6016C33.8052 17.3609 34.704 17.1994 35.5907 17C35.8484 17 36.1062 17 36.364 17C36.6217 17.1048 36.8795 17.1048 37.1373 17C37.8246 17 38.512 17 39.1994 17C40.1806 17.1358 41.179 17.1598 42.1276 17.4847C42.4232 17.5861 42.7634 17.605 42.9353 17.9298Z" fill="#FE9833"/>
<path d="M62.3971 17C63.4797 17.3025 64.6105 17.3867 65.6793 17.7563C72.3297 20.0611 76.4385 24.6484 77.7101 31.563C78.7841 37.4016 77.0657 42.5303 72.9552 46.7773C70.1542 49.6717 66.6812 51.3458 62.6532 51.8167C61.9692 51.8975 61.2887 51.9525 60.6014 51.9147C60.4897 51.8047 60.4209 51.6689 60.4192 51.5159C60.4072 50.4073 60.3006 49.297 60.4811 48.1936C60.7612 47.7622 61.2063 47.9134 61.5929 47.8963C62.3129 47.8636 62.3439 47.8498 62.349 47.1159C62.3542 46.3236 62.3851 45.5278 62.3404 44.7372C62.3009 44.0445 62.569 43.663 63.1859 43.333C65.2222 42.2467 66.2464 40.4884 66.2 38.1922C66.1468 35.5883 64.2874 33.4605 61.7424 32.9087C61.3197 32.8177 60.8248 32.8967 60.4965 32.498C60.3316 31.2725 60.3264 30.0488 60.4983 28.8233C60.701 28.5294 60.9725 28.5913 61.2458 28.6823C61.8799 28.892 62.2992 29.3355 62.5415 29.9405C62.6996 30.3341 62.9522 30.4991 63.3749 30.487C64.1035 30.4664 64.8322 30.4922 65.5608 30.4784C66.1588 30.4681 66.2567 30.3581 66.1382 29.7858C65.7739 28.012 64.882 26.5872 63.2357 25.7622C62.5587 25.4236 62.2872 24.9991 62.3336 24.2566C62.3851 23.4453 62.3318 22.6272 62.3507 21.8125C62.361 21.3381 62.1634 21.1697 61.7012 21.168C61.2922 21.1645 60.8316 21.3055 60.5 20.905C60.2817 19.7208 60.402 18.528 60.4295 17.3403C60.433 17.2114 60.5103 17.0997 60.5945 17C60.7663 17 60.9382 17 61.11 17C61.4108 17.1066 61.7115 17.1066 62.0122 17C62.1394 17 62.2682 17 62.3971 17Z" fill="#FEC24D"/>
<path d="M60.5932 17C60.5932 18.332 60.5932 19.6641 60.5915 20.9961C60.5674 21.0202 60.5433 21.0442 60.5193 21.0683C60.1722 21.2298 59.801 21.1731 59.4418 21.1628C59.0019 21.1508 58.8215 21.3278 58.8283 21.7678C58.8421 22.5602 58.7888 23.3559 58.8438 24.1448C58.9005 24.9509 58.6153 25.4081 57.8712 25.8C54.3415 27.658 53.972 32.6647 57.1477 35.0778C57.8746 35.6295 58.6737 36.0197 59.5827 36.1795C59.9178 36.238 60.2667 36.25 60.5812 36.4064C60.6396 36.4563 60.6825 36.5147 60.7118 36.5869C60.832 37.7866 60.8217 38.9862 60.7203 40.1842C60.6963 40.2547 60.655 40.3183 60.6018 40.3716C59.8989 40.5125 59.1136 40.155 58.7888 39.385C58.5036 38.7078 58.0843 38.505 57.3986 38.5652C56.8023 38.6184 56.1974 38.5892 55.596 38.572C55.12 38.56 54.9223 38.7284 55.0254 39.2252C55.4001 41.0247 56.2868 42.4702 57.9605 43.3089C58.6101 43.6338 58.8902 44.0342 58.8455 44.7595C58.794 45.5931 58.8438 46.4336 58.8301 47.2706C58.8232 47.702 58.9847 47.9014 59.4332 47.8894C59.7924 47.8808 60.1653 47.8241 60.5124 47.9873C60.5365 48.0114 60.5622 48.0372 60.5863 48.063C60.5897 49.3452 60.5932 50.6273 60.5949 51.9112C58.9435 51.9628 57.3367 51.6792 55.7523 51.2409C55.3829 51.1395 55.0272 50.9917 54.6371 50.9934C54.3776 50.6755 53.9738 50.617 53.6318 50.4675C50.2052 48.9653 47.5537 46.59 45.6308 43.3983C44.2955 41.1828 43.5394 38.7834 43.2971 36.1984C42.8331 31.2673 44.2491 26.9516 47.3887 23.1617C49.2171 20.9548 51.4855 19.3616 54.1233 18.2719C54.2968 18.1997 54.5099 18.1688 54.5237 17.9161C55.7816 17.4503 57.0652 17.098 58.4176 17.0602C58.5414 17.0567 58.6754 17.0945 58.7819 16.9948C58.9538 16.9948 59.1256 16.9948 59.2975 16.9948C59.5552 17.0997 59.813 17.0997 60.0708 16.9948C60.2495 17 60.4213 17 60.5932 17Z" fill="#FEE97F"/>
<path d="M27.7539 58.4923C27.7453 61.0859 27.7298 63.6812 27.7298 66.2748C27.7298 69.0197 27.7453 71.7645 27.7522 74.5077C27.8621 74.7191 27.9309 74.9408 27.9326 75.1848C27.9395 76.2367 27.9532 77.2869 27.9274 78.3387C27.9103 79.0142 27.747 79.1964 27.082 79.1998C23.6073 79.2256 20.1326 79.217 16.6579 79.2067C16.4191 79.2067 16.1854 79.1758 15.998 79.0039C15.998 71.2695 15.998 63.5352 15.998 55.8008C19.6635 55.8008 23.3306 55.8128 26.996 55.7887C27.5494 55.7853 27.7968 55.8781 27.7401 56.502C27.6851 57.1603 27.7453 57.8289 27.7539 58.4923Z" fill="#629CF9"/>
<path d="M62.0116 17C61.7108 17.2063 61.4101 17.1994 61.1094 17C61.4101 17 61.7108 17 62.0116 17Z" fill="#FECC5F"/>
<path d="M51.312 82.8728C51.6127 82.9192 51.9427 82.7542 52.2159 83C51.9152 83 51.6144 83 51.3137 83C51.2708 82.9725 51.257 82.9433 51.2708 82.9158C51.2845 82.8866 51.2982 82.8728 51.312 82.8728Z" fill="#FEE2C6"/>
<path d="M37.1366 17C36.8788 17.1942 36.621 17.1994 36.3633 17C36.621 17 36.8788 17 37.1366 17Z" fill="#FEA348"/>
<path d="M48.7362 17C48.4784 17.1942 48.2207 17.1977 47.9629 17C48.2207 17 48.4784 17 48.7362 17Z" fill="#FEC85F"/>
<path d="M60.078 17C59.8202 17.1925 59.5625 17.1994 59.3047 17C59.5625 17 59.8202 17 60.078 17Z" fill="#FEED97"/>
<path d="M51.3124 82.8728C51.3141 82.9158 51.3141 82.9587 51.3141 83C51.0993 83 50.8845 83 50.6697 83C50.6697 82.957 50.6697 82.9158 50.668 82.8728C50.8828 82.8728 51.0976 82.8728 51.3124 82.8728Z" fill="#FEF1E5"/>
<path d="M53.8906 83C54.1054 82.8109 54.3202 82.8058 54.535 83C54.3202 83 54.1054 83 53.8906 83Z" fill="#FEE4CA"/>
<path d="M60.596 81.4445C60.5926 78.6498 60.5874 75.8569 60.584 73.0622C62.6839 71.9931 64.7821 70.9189 66.8872 69.8584C69.6264 68.48 72.3707 67.1084 75.1168 65.7403C77.9952 64.3069 81.2258 65.8331 81.9235 68.9544C82.061 69.568 81.9648 70.1953 81.9837 70.8158C81.9957 71.1956 81.6486 71.2283 81.4183 71.3434C77.9041 73.0914 74.3865 74.8325 70.8671 76.5684C67.9819 77.9898 65.1378 79.4937 62.2113 80.8309C61.6872 81.0698 61.1665 81.3208 60.596 81.4445Z" fill="#FEBA98"/>
<path d="M60.5916 32.5977C64.025 32.6286 66.723 35.5316 66.3655 38.9622C66.1576 40.9611 65.1454 42.5613 63.2878 43.4773C62.7053 43.7644 62.4612 44.0737 62.5076 44.7355C62.5729 45.6533 62.5025 46.5797 62.5334 47.5009C62.5489 47.9633 62.3805 48.1059 61.9405 48.0767C61.492 48.0458 61.0401 48.0698 60.5899 48.0716C60.3699 47.8241 60.3836 47.5181 60.3836 47.2191C60.3785 45.2081 60.3785 43.1972 60.3836 41.1863C60.3836 40.8872 60.3699 40.5812 60.5899 40.3337C60.7995 40.1344 61.0865 40.0983 61.3357 39.9797C62.0076 39.6617 62.3409 39.1048 62.3409 38.4002C62.3409 37.6955 62.0076 37.1386 61.3357 36.8206C61.0865 36.7038 60.7995 36.6659 60.5899 36.4666C60.5228 36.3823 60.4472 36.2947 60.4421 36.1881C60.3905 35.0211 60.2805 33.8523 60.5039 32.6905C60.5349 32.6578 60.5641 32.6269 60.5916 32.5977Z" fill="#FE9833"/>
<path d="M60.5908 20.9961C61.041 20.9961 61.4947 21.0219 61.9432 20.9892C62.3883 20.9583 62.5481 21.1095 62.5343 21.5684C62.5051 22.598 62.5378 23.6309 62.5189 24.6605C62.512 25.0248 62.6014 25.25 62.9588 25.4081C64.8731 26.2589 65.9162 27.7955 66.3424 29.803C66.5022 30.5558 66.4249 30.6623 65.6567 30.6641C64.8405 30.6658 64.0242 30.6469 63.2097 30.6727C62.8007 30.6864 62.5807 30.6091 62.4364 30.1553C62.1632 29.2908 61.5462 28.7648 60.5925 28.7322C60.565 28.7013 60.5358 28.6686 60.5066 28.6377C60.3622 28.3575 60.388 28.0533 60.388 27.7559C60.3846 25.8292 60.3829 23.9025 60.388 21.9775C60.3897 21.6389 60.3433 21.2848 60.5908 20.9961Z" fill="#FE9833"/>
<path d="M60.5923 28.7305C60.5923 30.0195 60.5923 31.3069 60.5923 32.5959C60.0355 32.9208 59.6351 32.5255 59.2708 32.2419C58.635 31.7469 58.3583 31.0525 58.5422 30.2481C58.733 29.4077 59.2726 28.8628 60.1112 28.6325C60.2882 28.5844 60.4514 28.6067 60.5923 28.7305Z" fill="#FEE97F"/>
<path d="M60.5929 28.7322C59.4415 28.8164 58.6493 29.6225 58.6613 30.6933C58.6734 31.7108 59.4914 32.5152 60.5929 32.5977C60.5929 33.8867 60.5929 35.1775 60.5929 36.4666C57.1577 36.4253 54.4529 33.5103 54.8206 30.0952C55.0406 28.0447 56.0992 26.4359 58.0152 25.5233C58.517 25.2844 58.7026 25.0094 58.6751 24.4542C58.6253 23.4917 58.6837 22.5258 58.6528 21.5616C58.6373 21.0992 58.8057 20.9583 59.2456 20.9875C59.6941 21.0184 60.1444 20.9944 60.5946 20.9927C60.5929 23.5742 60.5929 26.1523 60.5929 28.7322Z" fill="#FEC24D"/>
<path d="M60.5928 40.3303C60.5928 42.9084 60.5928 45.4883 60.5928 48.0664C60.1202 48.0664 59.6476 48.0458 59.1768 48.0716C58.7884 48.0922 58.6458 47.9564 58.6544 47.5577C58.6767 46.5058 58.6492 45.4522 58.6681 44.4003C58.675 44.0377 58.5891 43.8125 58.2299 43.6527C56.3156 42.8002 55.2673 41.2688 54.8463 39.2578C54.6865 38.4998 54.7621 38.3984 55.5302 38.3967C56.4101 38.395 57.2916 38.4053 58.1715 38.3916C58.4688 38.3881 58.6045 38.4586 58.7008 38.7852C58.9688 39.7133 59.5892 40.2736 60.5928 40.3303Z" fill="#FEC24D"/>
<path d="M60.5918 36.4648C61.7431 36.5456 62.5388 37.3552 62.525 38.4294C62.5113 39.4675 61.7157 40.2513 60.5918 40.3303C60.5918 39.043 60.5918 37.7539 60.5918 36.4648Z" fill="#FEC24D"/>
</g>
<defs>
<filter id="filter0_d_340_6" x="0" y="0" width="100" height="102" filterUnits="userSpaceOnUse" color-interpolation-filters="sRGB">
<feFlood flood-opacity="0" result="BackgroundImageFix"/>
<feColorMatrix in="SourceAlpha" type="matrix" values="0 0 0 0 0 0 0 0 0 0 0 0 0 0 0 0 0 0 127 0" result="hardAlpha"/>
<feOffset dy="2"/>
<feComposite in2="hardAlpha" operator="out"/>
<feColorMatrix type="matrix" values="0 0 0 0 0.176471 0 0 0 0 0.627451 0 0 0 0 0.890196 0 0 0 0.15 0"/>
<feBlend mode="normal" in2="BackgroundImageFix" result="effect1_dropShadow_340_6"/>
<feBlend mode="normal" in="SourceGraphic" in2="effect1_dropShadow_340_6" result="shape"/>
</filter>
<clipPath id="clip0_340_6">
<rect width="66" height="66" fill="white" transform="translate(16 17)"/>
</clipPath>
</defs>
</svg>
