<svg width="100" height="102" viewBox="0 0 100 102" fill="none" xmlns="http://www.w3.org/2000/svg">
<g filter="url(#filter0_d_340_4)">
<circle cx="50" cy="50" r="50" fill="white"/>
<circle cx="50" cy="50" r="49" stroke="#2DA0E3" stroke-opacity="0.6" stroke-width="2"/>
</g>
<g clip-path="url(#clip0_340_4)">
<path d="M53.9398 38.4655C53.9328 40.6107 53.9105 42.7569 53.9328 44.9009C53.9374 45.3906 53.8098 45.5078 53.3248 45.5066C46.3811 45.489 39.4385 45.4972 32.4947 45.489C32.0871 45.489 31.7673 45.5745 31.4405 45.8498C28.6679 48.1871 25.8766 50.5033 23.09 52.8253C22.94 52.9495 22.7866 53.069 22.6308 53.1932C22.4422 53.0537 22.5336 52.8628 22.5324 52.707C22.5254 50.4833 22.516 48.2597 22.5383 46.0361C22.5429 45.6085 22.4481 45.4656 21.9971 45.4832C21.0038 45.5206 20.0081 45.4949 19.0137 45.4949C19.0137 39.6758 19.0137 33.8578 19.0137 28.0387C19.2023 27.8665 19.4377 27.8513 19.6731 27.8513C27.7882 27.8513 35.9022 27.8302 44.0173 27.8618C44.0958 27.8618 43.9974 27.8606 44.0759 27.8641C47.1354 27.8278 50.195 27.8477 53.2557 27.8548C53.9574 27.8571 54.1038 28.0129 54.1073 28.7358C54.119 31.7572 54.1155 34.7787 54.1096 37.8001C54.1073 38.0332 54.1014 38.2699 53.9398 38.4655Z" fill="#DFE8EE"/>
<path d="M53.9399 38.4655C53.9329 35.1864 53.9153 31.9083 53.9329 28.6292C53.9352 28.1418 53.8169 28.0235 53.3296 28.0258C50.2466 28.0446 47.1636 28.0258 44.0806 28.0188C43.8663 27.7997 43.8944 27.5174 43.8932 27.2502C43.8874 25.4273 43.8874 23.6044 43.8921 21.7814C43.8932 21.5108 43.8792 21.2331 44.0795 21.0094C55.547 21.0094 67.0133 21.0117 78.4796 21C78.8744 21 79.0021 21.0469 79.0009 21.4967C78.9798 27.153 78.9868 32.8093 78.9868 38.4655C77.9736 38.4655 76.9592 38.4843 75.946 38.4562C75.5501 38.4456 75.4622 38.5815 75.4658 38.9529C75.481 41.1168 75.474 43.2818 75.474 45.4457C75.474 45.6319 75.474 45.8182 75.474 46.1322C74.3565 45.2242 73.3351 44.3948 72.3148 43.563C70.3505 41.9626 68.385 40.3646 66.4288 38.7537C66.1512 38.5253 65.8677 38.4597 65.521 38.4597C61.6591 38.4679 57.7995 38.4655 53.9399 38.4655Z" fill="#9AB5C5"/>
<path d="M29.4373 53.1041C32.6281 52.9424 35.731 55.4449 36.3342 58.6667C37.0359 62.4191 34.808 65.9315 31.1264 66.8746C30.9589 66.9179 30.7855 66.9437 30.4833 67.0046C31.8081 67.2249 32.9888 67.4908 34.0782 68.0567C37.3381 69.7484 39.3153 72.3762 39.8682 76.0303C40.1177 77.6775 39.9256 79.3387 39.9806 80.9918C36.4666 80.9918 32.9525 80.9918 29.4385 80.9918C29.237 80.7669 29.2487 80.488 29.2487 80.2151C29.2452 71.4366 29.2452 62.6581 29.2487 53.8797C29.2487 53.609 29.2405 53.3314 29.4373 53.1041Z" fill="#C68400"/>
<path d="M68.4424 53.1041C71.6847 52.9401 74.8169 55.5738 75.3651 58.7862C76.0198 62.6183 73.5178 66.3052 69.4697 67.0175C72.4425 67.4006 74.8192 68.653 76.636 70.8754C77.8917 72.4125 78.687 74.1687 78.8838 76.1662C78.9916 76.356 78.8451 76.5891 78.9845 76.7742C78.9845 78.0629 78.974 79.3516 78.9927 80.6403C78.9974 80.9344 78.926 81 78.6331 81C75.2362 80.9883 71.8393 80.993 68.4424 80.993C68.2409 80.768 68.2526 80.4892 68.2526 80.2162C68.2491 71.4378 68.2491 62.6593 68.2526 53.8809C68.2538 53.6091 68.2456 53.3314 68.4424 53.1041Z" fill="#3777D3"/>
<path d="M68.4439 53.1041C68.4439 62.4004 68.4439 71.6967 68.4451 80.9918C64.9697 80.9918 61.4955 80.9918 58.0201 80.9918C58.0751 79.1232 57.8748 77.2463 58.2403 75.3882C59.0673 71.1777 62.613 67.7849 66.8591 67.1534C67.0489 67.1253 67.2327 67.0667 67.494 67.0046C63.6004 66.2056 61.1535 63.0049 61.5482 59.3192C61.9254 55.7917 64.9428 53.0725 68.4439 53.1041Z" fill="#629CF9"/>
<path d="M29.4373 53.1041C29.4373 62.4004 29.4373 71.6967 29.4384 80.9918C26.113 80.9918 22.7887 80.9871 19.4632 80.9988C19.1282 81 18.99 80.9637 19.0006 80.5665C19.0334 79.3036 19.0134 78.0383 19.0134 76.7742C19.154 76.5938 19.0029 76.3618 19.1177 76.1767C19.4105 73.7645 20.4495 71.7178 22.1702 70.0178C23.8921 68.3156 25.9853 67.3608 28.3854 67.021C27.6967 66.8464 27.0325 66.6485 26.407 66.3392C25.7546 66.017 25.1677 65.6046 24.6453 65.0997C24.1229 64.5947 23.6871 64.0218 23.3451 63.381C23.0042 62.7413 22.7676 62.0665 22.6306 61.3519C22.4935 60.6349 22.4607 59.912 22.5638 59.1985C23.0792 55.6288 25.9759 53.0725 29.4373 53.1041Z" fill="#FEB200"/>
<path d="M19.1179 76.1779C19.1261 76.3841 19.1976 76.602 19.0137 76.7754C19.0137 76.5797 19.0137 76.3852 19.0137 76.1896C19.0488 76.1884 19.084 76.1849 19.1179 76.1779Z" fill="#FEB47E"/>
<path d="M78.9876 76.7754C78.8119 76.5961 78.8728 76.3782 78.8869 76.1673C78.922 76.1662 78.956 76.1744 78.9876 76.1896C78.9876 76.3841 78.9876 76.5797 78.9876 76.7754Z" fill="#3777D3"/>
<path d="M30.1343 39.1485C31.245 39.1485 32.1455 38.2479 32.1455 37.137C32.1455 36.026 31.245 35.1254 30.1343 35.1254C29.0235 35.1254 28.123 36.026 28.123 37.137C28.123 38.2479 29.0235 39.1485 30.1343 39.1485Z" fill="#9AB5C5"/>
<path d="M35.7827 39.1485C36.8934 39.1485 37.7939 38.2479 37.7939 37.137C37.7939 36.026 36.8934 35.1254 35.7827 35.1254C34.6719 35.1254 33.7715 36.026 33.7715 37.137C33.7715 38.2479 34.6719 39.1485 35.7827 39.1485Z" fill="#9AB5C5"/>
<path d="M41.519 39.1485C42.6298 39.1485 43.5302 38.2479 43.5302 37.137C43.5302 36.026 42.6298 35.1254 41.519 35.1254C40.4083 35.1254 39.5078 36.026 39.5078 37.137C39.5078 38.2479 40.4083 39.1485 41.519 39.1485Z" fill="#9AB5C5"/>
<path d="M56.8061 30.786C57.9169 30.786 58.8173 29.8854 58.8173 28.7744C58.8173 27.6635 57.9169 26.7629 56.8061 26.7629C55.6954 26.7629 54.7949 27.6635 54.7949 28.7744C54.7949 29.8854 55.6954 30.786 56.8061 30.786Z" fill="#DFE8EE"/>
<path d="M62.4546 30.786C63.5653 30.786 64.4658 29.8854 64.4658 28.7744C64.4658 27.6635 63.5653 26.7629 62.4546 26.7629C61.3438 26.7629 60.4434 27.6635 60.4434 28.7744C60.4434 29.8854 61.3438 30.786 62.4546 30.786Z" fill="#DFE8EE"/>
<path d="M68.1909 30.786C69.3017 30.786 70.2021 29.8854 70.2021 28.7744C70.2021 27.6635 69.3017 26.7629 68.1909 26.7629C67.0801 26.7629 66.1797 27.6635 66.1797 28.7744C66.1797 29.8854 67.0801 30.786 68.1909 30.786Z" fill="#DFE8EE"/>
</g>
<defs>
<filter id="filter0_d_340_4" x="0" y="0" width="100" height="102" filterUnits="userSpaceOnUse" color-interpolation-filters="sRGB">
<feFlood flood-opacity="0" result="BackgroundImageFix"/>
<feColorMatrix in="SourceAlpha" type="matrix" values="0 0 0 0 0 0 0 0 0 0 0 0 0 0 0 0 0 0 127 0" result="hardAlpha"/>
<feOffset dy="2"/>
<feComposite in2="hardAlpha" operator="out"/>
<feColorMatrix type="matrix" values="0 0 0 0 0.176471 0 0 0 0 0.627451 0 0 0 0 0.890196 0 0 0 0.15 0"/>
<feBlend mode="normal" in2="BackgroundImageFix" result="effect1_dropShadow_340_4"/>
<feBlend mode="normal" in="SourceGraphic" in2="effect1_dropShadow_340_4" result="shape"/>
</filter>
<clipPath id="clip0_340_4">
<rect width="60" height="60" fill="white" transform="translate(19 21)"/>
</clipPath>
</defs>
</svg>
