<svg width="86" height="86" viewBox="0 0 86 86" fill="none" xmlns="http://www.w3.org/2000/svg">
<g clip-path="url(#clip0_405_327)">
<path d="M73 36.2908C72.7442 36.8548 72.6629 37.4755 72.3714 38.0317C71.3601 39.9607 69.7737 41.1298 67.64 41.5978C66.597 42.0639 65.5302 41.8485 64.4911 41.6331C62.5914 41.2394 61.245 40.0703 60.2376 38.4782C59.6844 37.501 59.4782 36.4396 59.3651 35.3351C59.147 33.1947 58.8555 31.0601 58.564 28.9275C58.5144 28.5633 58.336 28.2656 58.1377 27.9699C56.8507 26.0644 55.5559 24.1629 54.2868 22.2438C54.142 22.0264 53.7652 21.764 54.2114 21.4604C54.4613 21.3782 54.719 21.3899 54.9768 21.3899C57.862 21.388 60.7473 21.388 63.6325 21.3899C63.9458 21.3899 64.271 21.3488 64.5446 21.5603C66.4681 23.2562 68.4094 24.9345 70.3091 26.6559C71.4771 27.7133 71.9074 29.1331 72.1691 30.6293C72.4249 32.0863 72.6252 33.555 73 34.9924C73 35.4271 73 35.858 73 36.2908Z" fill="#8FCC92"/>
<path d="M60.3547 38.3862C61.9291 40.8948 64.2214 41.9249 67.1642 41.6174C67.3208 41.6018 67.4794 41.6037 67.6381 41.5959C67.6381 50.8803 67.6361 60.1646 67.6361 69.449C67.6361 70.6788 67.3049 71.002 66.0458 70.998C64.8163 70.9941 63.5869 70.9843 62.3574 70.9765C62.1829 70.7572 62.2028 70.4967 62.2028 70.2441C62.2028 65.0565 62.1889 59.8689 62.2067 54.6814C62.2504 53.9254 62.2186 53.1695 62.2226 52.4136C62.1948 51.5853 62.2008 50.7588 62.2186 49.9305C62.1849 49.4017 62.2048 48.873 62.2048 48.3423C62.2048 47.9467 62.0303 47.7685 61.6317 47.7724C61.3342 47.7763 61.0368 47.7705 60.7393 47.7705C56.8091 47.7705 52.8789 47.7685 48.9486 47.7724C48.6552 47.7724 48.3498 47.7195 48.0781 47.886C47.8243 48.1269 47.9115 48.4382 47.9115 48.7222C47.9076 55.825 47.9096 62.9298 47.9056 70.0326C47.9056 70.3577 47.9869 70.7043 47.745 70.9922C38.7245 70.9922 29.7039 70.9922 20.6834 70.9902C20.0866 70.8512 19.8684 70.4223 19.8089 69.872C19.7812 69.6174 19.7871 69.3628 19.7871 69.1083C19.7871 60.2919 19.7871 51.4775 19.7871 42.6612C19.7871 42.3675 19.7713 42.0737 19.8347 41.7839C19.9041 41.4843 20.1599 41.4098 20.4098 41.3531C22.01 40.9908 23.2256 40.0841 24.1754 38.7896C24.3004 38.6173 24.4134 38.4254 24.6434 38.3607C25.1411 38.5213 25.2918 39.0207 25.5992 39.3575C27.1776 41.0789 29.1408 41.6625 31.4311 41.4647C33.4557 41.2904 34.9548 40.2936 36.1268 38.725C36.2596 38.5468 36.3449 38.2805 36.6622 38.3588C37.2115 38.9424 37.6299 39.6278 38.2961 40.1271C39.8171 41.2688 41.5026 41.6664 43.3765 41.4529C45.3912 41.2238 46.9538 40.2779 48.0821 38.6212C48.1475 38.5233 48.2189 38.4273 48.32 38.3627C48.6393 38.2726 48.7265 38.539 48.8594 38.7172C49.8568 40.0527 51.0883 41.0632 52.7877 41.3628C55.7105 41.8779 58.1595 41.122 59.9462 38.6702C60.0513 38.537 60.1365 38.3705 60.3547 38.3862Z" fill="#E9E9E8"/>
<path d="M64.5447 21.5643C61.3283 21.5701 58.1119 21.576 54.8955 21.5819C54.6179 21.5819 54.3403 21.5936 54.0627 21.5995C53.8882 21.7621 53.6641 21.766 53.448 21.766C51.467 21.7679 49.486 21.7914 47.507 21.7562C44.1736 21.7816 40.8403 21.7856 37.5069 21.7562C35.3197 21.7836 33.1345 21.7777 30.9473 21.7621C28.2921 21.7797 25.6389 21.7758 22.9837 21.7679C22.3808 21.7503 21.776 21.7934 21.1732 21.7601C20.9313 21.7464 20.6477 21.7856 20.5347 21.4742C20.5426 19.79 20.5486 18.1059 20.5565 16.4217C20.5605 15.3505 20.9035 15.002 21.9704 15.002C35.6984 15 49.4265 15 63.1546 15.002C64.1818 15.002 64.5407 15.3682 64.5427 16.3924C64.5466 18.1157 64.5447 19.841 64.5447 21.5643Z" fill="#415B6B"/>
<path d="M62.3852 54.6617C62.3832 59.8474 62.3812 65.031 62.3793 70.2166C62.3793 70.4712 62.3674 70.7239 62.3614 70.9784C58.3221 70.9765 54.2828 70.9765 50.2435 70.9765C50.0234 70.7571 50.0551 70.4712 50.0531 70.2029C50.0472 65.219 50.0472 60.2371 50.0531 55.2532C50.0531 55.0005 50.0452 54.742 50.2019 54.5188C50.416 54.3386 50.6798 54.3445 50.9356 54.3425C54.4989 54.3367 58.0623 54.3367 61.6257 54.3425C61.8042 54.3425 61.9827 54.3504 62.1532 54.413C62.2662 54.46 62.3436 54.5442 62.3852 54.6617Z" fill="#FEB200"/>
<path d="M19.9834 41.6056C19.9815 50.939 19.9834 60.2743 19.9735 69.6076C19.9735 70.2127 20.1797 70.6651 20.6834 70.9941C20.0687 70.996 19.454 71.0019 18.8393 70.998C18.0044 70.9921 17.5999 70.5946 17.5979 69.7701C17.594 67.3007 17.5979 64.8332 17.5959 62.3638C17.594 55.449 17.592 48.5322 17.588 41.6174C17.7566 41.4039 17.9826 41.4979 18.1889 41.5097C18.6608 41.5351 19.1327 41.5645 19.6007 41.4627C19.7494 41.4607 19.8883 41.4744 19.9834 41.6056Z" fill="#CDCDCC"/>
<path d="M19.6245 41.592C18.9483 41.78 18.2662 41.6527 17.588 41.6175C14.6493 41.1357 12.5533 39.0717 12.0476 36.1734C11.881 35.2158 12.1785 34.3091 12.345 33.3906C12.5949 32.0061 12.7754 30.6098 13.1481 29.2468C13.4515 28.1404 14.0425 27.2082 14.9051 26.4445C16.7809 24.7858 18.6568 23.129 20.5327 21.4723C21.0939 21.7014 21.6828 21.5271 22.2559 21.578C22.4879 21.5996 22.7219 21.5957 22.9559 21.6015C22.8805 22.1499 22.3987 22.3809 22.0457 22.7002C20.5704 24.0357 19.0554 25.3282 17.586 26.6736C16.547 27.6253 15.9897 28.8023 15.7498 30.1496C15.49 31.5968 15.2144 33.0401 14.9566 34.4873C14.558 36.7276 15.3988 38.5096 17.0268 39.998C17.6178 40.5385 18.3336 40.8753 19.0812 41.1553C19.3033 41.2415 19.6126 41.2474 19.6245 41.592Z" fill="#649368"/>
<path d="M50.2415 54.5541C50.2415 60.0275 50.2415 65.503 50.2415 70.9765C49.4523 70.9804 48.6611 70.9863 47.8719 70.9902C47.7687 70.8727 47.8044 70.7297 47.8044 70.5966C47.8025 65.3385 47.8025 60.0804 47.8025 54.8204C47.8025 54.7225 47.8025 54.6246 47.8342 54.5306C48.6393 54.2388 49.4424 54.1996 50.2415 54.5541Z" fill="#C68400"/>
<path d="M47.86 54.5345C47.8639 60.0198 47.8679 65.505 47.8699 70.9902C47.8283 70.9922 47.7866 70.9942 47.743 70.9961C47.741 63.3548 47.739 55.7154 47.739 48.074C47.739 47.9076 47.6775 47.7137 47.8659 47.5923C48.0404 47.7822 48.0444 48.0192 48.0444 48.2522C48.0424 49.6329 48.0682 51.0135 48.0345 52.3921C48.0583 52.9091 48.0484 53.4261 48.0424 53.9431C48.0404 54.1566 48.0127 54.3641 47.86 54.5345Z" fill="#EFDCBA"/>
<path d="M47.4852 21.5995C49.6764 21.5995 51.8695 21.5995 54.0607 21.6014C55.304 23.4618 56.4879 25.3653 57.8164 27.165C58.5839 28.2049 58.8218 29.3211 58.9507 30.5353C59.1649 32.5523 59.4088 34.5675 59.6864 36.5767C59.7736 37.2112 60.0453 37.8143 60.3566 38.3862C59.6011 39.4515 58.7484 40.4111 57.5289 40.9849C54.6794 42.3263 50.7135 41.8641 48.6571 38.6878C48.5838 38.5742 48.5342 38.4371 48.3815 38.3979C48.2903 38.2373 48.3656 38.0924 48.433 37.9534C49.135 36.5375 49.0577 35.0257 48.9466 33.5237C48.8733 32.5308 48.8138 31.536 48.7781 30.5431C48.7265 29.1312 48.5778 27.7408 48.2804 26.3602C47.9968 25.0402 47.745 23.7145 47.4773 22.3926C47.4257 22.1321 47.3047 21.8619 47.4852 21.5995Z" fill="#FEB200"/>
<path d="M47.4852 21.5995C47.9155 23.6988 48.3537 25.7981 48.7721 27.9013C48.8554 28.3204 48.8852 28.7532 48.905 29.1801C49.0022 31.2853 49.1053 33.3925 49.1747 35.4996C49.2084 36.5356 48.907 37.503 48.3815 38.3999C47.0628 40.838 44.0527 42.1344 41.11 41.5547C39.129 41.165 37.6199 40.1389 36.6165 38.3999C35.8055 37.7497 35.752 36.7941 35.6707 35.8952C35.5338 34.3892 35.7797 32.8853 35.7916 31.3774C35.8194 28.3381 36.5571 25.4025 37.1519 22.4474C37.2134 22.1439 37.2332 21.8188 37.5109 21.6014C40.8343 21.5995 44.1598 21.5995 47.4852 21.5995Z" fill="#8FCC92"/>
<path d="M43.8147 47.6177C44.0249 47.788 43.9198 48.0191 43.9198 48.2189C43.9218 52.0572 43.904 55.8955 43.9218 59.7338C43.9238 60.288 43.7889 60.4584 43.2059 60.4564C38.0106 60.429 32.8152 60.429 27.6179 60.4329C26.3706 60.4329 25.1233 60.4779 23.876 60.4956C23.6856 60.4975 23.4774 60.5582 23.3069 60.4074C23.7094 60.0941 24.1834 60.241 24.6275 60.2194C25.3097 60.1861 25.3731 60.1509 25.3751 59.4694C25.385 56.7082 25.3831 53.947 25.387 51.1857C25.387 51.0095 25.385 50.8332 25.391 50.657C25.4168 49.8972 25.5437 49.762 26.3012 49.7503C27.2133 49.7366 28.1255 49.7483 29.0377 49.7483C33.4795 49.7522 37.9213 49.7562 42.3632 49.7601C42.5417 49.7601 42.7201 49.764 42.8986 49.7581C43.547 49.7405 43.5847 49.6857 43.6224 49.0414C43.6541 48.5635 43.4836 48.0563 43.8147 47.6177Z" fill="#629CF9"/>
<path d="M19.6245 41.5919C19.2299 41.2355 18.6905 41.1983 18.2325 40.9731C16.3367 40.0449 15.2659 38.4958 14.7742 36.5316C14.5759 35.7424 14.683 34.9219 14.8495 34.1131C15.145 32.6855 15.4226 31.252 15.6625 29.8146C15.954 28.0776 17.0506 26.8772 18.3118 25.7707C19.2557 24.9423 20.2293 24.1453 21.1494 23.2895C21.7522 22.7275 22.4542 22.2673 22.9559 21.6015C25.615 21.5995 28.2742 21.5995 30.9334 21.5975C31.0246 21.9109 30.8025 22.1165 30.6557 22.3378C29.5929 23.924 28.5756 25.5416 27.4374 27.073C26.6601 28.1168 26.3289 29.2369 26.206 30.4942C26.0077 32.5014 25.7439 34.5028 25.4663 36.5003C25.3731 37.174 25.2522 37.9025 24.6414 38.3862C23.5647 40.131 22.0378 41.2414 19.9854 41.6056C19.8644 41.6017 19.7455 41.5978 19.6245 41.5919Z" fill="#8FCC92"/>
<path d="M24.6414 38.3862C25.3811 37.1446 25.4009 35.7385 25.5754 34.3677C25.8153 32.4721 26.0612 30.5764 26.2952 28.6788C26.3289 28.4046 26.5054 28.2186 26.6442 28.011C28.0719 25.8725 29.5037 23.736 30.9354 21.5995C33.1265 21.5995 35.3197 21.5975 37.5109 21.5975C37.0806 23.6988 36.6423 25.7962 36.2239 27.8994C36.1406 28.3185 36.1109 28.7513 36.0911 29.1782C35.9939 31.2834 35.8908 33.3905 35.8234 35.4977C35.7897 36.5336 36.093 37.501 36.6166 38.3979C36.0177 39.0109 35.5636 39.7374 34.8696 40.2857C33.4874 41.3804 31.909 41.7408 30.2056 41.6722C28.5915 41.6076 27.1578 41.0514 25.9581 39.9528C25.4465 39.4887 25.0658 38.9208 24.6414 38.3862Z" fill="#FEB200"/>
<path d="M43.8108 47.6079C43.8108 48.1562 43.779 48.7085 43.8207 49.2548C43.8603 49.7816 43.7057 49.9618 43.1385 49.9539C40.9156 49.9206 38.6927 49.9402 36.4678 49.9402C33.073 49.9402 29.6782 49.9539 26.2833 49.9265C25.6964 49.9226 25.5635 50.1008 25.5675 50.655C25.5933 53.6943 25.5675 56.7317 25.5933 59.771C25.5972 60.2978 25.4465 60.4642 24.923 60.4211C24.3916 60.3781 23.8522 60.4153 23.3168 60.4172C23.1383 60.2586 23.2157 60.0491 23.2157 59.863C23.2117 55.9621 23.2177 52.0611 23.2038 48.1601C23.2018 47.7548 23.2613 47.5746 23.7431 47.5746C30.3325 47.5903 36.9239 47.5863 43.5133 47.5863C43.6125 47.5863 43.7116 47.6 43.8108 47.6079Z" fill="#3777D3"/>
<path d="M47.86 52.4156C47.8619 50.8078 47.8659 49.2 47.8679 47.5922C52.5398 47.5903 57.2116 47.5903 61.8835 47.5766C62.2603 47.5746 62.4209 47.6666 62.3971 48.0642C62.3594 48.6869 62.3673 49.3136 62.3554 49.9383C62.0739 50.1968 61.7209 50.1243 61.3937 50.1243C58.1278 50.1302 54.8598 50.1283 51.5939 50.1283C51.3956 50.1283 51.1973 50.1361 51.001 50.1322C50.5984 50.1243 50.4497 50.3221 50.4338 50.706C50.4081 51.266 50.5449 51.8418 50.3089 52.3881C50.2038 52.5233 50.0511 52.5507 49.8945 52.5761C49.2123 52.5429 48.5124 52.7544 47.86 52.4156Z" fill="#C68400"/>
<path d="M50.2415 52.3901C50.2415 51.7654 50.2732 51.1387 50.2316 50.516C50.1999 50.0342 50.3882 49.9285 50.8423 49.9304C54.6794 49.9442 58.5164 49.9383 62.3535 49.9363C62.3614 50.751 62.3693 51.5656 62.3753 52.3803C62.1829 52.6114 61.9113 52.5742 61.6594 52.5742C58.0921 52.5781 54.5267 52.5781 50.9593 52.5742C50.7095 52.5742 50.4358 52.6212 50.2415 52.3901Z" fill="#FEB200"/>
<path d="M50.2415 52.3902C54.2868 52.3882 58.332 52.3843 62.3773 52.3804C62.3793 53.1402 62.3832 53.902 62.3852 54.6618C62.3495 54.6168 62.3138 54.5698 62.2781 54.5247C62.0203 54.2231 62.0977 53.8569 62.0897 53.5123C62.0699 52.7662 62.0342 52.7192 61.2708 52.7172C57.8283 52.7133 54.3859 52.7152 50.9415 52.7133C50.6659 52.7133 50.3863 52.7329 50.1166 52.6545C50.0036 52.6212 49.8905 52.5723 49.8866 52.4254C50.0055 52.4156 50.1245 52.4019 50.2415 52.3902Z" fill="#EEE3C7"/>
<path d="M42.5734 19.3455C36.559 19.3455 30.5467 19.3455 24.5323 19.3455C24.3539 19.3455 24.1714 19.3631 23.9969 19.3337C23.5587 19.2613 23.2771 19.0008 23.2077 18.568C23.1403 18.1411 23.291 17.8101 23.7134 17.6084C23.9969 17.4733 24.2825 17.4655 24.5819 17.4655C36.6086 17.4674 48.6373 17.4674 60.664 17.4655C60.9634 17.4655 61.2569 17.4596 61.5285 17.6182C61.9073 17.8415 62.1115 18.1548 62.0223 18.5935C61.9351 19.0204 61.6515 19.2789 61.2093 19.3376C61.0328 19.3611 60.8524 19.3474 60.6739 19.3474C54.6417 19.3455 48.6075 19.3455 42.5734 19.3455Z" fill="#698492"/>
<path d="M49.8865 52.4273C50.0948 52.6016 50.3426 52.5232 50.5727 52.5232C54.259 52.5291 57.9433 52.5389 61.6297 52.5154C62.1631 52.5115 62.3336 52.6623 62.286 53.1773C62.2444 53.6238 62.2781 54.0762 62.2781 54.5266C58.5025 54.5285 54.729 54.5305 50.9534 54.5344C50.7174 54.5344 50.4795 54.5481 50.2435 54.554C49.4503 54.5481 48.6551 54.5403 47.8619 54.5344C47.8619 53.8294 47.8619 53.1225 47.86 52.4175C48.5342 52.4194 49.2104 52.4234 49.8865 52.4273Z" fill="#E9E9E8"/>
</g>
<defs>
<clipPath id="clip0_405_327">
<rect width="61" height="56" fill="white" transform="translate(12 15)"/>
</clipPath>
</defs>
</svg>
