<svg width="120" height="122" viewBox="0 0 120 122" fill="none" xmlns="http://www.w3.org/2000/svg">
<g filter="url(#filter0_d_343_469)">
<circle cx="60" cy="60" r="60" fill="white"/>
</g>
<g clip-path="url(#clip0_343_469)">
<path d="M92 96C91.7342 95.9967 91.4668 95.9918 91.2011 95.9918C70.743 95.9918 50.2849 95.9918 29.8268 95.9918C29.0065 95.9918 29.0065 95.9918 29.0065 95.1699C29.0065 94.4966 29.0213 93.8217 29 93.1485C28.9901 92.8037 29.1083 92.6566 29.4577 92.6925C29.6201 92.7089 29.7858 92.6958 29.9498 92.6958C50.3669 92.6958 70.784 92.6958 91.2011 92.6958C91.4668 92.6958 91.7342 92.6925 92 92.6909C92 93.7939 92 94.897 92 96Z" fill="#DEDEE9"/>
<path d="M79.6769 70.3852C79.6769 64.1151 79.6851 57.845 79.6638 51.5749C79.6621 51.0095 79.8163 50.8673 80.3741 50.8722C83.1629 50.9016 85.9516 50.8967 88.7388 50.8755C89.2276 50.8722 89.4031 50.9686 89.4015 51.503C89.3851 64.1053 89.3851 76.7059 89.4015 89.3082C89.4015 89.8524 89.2539 89.9946 88.7142 89.988C85.9254 89.9603 83.1366 89.9603 80.3495 89.988C79.8163 89.9929 79.6621 89.8687 79.6638 89.318C79.6851 83.0071 79.6769 76.6961 79.6769 70.3852Z" fill="#EF5541"/>
<path d="M53.3952 72.5864C53.3952 78.2012 53.3886 83.816 53.4067 89.4309C53.4083 89.9587 53.2885 90.1237 52.7341 90.1188C49.9256 90.0894 47.1172 90.0959 44.3103 90.1139C43.8395 90.1172 43.6722 90.0028 43.6738 89.5044C43.687 78.2126 43.687 66.9209 43.6738 55.6308C43.6738 55.17 43.8018 55.0474 44.2611 55.0507C47.1106 55.0719 49.9601 55.0752 52.8079 55.049C53.3214 55.0441 53.4067 55.2255 53.405 55.6798C53.3903 61.3142 53.3952 66.9503 53.3952 72.5864Z" fill="#8FCC92"/>
<path d="M55.6754 75.2255C55.6754 70.5274 55.6852 65.8309 55.6623 61.1329C55.659 60.5593 55.828 60.4204 56.3841 60.4253C59.1515 60.4531 61.9206 60.4498 64.6881 60.4269C65.1966 60.422 65.3442 60.5609 65.3426 61.074C65.3278 70.5503 65.3278 80.0282 65.3426 89.5044C65.3426 89.9979 65.1933 90.1188 64.7159 90.1156C61.9272 90.0943 59.1384 90.091 56.3513 90.1188C55.8132 90.1237 55.6606 89.9865 55.6639 89.4407C55.6836 84.7034 55.6754 79.9644 55.6754 75.2255Z" fill="#FEB200"/>
<path d="M41.3132 78.3172C41.3132 82.0332 41.305 85.7475 41.3231 89.4635C41.3264 89.9603 41.205 90.1286 40.68 90.1253C37.8519 90.1008 35.0237 90.1008 32.1956 90.1253C31.6887 90.1302 31.5854 89.9586 31.5854 89.4945C31.5985 82.0234 31.5985 74.5505 31.5854 67.0794C31.5854 66.612 31.692 66.4437 32.1972 66.4486C35.0451 66.4731 37.8945 66.4698 40.7424 66.4502C41.2165 66.447 41.3231 66.6071 41.3215 67.0499C41.3067 70.8051 41.3132 74.562 41.3132 78.3172Z" fill="#D6D5FA"/>
<path d="M77.4656 80.734C77.4656 83.5724 77.4492 86.4109 77.4787 89.2494C77.4853 89.854 77.2868 90.0011 76.7077 89.9962C73.9402 89.9684 71.1728 89.9733 68.4053 89.9945C67.9149 89.9978 67.736 89.8899 67.7377 89.3605C67.7557 83.6215 67.7557 77.8841 67.7393 72.1451C67.7377 71.6401 67.8706 71.4865 68.3873 71.4898C71.1958 71.5143 74.0042 71.5127 76.8127 71.4914C77.3278 71.4882 77.4787 71.6532 77.4754 72.1565C77.4557 75.0162 77.4656 77.8743 77.4656 80.734Z" fill="#629CF9"/>
<path d="M67.0306 54.4607C67.0241 54.2057 66.8321 54.0701 66.6747 53.9132C62.2569 49.5109 57.8392 45.1102 53.4198 40.7096C53.2623 40.5527 53.1262 40.3615 52.8702 40.3533C53.6199 39.7896 54.2236 39.082 54.8306 38.3777C54.993 38.5591 55.1455 38.7503 55.3178 38.9235C59.7257 43.3176 64.1352 47.7085 68.5431 52.1026C68.7006 52.2611 68.8466 52.4311 68.9992 52.5945C68.9664 52.7792 68.8171 52.856 68.6744 52.9279C68.0904 53.2155 67.6655 53.6632 67.3358 54.2139C67.2652 54.3283 67.2177 54.4852 67.0306 54.4607Z" fill="#DEDEE9"/>
<path d="M35.7488 51.0405C35.9703 51.0192 36.1097 50.8689 36.2557 50.7235C40.2765 46.7166 44.2972 42.7114 48.318 38.7045C48.418 38.6049 48.4984 38.4856 48.5886 38.3744C48.6772 38.3728 48.7593 38.4055 48.797 38.479C49.1776 39.2356 49.778 39.77 50.4998 40.19C50.5523 40.221 50.5605 40.2896 50.5457 40.3534C50.2422 40.3697 50.0946 40.6148 49.9109 40.7978C46.0279 44.6609 42.1499 48.5272 38.2669 52.3903C38.0947 52.5602 37.9552 52.7726 37.7124 52.8609C37.6222 52.8658 37.5484 52.8282 37.5041 52.7579C37.112 52.1157 36.5969 51.6059 35.9079 51.284C35.8111 51.2398 35.7472 51.1549 35.7488 51.0405Z" fill="#DEDEE9"/>
<path d="M71.2023 52.6175C71.4287 52.6028 71.5616 52.4394 71.7059 52.2956C75.4724 48.5436 79.2389 44.7933 83.0037 41.0398C83.1038 40.9401 83.1858 40.8208 83.2761 40.7113C83.4237 40.6917 83.5024 40.793 83.5566 40.8976C83.8715 41.5071 84.3374 41.9614 84.946 42.2784C85.0478 42.3324 85.156 42.4092 85.1117 42.5611C85.0215 42.6706 84.9378 42.7883 84.8378 42.888C81.0713 46.6432 77.3032 50.3967 73.5318 54.1487C73.4169 54.263 73.2808 54.3529 73.1545 54.4542C73.1118 54.4608 73.0593 54.4657 73.0396 54.4363C72.5721 53.7172 71.9766 53.1339 71.2122 52.7286C71.1826 52.7139 71.1892 52.6583 71.2023 52.6175Z" fill="#DEDEE9"/>
<path d="M85.1101 42.5611C84.2882 42.1509 83.6698 41.5414 83.2744 40.7112C82.8528 38.9023 83.3007 37.5607 84.6015 36.7403C85.8352 35.9609 87.4395 36.0916 88.5271 37.059C89.6328 38.0427 89.9461 39.5739 89.3113 40.9008C88.6781 42.2228 87.2738 42.9549 85.8253 42.7114C85.5858 42.6705 85.3496 42.6117 85.1101 42.5611Z" fill="#464E54"/>
<path d="M35.7488 51.0405C36.633 51.4016 37.2679 52.0291 37.7092 52.8625C38.0537 54.0391 38.0176 55.1617 37.217 56.1667C36.1967 57.4446 34.4299 57.7796 33.0142 56.9723C31.61 56.1716 31.003 54.446 31.5985 52.9475C32.1956 51.4409 33.8049 50.5993 35.3912 50.9637C35.5093 50.9898 35.6291 51.0144 35.7488 51.0405Z" fill="#464E54"/>
<path d="M71.2023 52.6174C72.0915 52.9785 72.7181 53.6158 73.1528 54.4541C73.4973 55.6536 73.4415 56.7909 72.6033 57.7943C71.6223 58.9659 70.0343 59.3058 68.6645 58.6489C67.28 57.9838 66.5615 56.5049 66.8929 54.9901C66.9322 54.812 66.9847 54.6372 67.0307 54.4607C67.4408 53.5815 68.1117 52.9753 68.9976 52.5945C69.7341 52.418 70.469 52.4033 71.2023 52.6174Z" fill="#464E54"/>
<path d="M50.5441 40.3534C49.6304 39.9497 48.9857 39.283 48.587 38.3744C48.2245 36.9299 48.4902 35.6651 49.7025 34.7091C50.8394 33.812 52.3158 33.7711 53.5264 34.5621C54.6551 35.299 55.2063 36.688 54.8995 38.0215C54.8716 38.1391 54.8519 38.2601 54.829 38.3793C54.4238 39.2814 53.7955 39.9644 52.8686 40.355C52.0943 40.5919 51.3184 40.5903 50.5441 40.3534Z" fill="#464E54"/>
</g>
<defs>
<filter id="filter0_d_343_469" x="0" y="0" width="120" height="122" filterUnits="userSpaceOnUse" color-interpolation-filters="sRGB">
<feFlood flood-opacity="0" result="BackgroundImageFix"/>
<feColorMatrix in="SourceAlpha" type="matrix" values="0 0 0 0 0 0 0 0 0 0 0 0 0 0 0 0 0 0 127 0" result="hardAlpha"/>
<feOffset dy="2"/>
<feComposite in2="hardAlpha" operator="out"/>
<feColorMatrix type="matrix" values="0 0 0 0 0 0 0 0 0 0 0 0 0 0 0 0 0 0 0.15 0"/>
<feBlend mode="normal" in2="BackgroundImageFix" result="effect1_dropShadow_343_469"/>
<feBlend mode="normal" in="SourceGraphic" in2="effect1_dropShadow_343_469" result="shape"/>
</filter>
<clipPath id="clip0_343_469">
<rect width="63" height="62" fill="white" transform="translate(29 34)"/>
</clipPath>
</defs>
</svg>
