<svg width="100" height="102" viewBox="0 0 100 102" fill="none" xmlns="http://www.w3.org/2000/svg">
<g filter="url(#filter0_d_340_3)">
<circle cx="50" cy="50" r="50" fill="white"/>
<circle cx="50" cy="50" r="49" stroke="#2DA0E3" stroke-opacity="0.6" stroke-width="2"/>
</g>
<g clip-path="url(#clip0_340_3)">
<path d="M79.7114 39.8204C78.873 41.6564 77.8315 43.3551 76.366 44.7654C75.3314 45.7611 74.2002 46.6319 72.9059 47.2504C71.6697 47.8425 70.653 48.6607 69.9279 49.8325C69.5204 49.9393 69.3477 49.6148 69.1557 49.3762C68.0576 48.0076 66.6239 47.3461 64.8917 47.3392C61.6236 47.3267 58.3555 47.3073 55.0888 47.3405C48.3827 47.4085 42.4874 42.971 40.7457 36.599C39.41 31.715 40.3713 27.2428 43.5096 23.2491C44.2872 22.259 45.203 21.4339 46.2086 20.6947C46.3564 20.5866 46.5291 20.4978 46.4945 20.2662C46.5843 19.9112 46.9421 20.1761 47.1092 19.9972C54.1081 19.9972 61.1057 19.9972 68.1046 19.9972C68.3795 20.1414 68.6889 20.0901 68.9776 20.1179C72.4763 20.4507 75.1671 22.234 77.431 24.805C79.1797 26.7908 80.2861 29.0955 80.746 31.6914C81.1825 34.1542 81.0803 36.6018 80.2792 38.9953C80.1673 39.3281 80.0733 39.6678 79.7114 39.8204Z" fill="#629CF9"/>
<path d="M47.3848 91C47.6279 90.7656 47.929 90.8974 48.2052 90.8669C48.3033 90.9057 48.3061 90.9501 48.2135 91C47.9373 91 47.661 91 47.3848 91Z" fill="#FDDE6F"/>
<path d="M48.2134 91C48.212 90.9556 48.2092 90.9113 48.2051 90.8669C48.4882 90.8807 48.7894 90.7878 49.0421 91C48.7659 91 48.4896 91 48.2134 91Z" fill="#FCD64B"/>
<path d="M36.1978 46.7484C37.8443 46.7401 39.4908 46.7318 41.1359 46.7248C41.5033 46.5182 41.8072 46.7332 42.1042 46.8926C44.357 48.1116 46.7508 48.7217 49.32 48.6857C51.7593 48.6524 54.2 48.669 56.6393 48.6857C56.9902 48.6884 57.3977 48.5928 57.6173 49.0171C60.9075 51.2872 63.0512 54.3365 63.891 58.2804C65.637 66.4773 59.6989 74.7033 51.3974 75.4688C47.6611 75.814 43.9026 75.5298 40.1552 75.5977C39.6966 75.606 39.2325 75.606 38.7808 75.6782C37.1178 75.943 35.8594 76.8458 34.9188 78.2256C34.5486 78.2158 34.5044 77.8941 34.4174 77.6528C33.8718 76.1469 32.869 75.111 31.4407 74.3719C26.8867 72.0144 24.1034 68.2883 23.392 63.1769C22.7318 58.4371 24.1255 54.3088 27.4696 50.8531C28.9876 49.2847 30.7473 48.1365 32.7764 47.353C33.7654 46.9717 34.7889 46.937 35.8111 46.8302C35.9437 46.8191 36.0901 46.876 36.1978 46.7484Z" fill="#FEB200"/>
<path d="M57.6185 49.0185C55.1888 49.0102 52.7564 48.9297 50.3295 49.0102C47.0338 49.1197 43.9563 48.479 41.1371 46.7249C38.3469 44.7876 36.2377 42.2874 35.2694 38.9981C33.5 32.9783 34.9766 27.8031 39.5486 23.5209C39.7158 23.3642 39.887 23.2116 40.0569 23.0563C41.8153 21.7875 43.7063 20.8029 45.8431 20.3536C46.0655 20.3065 46.2934 20.2898 46.5185 20.2593C46.7119 20.2829 46.9053 20.3065 47.1995 20.3411C46.6028 20.8639 46.0089 21.2065 45.4923 21.6571C42.6979 24.095 41.0777 27.1458 40.6094 30.8261C40.0887 34.9197 41.1772 38.582 43.7519 41.7354C46.1774 44.7044 49.335 46.5252 53.1915 46.8926C56.9278 47.249 60.6808 47.0174 64.4268 47.0174C66.6437 47.0174 68.4132 47.7427 69.6991 49.5759C69.764 49.6689 69.8511 49.7479 69.927 49.8325C69.1231 51.6006 69.3317 53.4823 69.3165 55.3391C69.3124 55.7843 69.2723 56.2211 68.9643 56.5733C68.4187 57.1987 67.5499 57.1169 67.0291 56.3653C66.0857 55.0022 65.0967 53.664 64.2486 52.2426C62.7251 49.6855 60.4929 48.7176 57.6185 49.0185Z" fill="#3777D3"/>
<path d="M36.1987 46.7484C35.8879 46.9939 35.4956 46.9426 35.1447 47.0119C29.331 48.1545 24.8128 52.6725 23.7865 58.5466C22.8707 63.7912 24.462 68.2495 28.3033 71.891C29.1542 72.6981 30.1003 73.4317 31.1805 73.9004C33.1364 74.749 34.3781 76.169 34.921 78.2255C33.8422 79.8328 32.7717 81.4441 31.6805 83.0416C31.3725 83.4923 30.936 83.7128 30.3669 83.545C29.7522 83.3633 29.4594 82.9251 29.4442 82.315C29.4207 81.3457 29.4359 80.375 29.4359 79.4043C29.4346 77.0233 28.3516 75.2899 26.2521 74.236C23.2271 72.7161 20.9314 70.4835 19.4396 67.4313C15.2917 58.9391 20.5239 48.5664 29.7978 46.937C31.9139 46.5668 34.0618 46.7054 36.1987 46.7484Z" fill="#C68400"/>
<path d="M47.9179 37.3534C46.4178 37.3562 45.2631 36.1885 45.2755 34.6784C45.2865 33.2029 46.4344 32.0575 47.9013 32.0547C49.3834 32.052 50.5713 33.2487 50.5589 34.7311C50.5464 36.1872 49.3751 37.3506 47.9179 37.3534Z" fill="#F7F9FC"/>
<path d="M57.6611 37.3534C56.1804 37.3617 54.98 36.1664 54.9883 34.6909C54.9966 33.2404 56.1721 32.0631 57.6197 32.0547C59.1183 32.0464 60.2828 33.214 60.2758 34.7186C60.2689 36.1969 59.1294 37.3465 57.6611 37.3534Z" fill="#F7F9FC"/>
<path d="M67.3846 37.3534C65.8886 37.3589 64.7201 36.183 64.7325 34.684C64.745 33.2085 65.8928 32.0603 67.3583 32.0547C68.8363 32.0506 70.0394 33.2543 70.0269 34.727C70.0145 36.1733 68.8335 37.3478 67.3846 37.3534Z" fill="#F7F9FC"/>
<path d="M41.1043 58.7893C42.5809 58.7865 43.7909 60.0027 43.7688 61.4684C43.7467 62.9162 42.5574 64.0949 41.114 64.0963C39.6429 64.099 38.4274 62.8718 38.4495 61.4088C38.473 59.9569 39.6526 58.7921 41.1043 58.7893Z" fill="#F7F9FC"/>
<path d="M34.0131 61.4657C33.9993 62.9314 32.839 64.0935 31.3832 64.0963C29.9107 64.099 28.7214 62.8926 28.7325 61.4074C28.7449 59.9195 29.9411 58.763 31.4412 58.7921C32.9095 58.8198 34.0255 59.9805 34.0131 61.4657Z" fill="#F7F9FC"/>
<path d="M53.4771 61.4227C53.4826 62.9134 52.2975 64.106 50.8181 64.0963C49.3719 64.0866 48.2048 62.9078 48.1992 61.4504C48.1937 59.9458 49.3581 58.781 50.8582 58.7907C52.3293 58.8004 53.4716 59.9486 53.4771 61.4227Z" fill="#F7F9FC"/>
</g>
<defs>
<filter id="filter0_d_340_3" x="0" y="0" width="100" height="102" filterUnits="userSpaceOnUse" color-interpolation-filters="sRGB">
<feFlood flood-opacity="0" result="BackgroundImageFix"/>
<feColorMatrix in="SourceAlpha" type="matrix" values="0 0 0 0 0 0 0 0 0 0 0 0 0 0 0 0 0 0 127 0" result="hardAlpha"/>
<feOffset dy="2"/>
<feComposite in2="hardAlpha" operator="out"/>
<feColorMatrix type="matrix" values="0 0 0 0 0.176471 0 0 0 0 0.627451 0 0 0 0 0.890196 0 0 0 0.15 0"/>
<feBlend mode="normal" in2="BackgroundImageFix" result="effect1_dropShadow_340_3"/>
<feBlend mode="normal" in="SourceGraphic" in2="effect1_dropShadow_340_3" result="shape"/>
</filter>
<clipPath id="clip0_340_3">
<rect width="63" height="71" fill="white" transform="translate(18 20)"/>
</clipPath>
</defs>
</svg>
