<svg width="43" height="43" viewBox="0 0 43 43" fill="none" xmlns="http://www.w3.org/2000/svg">
<path d="M18.9379 16.2171L19.282 17.5783L28.025 15.3684L27.6809 14.0072L18.9379 16.2171ZM19.0022 19.1158L19.3507 20.4944L29.4374 17.9448L29.089 16.5662L19.0022 19.1158ZM26.0496 17.91L24.9252 18.6769C26.0941 19.9224 27.9392 20.9785 29.5859 21.3235C29.729 20.9345 30.046 20.2789 30.2939 19.9377C28.7697 19.7103 27.065 18.9158 26.0496 17.91ZM21.8829 12.1494C22.7908 17.137 22.3323 20.4648 19.1781 22.9702C19.5803 23.1656 20.2931 23.6352 20.5556 23.8659C23.7307 21.0025 24.3413 17.3949 23.4276 11.8704L21.8829 12.1494ZM13.4126 15.1445L13.7919 16.6453L17.2996 15.7586L16.9202 14.2578L13.4126 15.1445ZM12.6971 15.3253L14.285 21.6077C14.9246 24.1382 15.7326 27.6286 15.3904 30.3143C15.7921 30.3613 16.5216 30.5297 16.8626 30.7034C17.2219 27.8648 16.3779 23.9379 15.6942 21.233L14.1106 14.968L12.6971 15.3253ZM15.8732 14.5225L19.2917 28.0472C19.3402 28.2391 19.3055 28.3222 19.1005 28.3925C18.926 28.4366 18.3501 28.5822 17.7524 28.7147C18.0458 29.0676 18.4186 29.7346 18.555 30.1271C19.5716 29.8887 20.1866 29.6776 20.5567 29.3055C20.9442 28.9291 20.9517 28.4445 20.762 27.6941L17.3391 14.152L15.8732 14.5225ZM14.1997 18.9929L14.5702 20.4588L17.9033 19.6163L17.5328 18.1504L14.1997 18.9929ZM15.1783 22.6444L15.5444 24.0929L18.8427 23.2592L18.4766 21.8108L15.1783 22.6444ZM18.3518 14.1188C19.1693 14.562 20.0924 15.2755 20.539 15.7939L21.549 14.7217C21.0675 14.2121 20.1447 13.5728 19.3316 13.1471L18.3518 14.1188ZM25.5093 11.5856C25.3062 12.3981 24.9073 13.4644 24.4116 14.2209C24.7961 14.3465 25.4255 14.633 25.7621 14.7893C26.2532 13.9411 26.6737 12.8136 26.9414 11.6691L25.5093 11.5856ZM21.2734 22.8862L21.6175 24.2474L27.8824 22.6638L27.5384 21.3026L21.2734 22.8862ZM23.3758 20.4796C23.9998 23.7566 24.1458 26.1704 21.2217 28.1906C21.6457 28.399 22.2145 28.8865 22.4817 29.2089C25.6842 26.8212 25.6243 23.9401 24.894 20.0958L23.3758 20.4796ZM27.1719 21.3952L27.2292 21.6221C27.8526 24.6022 27.9648 25.7807 27.7605 26.1479C27.6737 26.3184 27.5254 26.393 27.2767 26.4373C26.9975 26.5079 26.3518 26.6711 25.6361 26.7777C25.96 27.1043 26.2626 27.6405 26.4078 28.0679C27.1845 27.9088 27.9479 27.6972 28.3405 27.5609C28.7984 27.3894 29.0991 27.1834 29.3076 26.7594C29.6029 26.1649 29.4728 24.8425 28.8445 21.6223C28.8265 21.404 28.7251 21.0026 28.7251 21.0026L27.1719 21.3952Z" fill="#DE0505"/>
<circle cx="21.2549" cy="21.2549" r="16.5" transform="rotate(-14.1853 21.2549 21.2549)" stroke="#DE0505" stroke-width="2"/>
</svg>
