<svg width="600" height="314" xmlns="http://www.w3.org/2000/svg" fill="none">
 <defs>
  <clipPath id="clip0_505_32">
   <rect id="svg_1" fill="white" height="447.199" width="600"/>
  </clipPath>
 </defs>
 <g>
  <title>Layer 1</title>
  <g stroke="null" id="svg_2" clip-path="url(#clip0_505_32)">
   <path stroke="null" id="svg_3" fill="#F9BD29" d="m297.32581,161.70179c15.87426,0 28.74301,-2.60382 28.74301,-5.81651c0,-3.21201 -12.86876,-5.81583 -28.74301,-5.81583c-15.87426,0 -28.74301,2.60382 -28.74301,5.81583c0,3.21268 12.86876,5.81651 28.74301,5.81651z"/>
   <path stroke="null" id="svg_4" fill="#38A1DB" d="m343.53371,63.04013l-35.38758,-5.54209c-5.60866,-0.88307 -10.91188,2.89281 -11.76534,8.43497l-9.44889,60.14125c-0.88421,5.63338 2.65128,9.37872 5.94349,10.84036c3.35303,1.49172 8.56469,1.67485 12.2833,-2.83173l44.83716,-54.5995c2.31645,-2.83173 2.92597,-6.54633 1.61536,-9.95716c-1.3106,-3.47146 -4.32812,-5.90754 -8.07747,-6.48611l-0.00002,0.00001z"/>
   <path stroke="null" id="svg_5" fill="#45C0F0" d="m291.35158,65.1413c1.3106,-8.3132 9.20496,-14.00753 17.58719,-12.66766l12.25256,1.91838l5.33463,-33.86165c1.92012,-12.11955 -12.98505,-19.67142 -21.79368,-11.0233l-39.19775,38.36843c-7.46795,7.30823 -3.32229,19.94547 7.10171,21.58984l17.58719,2.77104l1.12814,-7.0951l0.00001,0.00001z"/>
   <path stroke="null" id="svg_6" fill="#2468B3" d="m176.86673,209.02313c1.46298,-0.03075 2.71277,1.12614 2.77359,2.61853c0.45781,10.13996 -0.12163,45.46338 -0.12163,45.46338c-0.06082,0.15238 -1.12748,1.18763 -2.46883,1.18763l-23.07374,0c0,0 -0.39618,0 -0.60958,0.15238c-0.21334,0.18246 -0.15238,0.6396 -0.15238,0.6396l0,8.61749l25.39026,0.03075l6.27899,-0.2132c1.37142,-0.03075 2.49956,1.09606 2.49956,2.43608l0,7.03421c0,1.33934 -1.06733,2.40533 -2.37793,2.43608c0,0 -2.62121,0.30409 -6.37056,0.36491c-5.51643,0.06148 -21.97607,0 -24.84122,0c-0.27435,0 -0.4572,0.2132 -0.4572,0.48722l0.36578,21.80304c0.03048,1.37075 -1.06679,2.49756 -2.43841,2.49756l-9.54039,0c-1.37162,0 -2.46889,-1.12681 -2.43841,-2.49756l0.36578,-21.80304c0,-0.27401 -0.18292,-0.48722 -0.4572,-0.48722c-2.83474,0 -19.08078,0.09156 -24.53673,0c-3.74911,-0.06082 -6.27899,-0.45647 -6.27899,-0.45647c-1.31065,0.03075 -2.37746,-1.03525 -2.37746,-2.37525l0,-6.97339c0,-1.37009 1.12778,-2.46615 2.49939,-2.43608l6.18754,0.2132l25.08536,0c0,-0.76123 0,-8.28266 0,-9.01315l-0.51816,-0.45714c-0.4572,0 -16.27653,-0.18246 -23.0432,-0.27401c-1.61543,-0.03008 -2.83467,-1.34001 -2.83467,-2.92329l0.03048,-40.34795c0,-3.37976 2.16413,-5.51107 3.81004,-5.51107l59.64996,-0.2132l-0.00004,-0.00002zm-51.14595,10.41397c-0.27428,0 -0.51816,0.2132 -0.57911,0.45647l0,6.76019l42.48969,3.47199l0,-8.89218c0,-0.97443 -0.79251,-1.76573 -1.76787,-1.76573l-40.14271,-0.03075l0,0.00001zm-0.54864,27.68036l42.52017,0l0,-7.73462l-42.52017,-2.80166l0,10.53628zm218.02606,-21.8946l-28.65145,0c-1.55455,0 -2.8344,-1.27919 -2.8344,-2.83173l0,-7.58224c0,-1.5532 1.27986,-2.83239 2.8344,-2.83239l78.18231,0c1.09741,0 1.98094,0.88353 1.98094,1.97961l0,9.28716c0,1.09674 -0.88353,1.97961 -1.98094,1.97961l-35.14364,0l-14.38721,0l-0.00001,-0.00001zm14.05171,4.01935c0.42639,0.15238 0.33551,1.15756 0.33551,1.15756l-0.03075,12.88079l5.02921,-4.99446l1.03659,-0.2132c9.02183,4.0501 19.59888,12.24186 27.03609,19.18451l-0.09156,1.03525l-8.96102,10.10988l-1.03659,-0.09156c-6.73613,-6.85109 -14.93525,-13.06325 -23.01272,-17.7222l0.48789,50.57948c0.03008,1.52247 -1.18897,2.77091 -2.71277,2.77091l-9.93678,0c-1.5238,0 -2.74351,-1.24844 -2.71277,-2.77091l0.48789,-72.53489c0,-0.8528 0.70108,-1.5532 1.55455,-1.5532c0,0 7.89436,1.18763 10.85106,1.76641c0.27401,0.03075 1.06666,0.15238 1.67618,0.39566l-0.00002,-0.00003zm52.8224,-5.05461l-0.73115,-0.60885l0,-11.08431l0.60952,-0.60952l11.00344,0.30476l8.07681,0l10.48548,-0.30476l0.60952,0.51796l0,11.2975l-0.60952,0.51729l-7.89436,-0.2132l0,15.43917l6.30974,-0.2132l0.60952,0.51729l0,11.2975l-0.60952,0.51796l-6.30974,-0.2132l0,19.06221c2.65194,-0.82205 5.3039,-1.6441 7.80279,-2.46615c0.33551,-0.12231 0.33551,-0.09156 0.671,0.06082c0.27401,0.12163 0.36558,0.45647 0.36558,0.45647l-0.33551,8.70905c-0.06082,1.46165 -0.91428,2.77091 -2.2857,3.28887c-6.03505,2.37525 -15.42313,5.29854 -25.39065,8.06945l-0.94436,-0.51796l-3.81017,-11.29684l0.51796,-0.94436c3.50541,-0.60885 6.94933,-1.34001 10.36317,-2.07049l0,-22.38182l-7.46729,0.2132l-0.73183,-0.60885l0,-11.08431l0.60952,-0.60885l7.55952,0.2132l0,-15.43917l-8.4738,0.18313l0.00001,0zm61.35701,-15.22597l0,43.39288c0,26.18798 -3.84025,39.25189 -25.38999,49.60505c-0.60952,0.30476 -1.03659,0.51796 -1.55455,0.51796c-0.51796,0 -1.03659,-0.30476 -1.76774,-0.94436l-9.11406,-8.16102c0,0 -0.33484,-0.30409 -0.27401,-0.60885c0.09156,-0.36558 0.09156,-0.42639 0.42639,-0.54804c19.17248,-7.5515 23.98849,-15.62163 23.98849,-36.57187l0,-46.68176l0.73115,-0.73049l12.22315,0l0.73115,0.73049zm-17.3125,21.25501l0,17.38803l0.42639,12.48446c0.06082,1.70558 -1.3106,3.10642 -2.98678,3.10642l-6.88851,0c-1.70693,0 -3.04827,-1.40082 -2.98745,-3.10642l0.42707,-12.69767l0,-17.08327l0.73115,-0.82205l10.48548,0l0.79265,0.73049zm42.09297,17.90532l5.73029,-0.2132l0.73183,0.73115l0,11.2975l-0.73183,0.73049l-5.73029,-0.2132l0,27.13233l10.05909,-0.30476l0.73115,0.73049l0,11.51071l-0.73115,0.73115l-11.70452,-0.30476l-14.63116,0l-9.96686,0.30476l-0.73183,-0.73115l0,-11.51071l0.73183,-0.73049l9.96686,0.30476l2.37793,0l0,-27.13233l-6.15736,0.2132l-0.73115,-0.73049l0,-11.2975l0.73115,-0.73115l6.15736,0.2132l0,-23.50796l-6.85843,0.2132l-0.73115,-0.73115l0,-11.47996l0.73115,-0.73115l9.7844,0.30476l9.02183,0l10.39392,-0.30476l0.73183,0.73115l0,11.47996l-0.73183,0.73115l-8.41231,-0.2132l0,23.50796l-0.03075,0zm-196.62903,-24.36075l-13.5939,0.30476l-5.09002,0l0,-16.9917l-0.73183,-0.73115l-12.86275,0l-0.60952,0.73115l0,46.71183l-1.55455,0l-10.79024,-0.30476l-0.60952,0.73115l0.30476,11.3884l0,13.06391l-0.2132,10.65791c-1.12814,-3.74601 -2.89589,-8.06945 -4.75519,-11.2975l-0.94503,-0.30476l-7.46729,2.37525l-0.30476,0.73115c1.98094,4.141 3.32229,8.37355 4.57207,13.45889l0.94503,0.30476l7.86361,-3.01485l0.18313,10.47545c0,0.73049 0.60952,1.30927 1.34067,1.30927c0,0 14.44803,0.2132 19.23329,0.18246c5.05995,-0.03008 20.17832,-0.45647 20.17832,-0.45647c1.43224,0 2.56039,-1.15689 2.52964,-2.58846c0,0 0.45714,-15.40843 0.51796,-20.55459c0.03075,-3.22738 0.09156,-9.71355 0,-12.9416c-0.0909,-3.1973 -0.67034,-12.81997 -0.67034,-12.81997l-0.73183,-0.73049l-11.70452,0.30409l-3.71794,0l0,-17.2958l5.09002,0l13.47227,0.30409l0.73115,-0.73049l0,-11.81547l-0.60952,-0.45647l0.00001,0.00001zm-14.96599,41.96131c0.15305,0 0.24394,0.06148 0.27469,0.2132c0.12163,1.34001 0.70108,8.55734 0.73183,12.51588c0.03008,6.39462 -0.61019,13.06325 -0.73183,14.34244c0,0.15238 -0.12163,0.2132 -0.27469,0.2132l-18.28761,0c-0.15238,0 -0.27469,-0.12231 -0.27469,-0.27401l0,-26.73601c0,-0.15238 0.12231,-0.27469 0.27469,-0.27469l18.28761,0l0,0l0,-0.00002zm-47.12218,14.89114l-8.19912,1.8573l-0.42707,0.73115c1.34135,4.141 2.49956,9.43954 3.41384,14.61645l0.82272,0.42639l8.71774,-2.49756l0.51796,-0.73049c-0.82272,-4.14166 -2.37726,-10.44472 -4.05344,-13.97686l-0.79265,-0.42639zm-33.07114,1.24844c15.54477,-1.5532 30.48001,-3.62371 44.25704,-6.12059c1.85931,-0.30476 2.46883,-0.60952 2.46883,-1.97961l0.12231,-7.9779c-5.70022,0.73049 -11.61296,1.46165 -17.73957,1.97894l0,-4.23256l5.79111,0l10.36317,0.30476l0.73183,-0.73115l0,-9.10471l-0.73183,-0.73115l-10.36317,0.30476l-5.79111,0l0,-4.56806l4.23657,0l11.61296,0.06148c0.5487,0 1.00584,-0.42639 1.00584,-0.97443l0.30476,-11.17587l0,-16.87007l0.30476,-10.13996l-0.73115,-0.73115l-12.71037,0.42639l-20.94022,0l-11.64304,-0.42639l-0.73183,0.73115l0.30476,10.13996l0,16.87007l0.12163,11.84554c0,0.15238 0.12231,0.27401 0.27469,0.27401l12.55799,0l3.53549,0l0,4.56739l-6.64457,0l-10.14998,-0.30409l-0.82272,0.60885l0,9.10471l0.82272,0.82272l10.14998,-0.30476l6.64457,0l0,5.39011c-6.21818,0.51729 -12.74044,0.94368 -19.38567,1.24844l-0.73115,0.73049l2.59046,10.44472l0.91495,0.51796l-0.00002,-0.00001zm30.41919,-42.236l6.43137,-15.59088l0,15.59088l-6.43137,0zm-6.49219,-6.36387c-2.53031,-4.9029 -5.66947,-10.74948 -7.52878,-14.06841l13.62465,0c-0.9751,1.91811 -3.41384,8.46511 -6.09587,14.06841zm-13.35062,6.36387l0,-13.91603l6.67532,13.91603l-6.67532,0l0,0zm10.79024,43.97166l-7.98592,1.8573l-1.06666,0.03075l-10.42467,-1.85796c0,0 -3.26146,9.71423 -5.76037,14.89114l0.30476,0.73049l10.48482,3.44125l0.94503,-0.09156c2.16407,-4.56739 3.62705,-8.83069 4.96839,-14.82965c0.82272,3.92847 1.46298,8.92225 2.0725,13.15481l0.82338,0.42639l8.80864,-2.13132l0.51796,-0.73115c-0.51796,-4.14166 -1.737,-10.74948 -2.98678,-14.37317l-0.70108,-0.51729l-0.00001,-0.00002z"/>
  </g>
 </g>
</svg>